<svg id="Layer_1" data-name="Layer 1" xmlns="http://www.w3.org/2000/svg" xmlns:xlink="http://www.w3.org/1999/xlink" viewBox="0 0 64 64"><defs><style>.cls-1{fill:url(#linear-gradient);}.cls-2{fill:url(#linear-gradient-2);}.cls-3{fill:url(#linear-gradient-3);}.cls-4{fill:#fff;}.cls-5{fill:url(#linear-gradient-4);}.cls-6{fill:url(#linear-gradient-5);}.cls-7{fill:url(#linear-gradient-6);}.cls-8{fill:url(#linear-gradient-7);}</style><linearGradient id="linear-gradient" x1="13.52887" y1="48.09352" x2="29.29891" y2="48.09352" gradientUnits="userSpaceOnUse"><stop offset="0" stop-color="#2156a3"/><stop offset="1" stop-color="#012b73"/></linearGradient><linearGradient id="linear-gradient-2" x1="16.22809" y1="41.02843" x2="55.769" y2="41.02843" xlink:href="#linear-gradient"/><linearGradient id="linear-gradient-3" x1="24.58998" y1="19.66612" x2="49.90035" y2="19.66612" xlink:href="#linear-gradient"/><linearGradient id="linear-gradient-4" x1="31.61468" y1="18.48277" x2="42.88272" y2="18.48277" xlink:href="#linear-gradient"/><linearGradient id="linear-gradient-5" x1="33.67523" y1="23.1946" x2="40.81156" y2="23.1946" xlink:href="#linear-gradient"/><linearGradient id="linear-gradient-6" x1="35.83304" y1="18.47974" x2="38.66121" y2="18.47974" xlink:href="#linear-gradient"/><linearGradient id="linear-gradient-7" x1="13.53335" y1="43.21555" x2="14.48446" y2="43.21555" xlink:href="#linear-gradient"/></defs><path class="cls-1" d="M17.87371,56.99036c-.54907-.90119-1.218-1.71687-1.83971-2.56581q-3.815-5.20974-7.65522-10.401c-.23231-.31356-.1873-.44066.11084-.65653q2.763-2.00061,5.49461-4.04425c.26325-.19672.37427-.16084.55682.09022,1.30145,1.78978,2.61835,3.56832,3.93045,5.35036q1.44877,1.96766,2.89777,3.93517c.82371,1.11912,1.63266,2.24956,2.479,3.35129.24549.31957.186.4641-.11318.67153-1.127.78135-2.23185,1.59615-3.33346,2.41079a28.17617,28.17617,0,0,0-2.43032,1.85818ZM12.31,43.14541a1.703,1.703,0,1,0,3.405.07551,1.70327,1.70327,0,0,0-3.405-.07551Z"/><path class="cls-2" d="M54.92,36.6596c-.9.92-1.82,1.82-2.72,2.73005-2.48,2.47-4.96,4.93-7.42,7.42a4.12382,4.12382,0,0,1-3.13995,1.3c-3.53-.03-7.06-.02-10.58-.03-1.06.01-2.12.03-3.17.02a3.04482,3.04482,0,0,0-1.99.64c-.5.39-1.05.74-1.55,1.14-.3.25-.46.25-.7-.09-1.52-2.09-3.06-4.17-4.59-6.25q-1.335-1.83-2.68-3.65a.5206.5206,0,0,1-.04-.69,6.46714,6.46714,0,0,1,2.65-2.38,15.50468,15.50468,0,0,1,10.85-1.19,2.16057,2.16057,0,0,1,1.31.65q4.75506.015,9.51.02a3.69509,3.69509,0,0,1,1.46.26,2.5347,2.5347,0,0,1-.01,4.65,3.68268,3.68268,0,0,1-1.5.26c-3.15,0-6.3.01-9.46.01a.90474.90474,0,0,0,.01,1.15c3.4.01,6.8.04,10.2,0a3.631,3.631,0,0,0,3.35-2.97,1.66161,1.66161,0,0,1,.49-.92c1.98-1.97,3.95-3.96,5.94-5.92a2.69469,2.69469,0,1,1,3.78,3.84Z"/><path class="cls-3" d="M49.35,16.85962a11.57936,11.57936,0,0,0-1.41-.34,1.3146,1.3146,0,0,1-1.26-1.05.723.723,0,0,1,.07-.67c.35-.55.66-1.11,1.01-1.66a.68114.68114,0,0,0-.09-.96c-.98-.97-1.96-1.95-2.94-2.93a.66174.66174,0,0,0-.95-.1,10.50813,10.50813,0,0,0-1.12.69,1.42629,1.42629,0,0,1-1.84.12c-.17-.1-.26-.15-.3-.37a5.83942,5.83942,0,0,0-.21-.92c-.18-.57-.08-1.26-.67-1.66H34.76a1.89258,1.89258,0,0,0-.39.85c-.12.55-.26,1.1-.4,1.65-.13.51-1.18,1-1.6.69-.6-.44-1.27-.76-1.9-1.14-.29-.19-.5-.02-.69.16-.99.99-1.97,1.98-2.97,2.97a.66017.66017,0,0,0-.1.92c.35.56.68994,1.13,1.03,1.7a1.28527,1.28527,0,0,1-.63,1.57c-.6.15-1.2.29-1.8.44-.63.16-.71.25995-.72.9v3.9c.01.62.11005.75.73.9.61.15,1.23.29,1.84.45a1.34,1.34,0,0,1,.6,1.51c-.35.59-.7,1.17-1.06,1.75a.63948.63948,0,0,0,.09.88c1,1,2,2.01,3,3a.57489.57489,0,0,0,.9.05c.57-.33,1.13-.66,1.7-1a1.27246,1.27246,0,0,1,1.58.67c.15.62.31,1.23.45,1.85a.70526.70526,0,0,0,.82.64c1.02-.02,2.04,0,3.07,0,1.85-.01,1.52.2,2-1.61005a.35437.35437,0,0,0,.02-.1,1.45151,1.45151,0,0,1,1.2-1.54.56676.56676,0,0,1,.49.04c.56995.37,1.17.7,1.74,1.07a.706.706,0,0,0,1-.12c.95-.97,1.92-1.94,2.88995-2.9a.67192.67192,0,0,0,.12-.95c-.35-.55-.67-1.11-1.01-1.67a1.24654,1.24654,0,0,1,.68-1.6c.63-.16,1.26-.31,1.89-.46a.65987.65987,0,0,0,.56995-.73c-.00995-1.4,0-2.8,0-4.2A.64023.64023,0,0,0,49.35,16.85962Zm-5.44,4.28a6.89469,6.89469,0,0,1-9.56,4.77,6.54436,6.54436,0,0,1-2.83-2.49,4.448,4.448,0,0,1-.78-1.57,7.69934,7.69934,0,0,1-.14-3.9,6.84486,6.84486,0,0,1,13.31,3.19Z"/><path class="cls-4" d="M30.74347,21.85084a7.62806,7.62806,0,0,1-.13936-3.90542,6.81022,6.81022,0,1,1,3.74929,7.96125,6.48509,6.48509,0,0,1-2.83721-2.49034A4.54161,4.54161,0,0,1,30.74347,21.85084Zm11.06288,1.0835a5.58886,5.58886,0,0,0-.984-7.62776,5.64892,5.64892,0,0,0-7.57377.388,5.54264,5.54264,0,0,0-.55642,7.2114,4.87926,4.87926,0,0,1,2.39117-2.50264c.34516-.16228.10586-.29494.00768-.42646a2.64181,2.64181,0,0,1,1.07627-3.89139,2.67082,2.67082,0,0,1,2.89445.51318,2.59642,2.59642,0,0,1,.57775,2.917c-.11575.26009-.45893.581-.38935.72465.1125.23222.48484.33394.73954.50271A5.14285,5.14285,0,0,1,41.80635,22.93434Zm-4.55412,2.35675a5.64479,5.64479,0,0,0,3.28731-1.04481.49385.49385,0,0,0,.21674-.68143,3.73228,3.73228,0,0,0-7.02662.01211.46856.46856,0,0,0,.194.64649A5.67212,5.67212,0,0,0,37.25223,25.29109ZM38.661,18.50217a1.4142,1.4142,0,1,0-1.4508,1.39188A1.42011,1.42011,0,0,0,38.661,18.50217Z"/><path class="cls-5" d="M41.80635,22.93434A5.14285,5.14285,0,0,0,39.98968,20.743c-.2547-.16877-.627-.27049-.73954-.50271-.06958-.14362.2736-.46456.38935-.72465a2.59642,2.59642,0,0,0-.57775-2.917,2.67082,2.67082,0,0,0-2.89445-.51318A2.64181,2.64181,0,0,0,35.091,19.97686c.09818.13152.33748.26418-.00768.42646A4.87926,4.87926,0,0,0,32.69217,22.906a5.54264,5.54264,0,0,1,.55642-7.2114,5.64892,5.64892,0,0,1,7.57377-.388A5.58886,5.58886,0,0,1,41.80635,22.93434Z"/><path class="cls-6" d="M37.25284,25.291a5.67219,5.67219,0,0,1-3.32921-1.06759.46856.46856,0,0,1-.194-.64649,3.73228,3.73228,0,0,1,7.02662-.01211.49385.49385,0,0,1-.21674.68143A5.6439,5.6439,0,0,1,37.25284,25.291Z"/><path class="cls-7" d="M38.661,18.50217a1.4142,1.4142,0,1,1-1.40635-1.437A1.42112,1.42112,0,0,1,38.661,18.50217Z"/><path class="cls-8" d="M14.48446,43.23219a.45146.45146,0,0,1-.50475.46045.47808.47808,0,0,1,.03573-.95508C14.32861,42.74129,14.46921,42.932,14.48446,43.23219Z"/></svg>