<svg id="Layer_1" data-name="Layer 1" xmlns="http://www.w3.org/2000/svg" xmlns:xlink="http://www.w3.org/1999/xlink" viewBox="0 0 64 64"><defs><style>.cls-1{fill:url(#linear-gradient);}.cls-2{fill:url(#linear-gradient-2);}.cls-3{fill:url(#linear-gradient-3);}.cls-4{fill:url(#linear-gradient-4);}.cls-5,.cls-6{fill:#9fb7ce;}.cls-5,.cls-6,.cls-7,.cls-8{stroke:#2156a3;}.cls-10,.cls-11,.cls-14,.cls-22,.cls-5,.cls-6,.cls-7,.cls-8{stroke-miterlimit:10;}.cls-5{stroke-width:0.75px;}.cls-12,.cls-7{fill:#fff;}.cls-8{fill:#bcccdd;}.cls-9{fill:url(#linear-gradient-5);}.cls-10{fill:url(#linear-gradient-6);stroke:url(#linear-gradient-7);}.cls-11,.cls-14,.cls-22{fill:none;stroke-linecap:round;}.cls-11{stroke:url(#linear-gradient-8);}.cls-13{fill:url(#linear-gradient-9);}.cls-14{stroke:#4b7fbc;}.cls-15{fill:url(#linear-gradient-10);}.cls-16{fill:url(#linear-gradient-11);}.cls-17{fill:url(#linear-gradient-12);}.cls-18{fill:url(#linear-gradient-13);}.cls-19{fill:url(#linear-gradient-14);}.cls-20{fill:url(#linear-gradient-15);}.cls-21{fill:url(#linear-gradient-16);}.cls-22{stroke:#708699;}</style><linearGradient id="linear-gradient" x1="15.93652" y1="14.84877" x2="22.91342" y2="14.84877" gradientUnits="userSpaceOnUse"><stop offset="0" stop-color="#2156a3"/><stop offset="1" stop-color="#012b73"/></linearGradient><linearGradient id="linear-gradient-2" x1="10.26833" y1="37.28241" x2="28.56678" y2="37.28241" xlink:href="#linear-gradient"/><linearGradient id="linear-gradient-3" x1="29.27855" y1="31.99352" x2="42.66214" y2="31.99352" xlink:href="#linear-gradient"/><linearGradient id="linear-gradient-4" x1="18.23815" y1="25.94178" x2="20.58238" y2="25.94178" xlink:href="#linear-gradient"/><linearGradient id="linear-gradient-5" x1="44.9565" y1="48.63931" x2="54.55159" y2="48.63931" xlink:href="#linear-gradient"/><linearGradient id="linear-gradient-6" x1="45.59071" y1="49.52147" x2="55.1811" y2="49.52147" xlink:href="#linear-gradient"/><linearGradient id="linear-gradient-7" x1="45.09071" y1="49.52147" x2="55.6811" y2="49.52147" xlink:href="#linear-gradient"/><linearGradient id="linear-gradient-8" x1="48.88613" y1="50.98088" x2="55.68581" y2="50.98088" xlink:href="#linear-gradient"/><linearGradient id="linear-gradient-9" x1="43.77761" y1="13.31309" x2="55.36548" y2="13.31309" xlink:href="#linear-gradient"/><linearGradient id="linear-gradient-10" x1="43.94957" y1="38.67966" x2="57" y2="38.67966" xlink:href="#linear-gradient"/><linearGradient id="linear-gradient-11" x1="43.94957" y1="34.80601" x2="57" y2="34.80601" xlink:href="#linear-gradient"/><linearGradient id="linear-gradient-12" x1="44.83709" y1="36.74283" x2="56.11248" y2="36.74283" xlink:href="#linear-gradient"/><linearGradient id="linear-gradient-13" x1="43.94957" y1="30.93236" x2="57" y2="30.93236" xlink:href="#linear-gradient"/><linearGradient id="linear-gradient-14" x1="44.83709" y1="32.86919" x2="56.11248" y2="32.86919" xlink:href="#linear-gradient"/><linearGradient id="linear-gradient-15" x1="43.94957" y1="27.05872" x2="57" y2="27.05872" xlink:href="#linear-gradient"/><linearGradient id="linear-gradient-16" x1="44.83709" y1="28.99554" x2="56.11248" y2="28.99554" xlink:href="#linear-gradient"/></defs><path class="cls-1" d="M19.99653,10.04093a9.00971,9.00971,0,0,1,.885.299,3.16488,3.16488,0,0,1,1.95075,2.577,7.08389,7.08389,0,0,1-1.353,5.49339,2.63122,2.63122,0,0,1-.48187.48424c-1.33789,1.00839-1.91087,1.04925-3.2444-.07657a5.51486,5.51486,0,0,1-1.769-3.87575,7.98863,7.98863,0,0,1,.08222-2.3321,3.14854,3.14854,0,0,1,2.455-2.47271c.09323-.02582.183-.064.27443-.09646Z"/><path class="cls-2" d="M18.07767,20.626c-.05832.96843-.11037,1.89182-.17025,2.81471-.12675,1.95354-.2621,3.90654-.37944,5.86063a1.07607,1.07607,0,0,0,.1302.5643c.4363.77014.89373,1.52842,1.35032,2.2869.27727.4606.5297.45885.80823-.00441.44885-.74654.90261-1.49065,1.32687-2.25109a1.24213,1.24213,0,0,0,.1377-.64657c-.15017-2.52473-.31714-5.04846-.47819-7.57255-.02162-.33881-.035-.67815-.055-1.07215.78711.20289,1.51653.3915,2.24627.57886,1.0089.259,2.02084.50676,3.02644.778a3.225,3.225,0,0,1,2.5305,3.20908c.02391,4.145.01643,8.29032.00238,12.43544a2.26249,2.26249,0,0,1-2.24133,2.04527c-.35112-.02327-.52062-.13061-.51886-.54268q.02519-5.8746.00419-11.74937c-.00065-.29473.15191-.75868-.36673-.752-.477.00613-.34414.44571-.34434.7323q-.00859,12.457-.00484,24.91392c0,.17149.00388.3434-.00613.5144a1.1829,1.1829,0,0,1-1.21523,1.18156c-.88595.01515-1.77236.00592-2.65856.00418a1.26216,1.26216,0,0,1-1.443-1.4464q-.0045-4.45963-.00112-8.91927c0-.7004.00214-1.4008-.00116-2.10117-.00125-.26507.06172-.60574-.34012-.61159-.39489-.00575-.36143.32177-.36133.59669q.00078,2.14405.00022,4.28811,0,3.3876-.00066,6.77521a1.24668,1.24668,0,0,1-1.41895,1.41839q-1.24355.00346-2.4871-.00007a1.24629,1.24629,0,0,1-1.41293-1.425q-.00142-12.607-.00418-25.21409c-.00015-.29015.12083-.72-.36483-.71219-.45911.00737-.3286.42508-.32905.69894Q13.028,33.177,13.0331,39.05169c0,.50358-.08016.585-.58422.60122A2.24612,2.24612,0,0,1,10.282,37.63105c-.01394-4.1594-.02319-8.319.00279-12.47827a3.18663,3.18663,0,0,1,2.57806-3.20222c1.59-.40594,3.178-.81961,4.76726-1.22852C17.76355,20.68771,17.89969,20.66387,18.07767,20.626Z"/><path class="cls-3" d="M32.19364,32.41457c-.79556,0-1.5384-.00189-2.28122.00093-.29935.00113-.62209.0139-.63354-.39754-.01244-.44719.32571-.43751.64537-.4359.72849.00366,1.457.00115,2.26939.00115v-.66732q0-8.48847.00006-16.97694c0-.9106.01637-.92766.90014-.92774q4.38444-.00042,8.76888.00044a1.07163,1.07163,0,0,1,.45206.02438c.14412.07382.34617.2505.33388.36166a.704.704,0,0,1-.33416.42422c-.11225.06924-.29757.02311-.45035.02315q-4.104.00093-8.20808.00045h-.57748V31.5831h.555q4.12952,0,8.25905.00055c.15278,0,.33493-.04258.45075.025.138.08051.30289.25939.30152.39408-.00138.13438-.17043.30855-.31.38725a1.00923,1.00923,0,0,1-.45112.02422q-4.104.00106-8.20807.00052h-.5883V50.15227h.52646q4.07854,0,8.15709,0c.119,0,.23806.00391.35685-.00046.28967-.01065.52539.07812.534.40325.00965.36374-.25086.43955-.55524.43138-.06792-.00183-.13594.0002-.20392.0002q-4.46091,0-8.92182-.00041c-.718-.00024-.78672-.06859-.78682-.78624q-.00114-8.565-.00044-17.12994Z"/><path class="cls-4" d="M18.83945,20.43878h1.16782c.04579.63211.09362,1.24.13322,1.84849q.22387,3.44022.43949,6.881a.77326.77326,0,0,1-.06732.40812c-.34341.60717-.70642,1.20324-1.10142,1.86843-.40129-.67984-.77838-1.31224-1.14556-1.95034a.478.478,0,0,1-.022-.25017q.27511-4.31669.555-8.63306A1.35289,1.35289,0,0,1,18.83945,20.43878Z"/><rect class="cls-5" x="45.58974" y="54.14646" width="9.59512" height="0.30908"/><rect class="cls-6" x="50.30784" y="51.7576" width="0.30909" height="2.5434"/><path class="cls-7" d="M50.92777,54.301a.46539.46539,0,1,1-.46538-.46539A.46539.46539,0,0,1,50.92777,54.301Z"/><path class="cls-8" d="M50.46238,54.921a.61993.61993,0,1,1,.61993-.62A.62064.62064,0,0,1,50.46238,54.921Zm0-.93077a.31085.31085,0,1,0,.31084.31079A.31119.31119,0,0,0,50.46238,53.99021Z"/><path class="cls-9" d="M54.55159,52.42037H45.59852a.642.642,0,0,1-.642-.642l.02462-6.16134a.76181.76181,0,0,1,.76179-.75875h4.20337a.76178.76178,0,0,1,.47039.16258l.9666.75877a.76175.76175,0,0,0,.47038.16257h1.91173a.7618.7618,0,0,1,.76179.75854Z"/><path class="cls-10" d="M54.69006,52.42037h-8.6083a.49105.49105,0,0,1-.49105-.49106V47.12578a.491.491,0,0,1,.49008-.491l6.11614-.01216h2.44718a.491.491,0,0,1,.491.48637l.046,4.81568A.49106.49106,0,0,1,54.69006,52.42037Z"/><path class="cls-11" d="M49.38613,52.42037h5.30863a.491.491,0,0,0,.491-.49106V49.5414"/><path class="cls-12" d="M48.06981,48.3085h1.31632v.26471H48.38545v.81229h.92479v.261h-.92479V50.7526h-.31564Z"/><path class="cls-12" d="M50.30087,48.57675h-.7432V48.3085H51.3671v.26825h-.747V50.7526h-.31919Z"/><path class="cls-12" d="M51.63993,48.33743a3.65938,3.65938,0,0,1,.6056-.04709,1.00424,1.00424,0,0,1,.68562.20314.65724.65724,0,0,1,.21377.51127.71912.71912,0,0,1-.18867.52218,1.01234,1.01234,0,0,1-.74675.26841,1.0828,1.0828,0,0,1-.25392-.02185v.97911h-.31565Zm.31565,1.17858a1.05552,1.05552,0,0,0,.261.02539c.38091,0,.613-.185.613-.52218,0-.32274-.22854-.47863-.57667-.47863a1.3246,1.3246,0,0,0-.29733.02539Z"/><path class="cls-13" d="M55.36548,15.00429A1.99554,1.99554,0,0,1,53.36939,17h-7.5957a1.9959,1.9959,0,1,1,0-3.9918h.03925a3.6734,3.6734,0,0,1,7.32365,0h.2328A1.99589,1.99589,0,0,1,55.36548,15.00429Z"/><line class="cls-14" x1="45.77369" y1="17" x2="53.71697" y2="17"/><path class="cls-14" d="M45.77369,13.0082a4.36351,4.36351,0,0,1,1.52267,1.22924"/><rect class="cls-15" x="43.94957" y="37.31444" width="13.05043" height="2.73044" rx="0.21409"/><rect class="cls-12" x="45.43854" y="38.21578" width="3.46682" height="0.77184"/><circle class="cls-12" cx="51.17034" cy="38.60169" r="0.38592"/><path class="cls-12" d="M52.76773,38.60169a.38591.38591,0,1,1-.38592-.38591A.38592.38592,0,0,1,52.76773,38.60169Z"/><circle class="cls-12" cx="53.5933" cy="38.60169" r="0.38592"/><path class="cls-12" d="M55.19069,38.60169a.38591.38591,0,1,1-.38592-.38591A.38592.38592,0,0,1,55.19069,38.60169Z"/><rect class="cls-16" x="43.94957" y="33.44079" width="13.05043" height="2.73044" rx="0.21409"/><rect class="cls-17" x="44.83709" y="36.17123" width="11.27539" height="1.14321"/><rect class="cls-12" x="45.43854" y="34.34213" width="3.46682" height="0.77184"/><circle class="cls-12" cx="51.17034" cy="34.72805" r="0.38592"/><path class="cls-12" d="M52.76773,34.72805a.38591.38591,0,1,1-.38592-.38592A.38591.38591,0,0,1,52.76773,34.72805Z"/><circle class="cls-12" cx="53.5933" cy="34.72805" r="0.38592"/><path class="cls-12" d="M55.19069,34.72805a.38591.38591,0,1,1-.38592-.38592A.38591.38591,0,0,1,55.19069,34.72805Z"/><rect class="cls-18" x="43.94957" y="29.56714" width="13.05043" height="2.73044" rx="0.21409"/><rect class="cls-19" x="44.83709" y="32.29758" width="11.27539" height="1.14321"/><rect class="cls-12" x="45.43854" y="30.46848" width="3.46682" height="0.77184"/><circle class="cls-12" cx="51.17034" cy="30.8544" r="0.38592"/><path class="cls-12" d="M52.76773,30.8544a.38591.38591,0,1,1-.38592-.38592A.38592.38592,0,0,1,52.76773,30.8544Z"/><circle class="cls-12" cx="53.5933" cy="30.8544" r="0.38592"/><path class="cls-12" d="M55.19069,30.8544a.38591.38591,0,1,1-.38592-.38592A.38592.38592,0,0,1,55.19069,30.8544Z"/><path class="cls-20" d="M44.16367,25.6935H56.78592A.21408.21408,0,0,1,57,25.90758v2.30226a.21409.21409,0,0,1-.21409.21409H44.16367a.21409.21409,0,0,1-.21409-.21409V25.90759A.21409.21409,0,0,1,44.16367,25.6935Z"/><rect class="cls-21" x="44.83709" y="28.42394" width="11.27539" height="1.14321"/><rect class="cls-12" x="45.43854" y="26.59484" width="3.46682" height="0.77184"/><circle class="cls-12" cx="51.17034" cy="26.98075" r="0.38592"/><path class="cls-12" d="M52.76773,26.98075a.38591.38591,0,1,1-.38592-.38591A.38592.38592,0,0,1,52.76773,26.98075Z"/><circle class="cls-12" cx="53.5933" cy="26.98075" r="0.38592"/><path class="cls-12" d="M55.19069,26.98075a.38591.38591,0,1,1-.38592-.38591A.38592.38592,0,0,1,55.19069,26.98075Z"/><line class="cls-22" x1="44.83709" y1="28.42394" x2="56.11248" y2="28.42394"/><line class="cls-22" x1="44.83709" y1="32.29758" x2="56.11248" y2="32.29758"/><line class="cls-22" x1="44.83709" y1="36.17123" x2="56.11248" y2="36.17123"/></svg>