<svg id="Layer_1" data-name="Layer 1" xmlns="http://www.w3.org/2000/svg" xmlns:xlink="http://www.w3.org/1999/xlink" viewBox="0 0 1920 674"><defs><style>.cls-1{fill:url(#linear-gradient);}.cls-18,.cls-2{fill:#ebf3fa;}.cls-2{opacity:0.2;}.cls-3{fill:#dfedfb;}.cls-4{fill:#d6e8fc;}.cls-5{fill:#233862;}.cls-6{fill:#213f7a;}.cls-7{fill:#f99746;}.cls-8{fill:#ffb27d;}.cls-9{fill:#e2915a;}.cls-10{fill:#ed7d2b;}.cls-11{fill:#c8dbf4;}.cls-12{fill:#d4e4f8;}.cls-13{fill:#9fc1f4;}.cls-14{fill:#163560;}.cls-15{fill:#f9ddbf;}.cls-16{fill:#f2ccaa;}.cls-17{fill:#e8945b;}.cls-19{fill:#fff;}.cls-20{fill:#b5453c;}.cls-21{fill:#cde0fb;}.cls-22{fill:#bed7fb;}.cls-23{fill:#dfebfd;}.cls-24{fill:#b0d4ff;}.cls-25{fill:#95c0f4;}.cls-26{fill:#2b478b;}.cls-27{fill:#ed975d;}.cls-28{fill:#ebf3ff;}.cls-29{fill:#1c468a;}.cls-30{fill:#2c3a64;}.cls-31{fill:#91b8ef;}.cls-32{fill:#739af0;}.cls-33{fill:#2e3552;}</style><linearGradient id="linear-gradient" y1="337" x2="1920" y2="337" gradientUnits="userSpaceOnUse"><stop offset="0" stop-color="#2156a3"/><stop offset="1" stop-color="#012b73"/></linearGradient></defs><rect class="cls-1" width="1920" height="674"/><path class="cls-2" d="M1100.069,673.8117s-132.081-164.3364-28.37748-265.06642c154.35508-149.92915,259.40609,63.14533,318.866-25.03538,98.35647-145.86564,420.12771-108.43156,321.679,72.953-51.65086,95.16277,121.15851,80.94292,50.71,217.33707Z"/><path class="cls-3" d="M1542.0923,469.38535l4.76868-11.17071.11213-.26675a2.89643,2.89643,0,0,0-1.24343-3.65208l-8.8413-4.97008a2.93022,2.93022,0,0,1-.40743-.27522,2.84741,2.84741,0,0,1-.93656-2.98664,50.59829,50.59829,0,0,0,1.54694-19.94747,3.14457,3.14457,0,0,1,.02059-.81413,2.94305,2.94305,0,0,1,1.83067-2.2372l7.9225-2.98031a2.94627,2.94627,0,0,0,1.85561-2.42911,3.19857,3.19857,0,0,0-.07639-1.01513l-3.09982-12.00953a2.95906,2.95906,0,0,0-3.36372-2.17074l-11.102,1.88392a2.85928,2.85928,0,0,1-2.82586-1.19224c-.93142-1.30387-1.90628-2.57044-2.96527-3.80241a50.48019,50.48019,0,0,0-6.41031-6.24436l-.00925-.01083a2.91522,2.91522,0,0,1-.942-3.19085l3.57312-10.86349.17387-.54763a2.85158,2.85158,0,0,0-1.58913-3.52513l-11.41742-4.879a2.98357,2.98357,0,0,0-3.75649,1.27622l-5.5347,9.83845a2.88382,2.88382,0,0,1-3.07458,1.42977,50.78229,50.78229,0,0,0-15.64671-.44756,2.90207,2.90207,0,0,1-3.06071-1.86233l-3.553-9.38274a2.95446,2.95446,0,0,0-3.51293-1.815l-12.061,3.10612a2.82684,2.82684,0,0,0-2.07734,3.2076l2.19542,13.05269a2.96239,2.96239,0,0,1-1.1763,2.88813q-1.683,1.21867-3.28552,2.59642a51.39645,51.39645,0,0,0-5.52519,5.52658,2.81034,2.81034,0,0,1-3.063.86981l-13.05077-4.309a2.90763,2.90763,0,0,0-3.57825,1.61589l-4.90218,11.45624a2.92231,2.92231,0,0,0,.89361,3.42172,2.11668,2.11668,0,0,0,.34955.23037l10.91377,6.146a2.8736,2.8736,0,0,1,1.4793,2.8237,1.53561,1.53561,0,0,1-.04323.30261,8.81947,8.81947,0,0,0-.15946.89527,50.53016,50.53016,0,0,0-.86428,10.7723,2.80446,2.80446,0,0,1-1.85819,2.7348l-9.908,3.75818a2.94862,2.94862,0,0,0-1.8039,3.50351l.68523,2.67193,2.41611,9.31729a2.91052,2.91052,0,0,0,3.3043,2.14577l10.93693-1.85561a2.80782,2.80782,0,0,1,2.9133,1.38231,51.11071,51.11071,0,0,0,5.50177,7.74592,50.367,50.367,0,0,0,5.01151,5.05794l-.75316,2.27784-3.0715,9.35164a2.81057,2.81057,0,0,0,.94633,3.13,2.55983,2.55983,0,0,0,.64459.37492l11.48455,4.935a2.92844,2.92844,0,0,0,3.66286-1.25269l3.77041-6.72962a2.89972,2.89972,0,0,1,3.25414-1.37525,50.91275,50.91275,0,0,0,15.95871,1.71493,2.80853,2.80853,0,0,1,2.82844,1.83451l4.48753,11.85958a2.79706,2.79706,0,0,0,3.30685,1.70745l12.1873-3.15769a2.82936,2.82936,0,0,0,2.0992-3.22636l-2.28827-13.57962a2.88112,2.88112,0,0,1,1.34478-2.95706,49.0339,49.0339,0,0,0,6.26109-4.60432q1.619-1.39188,3.09287-2.88631a2.92008,2.92008,0,0,1,2.96037-.72461l12.51423,4.12589A2.94792,2.94792,0,0,0,1542.0923,469.38535Zm-32.53192-52.403c5.63705,8.26654,6.32641,17.61742,3.22559,24.79384-10.91042,25.13324-44.75187,22.88369-52.42025-3.02032-1.88028-6.65722-1.08187-14.0762,3.719-21.30254A27.29422,27.29422,0,0,1,1509.56038,416.98236Z"/><path class="cls-3" d="M1606.79247,399.5201l2.55265-5.97962.06-.14278a1.55045,1.55045,0,0,0-.6656-1.95494l-4.73269-2.66045a1.56888,1.56888,0,0,1-.21809-.14732,1.5242,1.5242,0,0,1-.50134-1.59873,27.08471,27.08471,0,0,0,.82807-10.67775,1.68366,1.68366,0,0,1,.011-.4358,1.57538,1.57538,0,0,1,.97995-1.19755l4.24086-1.59535a1.57709,1.57709,0,0,0,.99329-1.30028,1.71208,1.71208,0,0,0-.04089-.5434l-1.65931-6.42862a1.584,1.584,0,0,0-1.80058-1.162L1600.897,364.704a1.53054,1.53054,0,0,1-1.51266-.6382c-.49859-.69795-1.02043-1.37594-1.5873-2.0354a27.02129,27.02129,0,0,0-3.43139-3.34257l-.005-.00579a1.56051,1.56051,0,0,1-.50423-1.70805l1.91267-5.81515.09307-.29314a1.52642,1.52642,0,0,0-.85065-1.887l-6.11167-2.61171a1.59708,1.59708,0,0,0-2.01082.68315l-2.96269,5.26646a1.54371,1.54371,0,0,1-1.64581.76535,27.18328,27.18328,0,0,0-8.37558-.23958,1.55345,1.55345,0,0,1-1.63837-.99689l-1.90191-5.02252a1.5815,1.5815,0,0,0-1.88045-.97156l-6.45616,1.66269a1.51319,1.51319,0,0,0-1.112,1.717l1.1752,6.987a1.58576,1.58576,0,0,1-.62967,1.546q-.9009.65235-1.75872,1.38984a27.51265,27.51265,0,0,0-2.95759,2.95835,1.50434,1.50434,0,0,1-1.63962.4656l-6.986-2.30659a1.55644,1.55644,0,0,0-1.91542.865l-2.6241,6.13245a1.56431,1.56431,0,0,0,.47834,1.83162,1.13278,1.13278,0,0,0,.18712.12331l5.84207,3.2899a1.53822,1.53822,0,0,1,.79186,1.5115.82326.82326,0,0,1-.02314.162,4.71832,4.71832,0,0,0-.08536.47923,27.04845,27.04845,0,0,0-.46265,5.76634,1.50122,1.50122,0,0,1-.99467,1.46393l-5.3037,2.01173a1.57837,1.57837,0,0,0-.96562,1.8754l.3668,1.43027,1.29333,4.98748a1.558,1.558,0,0,0,1.76877,1.14862l5.85446-.9933a1.503,1.503,0,0,1,1.55948.73994,27.35879,27.35879,0,0,0,2.94506,4.14634,26.9602,26.9602,0,0,0,2.68263,2.70748l-.40316,1.21932-1.64416,5.00587a1.50447,1.50447,0,0,0,.50657,1.67548,1.37011,1.37011,0,0,0,.345.20069l6.14761,2.64166a1.56758,1.56758,0,0,0,1.9607-.67056l2.01827-3.60232a1.55222,1.55222,0,0,1,1.74192-.73617,27.253,27.253,0,0,0,8.54259.918,1.5034,1.5034,0,0,1,1.514.982l2.40215,6.34835a1.49725,1.49725,0,0,0,1.77013.914l6.52378-1.69029a1.51455,1.51455,0,0,0,1.12369-1.72705l-1.22489-7.26908a1.54224,1.54224,0,0,1,.71985-1.5829,26.24771,26.24771,0,0,0,3.35152-2.46466q.86661-.74507,1.65559-1.545a1.5631,1.5631,0,0,1,1.58467-.38788l6.69878,2.20856A1.578,1.578,0,0,0,1606.79247,399.5201Zm-17.41412-28.051a13.89077,13.89077,0,0,1,1.72664,13.272c-5.84028,13.45366-23.95538,12.24949-28.06021-1.61676a13.479,13.479,0,0,1,1.99074-11.40311A14.61041,14.61041,0,0,1,1589.37835,371.46912Z"/><path class="cls-4" d="M1386.77943,622.11761l10.94862-18.774.258-.44886a5.1818,5.1818,0,0,0-1.39609-6.76012l-14.59349-10.78874a5.22134,5.22134,0,0,1-.66184-.57929,5.09484,5.09484,0,0,1-.99957-5.51075,90.53429,90.53429,0,0,0,7.17835-35.07278,5.62931,5.62931,0,0,1,.21762-1.441,5.26539,5.26539,0,0,1,3.74762-3.5654l14.7284-3.53116a5.272,5.272,0,0,0,3.83407-3.90055,5.714,5.714,0,0,0,.09-1.81934l-2.83566-22.01172a5.29429,5.29429,0,0,0-5.48965-4.60147l-20.13037.87817a5.11649,5.11649,0,0,1-4.75235-2.74434c-1.36369-2.52209-2.81327-4.98757-4.41976-7.40985a90.35937,90.35937,0,0,0-9.99407-12.51125l-.014-.02123a5.21645,5.21645,0,0,1-.9633-5.87474l8.75744-18.494.43034-.93385a5.10225,5.10225,0,0,0-2.03835-6.61167l-19.18728-11.19943a5.33864,5.33864,0,0,0-6.95314,1.43133l-12.01274,16.2383a5.16066,5.16066,0,0,1-5.77676,1.85537,90.8582,90.8582,0,0,0-27.68079-4.27083,5.19261,5.19261,0,0,1-5.02049-3.9866l-4.22376-17.4484a5.28678,5.28678,0,0,0-5.83384-4.00307l-22.10443,2.83527a5.05816,5.05816,0,0,0-4.401,5.23334l.99788,23.66271a5.30032,5.30032,0,0,1-2.73043,4.86653q-3.25816,1.78991-6.4099,3.87985a91.93531,91.93531,0,0,0-11.03762,8.585,5.02917,5.02917,0,0,1-5.63178.86362l-22.21416-10.55031a5.20268,5.20268,0,0,0-6.712,2.074l-11.24931,19.25156a5.22881,5.22881,0,0,0,.82633,6.27371,3.797,3.797,0,0,0,.56975.48666l18.01174,13.33682a5.14182,5.14182,0,0,1,1.999,5.342,2.76934,2.76934,0,0,1-.144.52759,15.82914,15.82914,0,0,0-.482,1.55415,90.41334,90.41334,0,0,0-3.928,18.934,5.01843,5.01843,0,0,1-3.90658,4.443l-18.42676,4.47107a5.27613,5.27613,0,0,0-3.98131,5.81972l.62286,4.89624,2.22,17.0797a5.20755,5.20755,0,0,0,5.38974,4.54361l19.83057-.86455a5.02453,5.02453,0,0,1,4.86579,3.10161,91.44431,91.44431,0,0,0,8.04725,14.9751,90.12379,90.12379,0,0,0,7.7737,10.09371l-1.84325,3.87716-7.53088,15.92114a5.02872,5.02872,0,0,0,.98464,5.76749,4.583,4.583,0,0,0,1.06117.809l19.294,11.31374a5.24026,5.24026,0,0,0,6.78185-1.4101l8.18964-11.11082a5.18886,5.18886,0,0,1,6.08349-1.719,91.09758,91.09758,0,0,0,27.9533,6.5906,5.02554,5.02554,0,0,1,4.61409,3.88562l5.33264,22.05338a5.00493,5.00493,0,0,0,5.49187,3.7668l22.34006-2.89919a5.062,5.062,0,0,0,4.44381-5.262l-1.0455-24.61866a5.15509,5.15509,0,0,1,3.04477-4.95132,87.75042,87.75042,0,0,0,12.13917-6.784q3.18393-2.11131,6.13274-4.43711a5.2247,5.2247,0,0,1,5.41714-.62892l21.302,10.1058A5.27488,5.27488,0,0,0,1386.77943,622.11761Zm-46.1172-100.26881a55.96754,55.96754,0,0,1,5.57789,18.18705,32.13,32.13,0,0,1,.25916,4.7666c-.15356,7.35611-2.36594,16.26224-5.6188,21.784-24.95539,42.19995-84.54058,30.68687-92.40034-17.00918-.11948-.78506-.23869-1.57012-.3367-2.36955-.95932-7.45155,1.40225-18.926,5.14977-25.42406a60.5734,60.5734,0,0,1,6.5228-9.20245C1283.50006,485.3622,1325.01863,491.41505,1340.66223,521.8488Z"/><path class="cls-5" d="M1130.05852,672.398a28.18773,28.18773,0,0,0-1.9297-7.22876c-1.34772-2.69545-9.92421-.98029-9.92421-.98029s-1.71519,1.47029-2.08276,8.3315Z"/><path class="cls-5" d="M1159.27879,672.33651c-2.01522-1.23-.86852-10.40626-.86852-10.40626s9.39036-7.51223,10.68164-1.7607c1.29112,5.75181,8.92077,8.33408,13.26389,9.03835,2.99806.48616,3.92625,2.1468,4.21369,3.12861Z"/><path class="cls-6" d="M1139.82828,605.59584a43.30421,43.30421,0,0,1,.68923,5.07246c.873,17.02723,14.33305,55.95939,16.74066,56.8674,3.72525,1.40572,9.59151-1.58247,12.66057-2.56017a2.63211,2.63211,0,0,0,1.847-2.99023c-6.66569-30.64361-9.11549-74.76939-10.00678-100.89387a118.53977,118.53977,0,0,0-2.709-22.24835s-32.82874-8.75924-33.02357,2.321C1125.85367,550.9689,1136.90067,589.42133,1139.82828,605.59584Z"/><path class="cls-5" d="M1139.82828,605.59584l21.93067-44.50441a118.53977,118.53977,0,0,0-2.709-22.24835s-32.82874-8.75924-33.02357,2.321C1125.85367,550.9689,1136.90067,589.42133,1139.82828,605.59584Z"/><path class="cls-6" d="M1147.13253,541.20286,1129.77787,666.9842s-7.62127,1.83785-13.54888.36757c0,0-5.08083-66.89629-4.65744-83.069s-3.64653-43.2754.92884-46.26433S1147.13253,541.20286,1147.13253,541.20286Z"/><path class="cls-7" d="M1109.118,539.107a2.409,2.409,0,0,0,1.73793,2.48813c2.42075.70222,5.21187,1.19146,10.59506,2.30679a102.76071,102.76071,0,0,0,20.21629,2.031c13.29359.08489,18.32657-4.4973,18.32657-4.4973.57273.0108-.30236-2.77184-1.09076-16.00011-.267-4.48111-.525-10.16112-.7107-17.34-.16784-6.45943-.281-14.13344-.29158-23.23738-.01428-10.95134-16.96533-22.73361-17.27825-22.73361l-.0036.00527c0,1.57691-2.48542,4.48663-6.31267,4.73768-4.54321.297-10.117-1.964-10.117-4.58038,0-.0265-8.213,13.13811-11.12981,27.16559-.37131,1.77817-.65773,3.65385-.88575,5.62856C1111.48128,501.03138,1112.14941,496.78615,1109.118,539.107Z"/><path class="cls-7" d="M1140.62232,462.12546s15.76271-.13376,19.55624,5.18653c3.79343,5.32032,12.11115,33.94088,7.77062,43.4646-4.34039,9.52346-12.46212-3.93964-16.96973-9.773S1140.62232,462.12546,1140.62232,462.12546Z"/><path class="cls-8" d="M1140.78334,459.7194l-.00886,1.62951s.44383,5.096-5.83114,5.84c-6.27513.74634-10.9467-.93656-10.77668-4.869a57.02714,57.02714,0,0,0,1.14555-8.7055,17.73855,17.73855,0,0,0-.223-3.05143l12.15925-.24283,3.5812.58506Z"/><path class="cls-9" d="M1140.82964,450.90522l-.0463,8.81418a10.28257,10.28257,0,0,1-4.38283.96714c-5.58833,0-9.20053-4.098-11.0883-7.07212a17.73855,17.73855,0,0,0-.223-3.05143l12.15925-.24283Z"/><path class="cls-8" d="M1124.15752,448.60639c1.41063,7.59262,11.20765,7.34337,15.44145,6.866,1.19158-.13246,1.94113-.2846,1.94113-.2846,1.34349-.35883,2.093-2.47488,2.4412-5.24675.69128-5.4853-.182-13.53758-1.10841-15.597-1.39479-3.0989-4.02168-6.45055-13.88753-4.03225C1119.11762,432.73182,1122.34732,438.87831,1124.15752,448.60639Z"/><path class="cls-10" d="M1156.74114,483.45513s6.09634,13.46351,5.919,17.4991a21.03214,21.03214,0,0,0-5.919.76085C1151.97518,503.136,1156.74114,483.45513,1156.74114,483.45513Z"/><path class="cls-5" d="M1145.90057,427.11687a32.63934,32.63934,0,0,1-9.46469-2.561c-4.15739-1.80752-9.40232.18314-11.10489,1.08006a2.53352,2.53352,0,0,1,.41516-1.02438,2.28542,2.28542,0,0,0-.877,1.29976c-.0787.058-.11394.09812-.09363.1115a2.92857,2.92857,0,0,0-1.42335.09195s.3897-.05568.529.19486a.23281.23281,0,0,0,.06237.06893c-6.48513,3.13351-7.08394,13.38247-4.99707,15.75394a80.38782,80.38782,0,0,1,6.23,9.20169,9.83548,9.83548,0,0,0-.06714-3.95186c-.45658-2.51076,1.71182-2.51076,4.45089-3.65209s.45657-4.33678,2.85312-6.277c2.39668-1.94011,11.18449-.79881,11.07029-2.28248C1146.74555,433.98243,1145.90057,427.451,1145.90057,427.11687Z"/><path class="cls-10" d="M1122.17048,508.67531c2.57392,10.33451,30.40569,15.675,36.73263,16.76023-.267-4.48111-.525-10.16112-.7107-17.34Z"/><path class="cls-8" d="M1128.27993,512.03416c-.26519,0-6.18712-.88383-7.2478-1.41421s-5.91191-7.42478-2.73494-9.19244c3.17684-1.7679,11.70539,5.30319,11.70539,5.30319Z"/><path class="cls-7" d="M1164.29918,514.08268s-22.904,1.24266-38.27485-2.04852a6.60665,6.60665,0,0,1,4.443-6.41286s23.95606-5.0776,29.71119-3.66339C1165.93356,503.37214,1164.29918,514.08268,1164.29918,514.08268Z"/><path class="cls-7" d="M1111.7,496.10811c4.75351,5.73122,10.96727,10.41063,17.81743,11.50668l.00165-.00181a12.77261,12.77261,0,0,0,1.69536-7.64933,15.30966,15.30966,0,0,0-2.49429-7.02144,15.55809,15.55809,0,0,1-1.3471-2.71526c-3.74067-9.54429-3.18379-27.93982-3.18379-27.93982s-15.88514,1.66359-20.83488,8.73468C1100.32263,475.35283,1104.1887,487.04663,1111.7,496.10811Z"/><path class="cls-9" d="M1139.599,455.47235c1.19158-.13246,1.94113-.2846,1.94113-.2846,1.34349-.35883,2.093-2.47488,2.4412-5.24675a6.636,6.636,0,0,0-4.15418,3.39588A4.88021,4.88021,0,0,0,1139.599,455.47235Z"/><path class="cls-8" d="M1145.999,459.767s5.48633-9.053,1.2199-9.44681a6.452,6.452,0,0,0-6.59653,3.55418c-.61606,1.06068.161,5.84506.161,5.84506Z"/><path class="cls-7" d="M1125.08919,499.65961a11.811,11.811,0,0,0,.93514,3.14328,15.05232,15.05232,0,0,0,3.49313,4.8119l.00165-.00181c14.24828-6.43112,17.13151-28.516,17.61421-40.65.19444-4.87733,0-8.14771,0-8.14771-6.42766-2.12838-8.23428,1.56985-8.23428,1.56985s-7.58914,18.04711-11.526,29.84187C1125.86692,494.74,1124.89641,498.33928,1125.08919,499.65961Z"/><path class="cls-10" d="M1111.7,496.10811c4.75351,5.73122,10.96727,10.41063,17.81743,11.50668l.00165-.00181c14.24828-6.43112,17.13151-28.516,17.61421-40.65,0,0-6.74237,24.45367-15.91885,33.00071a10.01087,10.01087,0,0,1-5.19014,2.83924s-11.57187-3.27061-13.999-6.34983A1.32362,1.32362,0,0,0,1111.7,496.10811Z"/><path class="cls-11" d="M1705.58166,628.54564s-6.96871-8.12982-.42958-13.29386c0,0,4.77616-2.89171,8.67052-2.65686,0,0-5.51849,9.25363-3.73308,10.17426,1.78539.92033,5.40581-10.75455,5.40581-10.75455s10.869-1.05412,14.36547.62686c0,0-9.29172,7.60378-7.33475,8.05651s11.99333-7.01064,11.99333-7.01064,10.11586,1.72159,9.57645,7.89265-4.025,8.07659-5.557,7.91247-10.49374-3.58492-10.689-2.32968,5.19929,5.35748,8.97688,5.54937c0,0-7.13207,7.86539-11.87193,5.59564-4.74013-2.27-5.14474-5.86831-8.09948-7.218s-5.47682-1.34607-4.257.03011c1.21974,1.37665,6.56744,2.7142,8.25714,5.70316s3.20579,5.00455-1.69844,4.26683c-4.904-.738-12.87537-4.32651-13.22545-8.43541Z"/><path class="cls-11" d="M1739.12523,621.74643s-27.47592-1.05873-33.54357,6.79921a19.87293,19.87293,0,0,1-5.47117,7.67867l-.64382,1.754s4.76123-5.02,6.46481-5.32376C1705.93148,632.65454,1703.26716,622.91963,1739.12523,621.74643Z"/><path class="cls-11" d="M1700.11049,636.22431a17.25258,17.25258,0,0,0-6.30713,12.15435l1.07032.09569s1.88366-8.0578,5.288-11.2088C1703.56606,634.11429,1700.11049,636.22431,1700.11049,636.22431Z"/><path class="cls-11" d="M1681.21738,618.3215s11.08509-6.20784,5.912-14.63245c0,0-4.13848-5.173-8.57277-6.50342,0,0,2.36494,12.56336,0,12.85892-2.36466.29555-1.62564-14.189-1.62564-14.189s-11.67644-5.61648-16.25811-5.173c0,0,7.24214,12.26753,4.87746,11.972-2.36491-.2958-10.49423-12.711-10.49423-12.711s-11.97171-2.21725-13.89319,4.87749c-1.92146,7.09451,1.18221,10.64163,2.956,11.08509,1.77356.44346,13.15444.29553,12.85865,1.77356-.29556,1.478-7.98116,3.84292-12.26756,2.51255,0,0,4.72986,11.67644,10.93745,11.08535,6.20757-.59138,8.12906-4.434,11.972-4.72986,3.84292-.29553,6.65106.739,4.7296,1.77383-1.92149,1.03454-8.42462.339-11.52854,2.97763-3.10367,2.63887-5.61648,4.26451.14766,5.447,5.76437,1.18244,16.11044.44346,18.17983-3.99058Z"/><path class="cls-11" d="M1646.63155,597.038s31.03845,10.05051,34.58583,21.2835a23.57809,23.57809,0,0,0,2.956,10.78952v2.217s-3.25182-7.538-5.02538-8.57251C1679.148,622.75553,1686.09461,613.00055,1646.63155,597.038Z"/><path class="cls-11" d="M1684.17341,629.111a20.472,20.472,0,0,1,2.0578,16.11664l-1.2316-.33053s1.19533-9.74571-1.309-14.64712C1681.18625,625.34834,1684.17341,629.111,1684.17341,629.111Z"/><path class="cls-12" d="M1698.85293,609.76005s-14.6124-8.18281-7.79338-19.28821c0,0,5.45546-6.819,11.30012-8.57251,0,0-3.117,16.5606,0,16.95029,3.11755.3897,2.14319-18.70378,2.14319-18.70378s15.39177-7.40345,21.43139-6.819c0,0-9.5466,16.1709-6.42956,15.78123,3.11755-.38946,13.833-16.75535,13.833-16.75535s15.78147-2.92232,18.31435,6.42932c2.53262,9.35191-1.55879,14.028-3.89668,14.6124s-17.34.3897-16.95032,2.33792c.3897,1.94846,10.521,5.0655,16.17093,3.31228,0,0-6.2346,15.3915-14.41744,14.61211-8.18305-.77913-10.71569-5.8449-15.7812-6.2346s-8.76747.97413-6.23459,2.33792c2.53262,1.36379,11.10539.44706,15.1968,3.92523,4.09141,3.47845,7.40342,5.62164-.195,7.18016-7.59839,1.55879-21.23643.58443-23.96428-5.26023Z"/><path class="cls-12" d="M1744.44309,581.7046s-40.91433,13.24835-45.59016,28.05545a31.08307,31.08307,0,0,1-3.89668,14.2227v2.92258s4.28638-9.93633,6.624-11.30012C1701.58028,615.60521,1692.42361,602.74633,1744.44309,581.7046Z"/><path class="cls-12" d="M1694.95625,623.98275s-6.30971,9.58159-2.7127,21.24491l1.62334-.436s-1.57575-12.84653,1.72547-19.30749C1698.89357,619.023,1694.95625,623.98275,1694.95625,623.98275Z"/><path class="cls-12" d="M1698.36035,670.52052a28.62323,28.62323,0,0,0,28.62339-28.62315h-57.24628A28.623,28.623,0,0,0,1698.36035,670.52052Z"/><path class="cls-12" d="M1727.37883,671.97692H1669.3421a3.53112,3.53112,0,0,1,3.53119-3.53118h50.97438a3.53109,3.53109,0,0,1,3.53116,3.53118Z"/><rect class="cls-13" x="1668.79603" y="641.89713" width="58.83848" height="0.87817"/><path class="cls-14" d="M1598.812,451.02417a9.59889,9.59889,0,0,0-7.58914-.812c-12.89155-1.51388-16.65242,13.52035-16.47752,18.69364.1726,5.17239.765,10.72894-4.9922,17.44945-16.62979,19.41246,18.19861,20.26876,18.19861,20.26876.29453-15.51011,18.887-9.85067,18.07178-8.27929C1629.85718,504.06459,1608.39362,455.995,1598.812,451.02417Z"/><path class="cls-8" d="M1549.08363,515.68443s-2.2669-3.45143-4.094-3.5191-5.21061-1.015-4.94-.33823c.27059.67648,2.36853.74439,2.57148,1.15031s-3.11294,1.015-4.0603,1.08291c-.94734.06737-3.18058,0-3.11291.47353.06764.47383,4.025,2.43619,6.8172,2.16558a18.93215,18.93215,0,0,1,6.24334.812Z"/><path class="cls-15" d="M1581.87046,516.80078a33.9981,33.9981,0,0,1-3.46739,5.244c-2.6939,3.374-6.84754,7.272-12.063,8.04134a12.94615,12.94615,0,0,1-7.16652-1.16343l-.00824-.00181c-6.33387-2.81172-11.09665-9.27781-11.09665-9.27781a5.20732,5.20732,0,0,1,.71046-5.11s12.79,2.8768,14.00817,2.26769c1.21795-.6091,8.32352-21.079,10.01477-23.651,1.693-2.57223,7.45873-3.908,7.45873-3.908Z"/><path class="cls-16" d="M1578.40307,522.04482c-2.6939,3.374-6.84754,7.272-12.063,8.04134a12.94615,12.94615,0,0,1-7.16652-1.16343c.2477.03267,6.57362.81411,9.0952-3.69683,2.572-4.60227,5.35334-11.91076,9.17414-9.4746C1579.09115,516.80284,1579.0181,519.41572,1578.40307,522.04482Z"/><path class="cls-5" d="M1629.58735,654.86122s3.90287,3.56153,3.14123,6.09209c-.7614,2.53083-4.28332,4.218-4.75944,7.31084-.47585,3.09287-2.37958,4.78-4.09293,4.78h-8.16867s-1.26117-2.17635,1.78486-2.83255,4.19455-4.29048,4.00422-7.66476a59.47963,59.47963,0,0,1,.28553-7.87312l6.47278-1.49962Z"/><path class="cls-5" d="M1596.55514,656.3732s1.40417,15.08825-.3092,15.93168l-21.92732-.045s0-2.53056,3.52191-3.09286,9.70918-2.62421,10.75608-7.21694C1589.64377,657.35733,1596.55514,656.3732,1596.55514,656.3732Z"/><path class="cls-8" d="M1612.181,548.1276c-4.51224-10.11947-7.27328-13.024-6.74622-16.16473.39225-2.33765-1.19456-43.58511-1.19456-43.58511-.53527-.16591-1.60841-.31433-2.19539-.44474a5.50589,5.50589,0,0,1-4.02042-3.49658,28.06634,28.06634,0,0,1-1.36432-9.30649l-.578.11381-9.71871,1.92457s.22123,3.05865.22766,5.9398l.00026.07177a5.58988,5.58988,0,0,1-4.03406,5.40492c-1.22746.35446-2.29572.6572-2.29572.6572a89.124,89.124,0,0,0-4.25037,20.65564c-.68165,10.46671,6.48951,15.0139-.054,35.93035C1569.2765,567.19021,1614.67376,553.71914,1612.181,548.1276Z"/><path class="cls-17" d="M1586.36339,477.16833s.22123,3.05865.22766,5.9398c5.43847-.15317,8.31322-5.11437,9.49105-7.86424Z"/><path class="cls-8" d="M1584.54714,479.89657s12.86739.21233,12.8764-7.80289c.00874-8.0151,1.67555-13.38583-6.53969-13.86016-8.21521-.47443-9.81464,2.5823-10.46824,5.25678C1579.762,466.16492,1581.20041,479.63484,1584.54714,479.89657Z"/><path class="cls-14" d="M1585.02352,458.03713s3.52294,9.40335,8.92978,10.79366c5.4066,1.39043,7.752-.05826,7.752-.05826a15.31112,15.31112,0,0,1-5.00789-9.04554S1587.68091,453.56156,1585.02352,458.03713Z"/><path class="cls-14" d="M1585.89655,458.80059a7.98261,7.98261,0,0,0-3.68783,2.88194,12.9571,12.9571,0,0,0-1.73935,7.35827s-2.654-6.39137.32872-10.007C1583.96118,455.2,1585.89655,458.80059,1585.89655,458.80059Z"/><path class="cls-18" d="M1587.34676,474.92429a3.23325,3.23325,0,0,1-2.664,1.08409,2.36516,2.36516,0,0,1-1.9827-1.309A8.64323,8.64323,0,0,1,1587.34676,474.92429Z"/><path class="cls-15" d="M1613.42286,506.624a87.3461,87.3461,0,0,1,0,10.13462c-.21736,3.66441-3.92421,8.573-4.45,9.78688-1.31957,3.04527-2.80761,3.54069-2.80761,3.54069l-11.51308,2.822-4.04795.99059-12.76551-3.81258s-5.81455-16.229-3.47974-25.36463a70.20864,70.20864,0,0,1,5.90176-15.47974s10.41653,10.19944,23.98-.865Z"/><path class="cls-16" d="M1610.053,518.25434c-.21709,3.66442-.55432,7.07728-1.08008,8.29113-1.31957,3.04527-2.80761,3.54069-2.80761,3.54069l-11.51308,2.822-5.00018-1.47s16.692-2.52957,14.84234-16.89063Z"/><path class="cls-10" d="M1578.65053,532.54959s-6.3218,19.67714-6.7277,26.37679c-.40589,6.69941,12.08439,95.17191,12.587,98.25887.47356,2.91,4.08677,4.76481,4.08677,4.76481a5.46764,5.46764,0,0,0,4.0338.31047c3.29065-.92908,4.33089-2.0416,4.33089-2.0416s4.92042-63.09809,1.87542-85.63789a357.00973,357.00973,0,0,1-3.081-42.03145Z"/><path class="cls-7" d="M1605.43477,531.96287s9.64307,12.93861,10.54233,21.685c.89874,8.74664,1.4101,39.46925,3.3254,47.996,1.91529,8.52647,8.95243,24.93532,8.95243,51.53023a5.30577,5.30577,0,0,1-2.99,2.33639,24.6794,24.6794,0,0,1-2.62961.72689,4.13362,4.13362,0,0,1-4.62333-2.19462c-4.75762-9.57877-19.912-40.47293-20.68907-46.8858-.54968-4.53847-5.33482-34.5748-15.77221-52.19978-2.50563-4.23135,1.538-21.05842,1.538-21.05842Z"/><path class="cls-19" d="M1587.061,475.13869s-.22252.94452-2.57226.79881c0,0-1.9729-.12193-1.91245-1.15995A6.347,6.347,0,0,1,1587.061,475.13869Z"/><path class="cls-5" d="M1577.64067,529.51177s2.538,2.00764,7.57963,2.10924c6.02214.12116,20.94422-1.53538,20.94422-1.53538a12.34043,12.34043,0,0,1,.6361,3.80847s-18.22508,4.5971-28.78466.67135A6.67482,6.67482,0,0,1,1577.64067,529.51177Z"/><path class="cls-19" d="M1583.77546,536.81049a3.134,3.134,0,1,1,2.74792-3.11009A2.94917,2.94917,0,0,1,1583.77546,536.81049Zm0-5.30936a2.235,2.235,0,1,0,1.83709,2.19927A2.04508,2.04508,0,0,0,1583.77546,531.50113Z"/><rect class="cls-20" x="1592.94108" y="511.47615" width="24.75858" height="33.89074" transform="translate(47.63681 1184.09272) rotate(-41.04748)"/><path class="cls-8" d="M1601.95324,533.13091s-6.84139.8-6.82005,2.42407,1.70489,4.96033,2.54961,5.10849c.84524.14842,5.56788-4.51171,5.56788-4.51171Z"/><path class="cls-15" d="M1604.24074,488.37674s9.13376.64047,12.6351,9.15177,10.14441,22.80191,10.14441,25.20591-3.71071,9.81517-23.63966,14.07607c0,0-2.0614-2.16839-1.93666-3.883,0,0,12.4404-10.68536,12.407-11.93444-.06327-2.3621-2.03925-5.48067-12.96151-16.40627C1597.92,501.61631,1604.24074,488.37674,1604.24074,488.37674Z"/><path class="cls-21" d="M1677.1486,437.41742l5.44751,19.03806a2.45192,2.45192,0,0,1-1.68148,3.02971l-33.06334,9.46084a2.45062,2.45062,0,0,1-3.027-1.68237l-5.44517-19.03011a2.448,2.448,0,0,1,1.6789-3.02894l33.06308-9.46084A2.45054,2.45054,0,0,1,1677.1486,437.41742Z"/><path class="cls-22" d="M1682.68459,457.29493a2.44906,2.44906,0,0,1-1.77,2.19026l-33.06334,9.46084a2.4487,2.4487,0,0,1-2.6669-.9349l16.83969-15.34175Z"/><path class="cls-23" d="M1677.1486,437.41742l-14.802,18.381-22.689-6.59083-.27857-.974a2.448,2.448,0,0,1,1.6789-3.02894l33.06308-9.46084A2.45054,2.45054,0,0,1,1677.1486,437.41742Z"/><path class="cls-24" d="M1414.96363,672.52044h-.09417a.98969.98969,0,0,1-.98927-1.01218l1.50013-65.01574,4.4186-.51547-3.76782,65.53558A1.06939,1.06939,0,0,1,1414.96363,672.52044Z"/><path class="cls-25" d="M1389.2147,672.52044h-.09427a.98954.98954,0,0,1-.98917-1.01218l1.50013-65.01574,4.4186-.51547-3.76806,65.53558A1.069,1.069,0,0,1,1389.2147,672.52044Z"/><path class="cls-24" d="M1460.26748,672.52044h.09414a.98957.98957,0,0,0,.98929-1.01218l-1.50013-65.01574-4.4186-.51547L1459.2,671.51263A1.06935,1.06935,0,0,0,1460.26748,672.52044Z"/><path class="cls-24" d="M1386.287,602.46028V557.90856a14.19429,14.19429,0,0,1,14.19426-14.19442h32.09836a14.19426,14.19426,0,0,1,14.19415,14.19442v46.25429Z"/><path class="cls-25" d="M1386.287,602.46028h66.23779a0,0,0,0,1,0,0v7.03356a0,0,0,0,1,0,0h-61.97586a4.26193,4.26193,0,0,1-4.26193-4.26193v-2.77163A0,0,0,0,1,1386.287,602.46028Z"/><path class="cls-24" d="M1413.06427,602.46028h46.88732a3.15153,3.15153,0,0,1,3.15153,3.15153v.73051a3.15153,3.15153,0,0,1-3.15153,3.15153H1413.0645a3.1515,3.1515,0,0,1-3.1515-3.1515v-.7308A3.15126,3.15126,0,0,1,1413.06427,602.46028Z"/><path class="cls-5" d="M1458.13122,591.35925c-4.59813,8.00329-10.38182,11.09254-10.38182,11.09254h-24.06126S1461.63925,585.25378,1458.13122,591.35925Z"/><path class="cls-8" d="M1439.65148,653.28186a2.2243,2.2243,0,0,0-.39665,2.37909l.00617.01182c.57389,1.58579,2.46987,3.35677,4.67222,5.12519.28115.22739.53169.43369.74955.625.05737.05042.11474.1006.1685.151.04422.03882.08718.07973.12964.117,2.05366,1.89317,1.28072,2.32685,4.97034,6.16824,4.20691,4.37717,7.10349,4.45613,7.9274,4.05719.697-.33978-.71921-2.66123-2.28853-5.27077-.07615-.12553-.15075-.25312-.22869-.38045-.20911-.34673-.41669-.69887-.62427-1.04766-1.83915-3.14046-1.36664-4.61383-.93064-9.28735.35419-3.7979,5.90819-21.21738,5.90819-21.21738l-8.06194-1.38876s-2.42792,13.87106-5.10306,16.00732c-1.43041,1.13846-3.03163,1.15287-4.40625,1.99682q-.14583.088-.286.18085A10.57028,10.57028,0,0,0,1439.65148,653.28186Z"/><path class="cls-5" d="M1439.65148,653.28186a2.2243,2.2243,0,0,0-.39665,2.37909l.00617.01182c.70274,1.58423,2.5509,3.34623,4.67967,5.109.27807.231.52372.4432.7421.64124.05737.05042.11474.1006.1685.151.04422.03882.08718.07973.12964.117,2.05366,1.89317,1.28072,2.32685,4.97034,6.16824,4.20691,4.37717,7.10349,4.45613,7.9274,4.05719.697-.33978-.71921-2.66123-2.28853-5.27077A17.92646,17.92646,0,0,1,1448.091,661.12c-2.53314-3.23252-4.2226-7.38593-5.94754-9.79175q-.14583.088-.286.18085A10.57028,10.57028,0,0,0,1439.65148,653.28186Z"/><path class="cls-8" d="M1504.65947,648.24644c.49775,2.48865,4.04513,2.07349,8.00819,1.10505,3.96329-.96846,3.02135.18288,8.66148-.44166,5.64042-.62428,7.34916-2.72735,7.52124-3.56617.15409-.74415-2.633-1.00652-5.62241-1.35094-.37578-.04217-.75339-.08874-1.13126-.13528-3.37505-.42341-5.84672-2.60131-8.91256-4.39-2.9038-1.6941-7.2375-8.597-7.2375-8.597l-7.73525.61272s4.05924,6.1654,5.62933,8.84591a9.34725,9.34725,0,0,1,.75932,5.2713A9.92683,9.92683,0,0,0,1504.65947,648.24644Z"/><path class="cls-5" d="M1512.66766,649.35149c3.96329-.96846,3.02135.18288,8.66148-.44166,5.64042-.62428,7.34916-2.72735,7.52124-3.56617.15409-.74415-2.633-1.00652-5.62241-1.35094l-.028.05737a15.899,15.899,0,0,1-8.07761,2.511c-3.82672.09285-7.87981-1.00344-10.52229-.96074a9.92683,9.92683,0,0,0,.05942,2.64607C1505.15722,650.73509,1508.7046,650.31993,1512.66766,649.35149Z"/><path class="cls-5" d="M1475.01569,598.78506l-7.23108,19.458L1458.344,643.6496a15.29372,15.29372,0,0,1-5.01535-.45813,21.75633,21.75633,0,0,1-4.85049-2.361s2.62138-27.2794,7.51147-42.939c1.25319-4.01963,2.65789-7.271,4.20767-9.10083C1467.77792,579.8315,1475.01569,598.78506,1475.01569,598.78506Z"/><path class="cls-26" d="M1467.66371,567.88318c-4.73731-1.52818-18.249.43395-31.822,3.09082l-2.84183-4.6874-29.31685-2.28956s-9.67407,21.45352-4.37783,35.1232a4.95694,4.95694,0,0,0,4.96186,3.34h.42815s17.4488-.01,23.11466-.01c14.57974,0,30.8556-10.02225,32.96123-10.44332,3.44629-.68937,4.82476,6.20322,8.271,13.44049s32.39482,32.05037,32.39482,32.05037,4.44921.044,6.28733-.64511a6.19216,6.19216,0,0,0,2.69956-1.7041S1478.347,571.32948,1467.66371,567.88318Z"/><path class="cls-5" d="M1431.84651,480.921c-3.75547-1.97213-9.46969-2.23874-10.39827-2.36349-11.10927-1.49307-17.79554,14.6497-18.18871,19.54107-.72474,9.016-5.49418,10.39056-12.20761,16.03688-13.4608,11.32149-9.51331,24.47719-2.153,29.36548,4.41628,2.93288,12.20039-.0005,12.20039-.0005.1101.07692,21.28879-11.83927,31.72821-17.58745C1448.47812,523.68821,1441.4168,485.94647,1431.84651,480.921Z"/><path class="cls-8" d="M1424.07758,521.02028c.04577.02958-5.13652,1.799-8.60183.26416-3.26007-1.4407-5.72966-6.80408-5.6813-6.8069,1.48314-.06843,3.11112-1.36511,4.36481-9.87254l.63176.22663,10.61745,3.82056s-.76936,3.40691-1.26684,6.65052C1423.72262,518.02619,1423.49755,520.635,1424.07758,521.02028Z"/><path class="cls-27" d="M1425.40847,508.65219s-.76936,3.40691-1.26684,6.65052c-6.09852-1.09784-8.492-7.174-9.35061-10.47108Z"/><path class="cls-8" d="M1426.98988,512.03363s-14.527-1.94975-13.17348-10.9778c1.35352-9.0278.39-15.35964,9.72229-14.49651,9.33236.86323,10.61384,4.57769,10.895,7.7009S1430.80348,512.30809,1426.98988,512.03363Z"/><path class="cls-5" d="M1433.90407,489.31175s-9.29917,8.01381-15.62485,8.65995c-6.32539.64591-8.72014-1.38436-8.72014-1.38436a24.70188,24.70188,0,0,0,5.97222-8.09152,4.4474,4.4474,0,0,1,3.66673-2.62189C1423.71464,485.48413,1432.27685,485.30626,1433.90407,489.31175Z"/><path class="cls-5" d="M1428.091,488.59383s3.11089,3.008,4.09065,5.23913c.94554,2.153,1.229,7.30236.47611,9.34754,0,0,4.84715-9.42495,2.10307-14.00432C1431.85089,484.3207,1428.091,488.59383,1428.091,488.59383Z"/><path class="cls-19" d="M1436.30986,542.41978c-.43905,29.40589-.12063,23.26129-3.337,26.05141-.77529.67188-2.95422,1.07237-5.822,1.2617-9.01673.59855-24.86729-.88691-25.4702-2.55348-2.07979-5.76567-.61143-7.557-2.3468-16.38441-.18082-.93885-.40473-1.95491-.6675-3.06173-1.44676-6.06278-2.85481-8.12545,2.278-17.86575,4.65487-8.82306,9.49056-15.98392,9.92553-15.72568,12.28065,7.29026,13.27121,1.16266,13.27121,1.16266S1436.52516,528.0762,1436.30986,542.41978Z"/><path class="cls-26" d="M1467.78461,618.24306,1458.344,643.6496a15.29372,15.29372,0,0,1-5.01535-.45813,21.75633,21.75633,0,0,1-4.85049-2.361s2.62138-27.2794,7.51147-42.939Z"/><path class="cls-19" d="M1424.14163,515.30271s12.63666,2.14242,14.12033,7.58322c1.48392,5.44055,10.21616,37.4256,10.21616,37.4256s-6.42392,1.15416-9.39176-1.81368c-2.96759-2.96759-10.32626-27.53328-10.32626-27.53328Z"/><path class="cls-28" d="M1427.1509,569.73289c-9.01673.59855-24.86729-.88691-25.4702-2.55348-2.07979-5.76567-.61143-7.557-2.3468-16.38441l4.34915-12.24643s-.71908,13.63725,3.30276,17.22425c4.01758,3.58671,16.4662,6.924,18.42111,9.92113A10.96615,10.96615,0,0,1,1427.1509,569.73289Z"/><path class="cls-8" d="M1416.81973,563.997s8.89586-1.98062,10.33117-1.19121c1.4353.78969,4.94334,3.66441,5.38266,4.665.43935,1.00033-3.19575-.75958-4.378-1.07648-.76548-.20553-2.78084.4949-3.77862.82749-4.1984,1.39954-6.77116.67957-6.77116.67957Z"/><path class="cls-19" d="M1410.86242,514.13541s-11.94471.73567-16.07958,6.50289c-5.82061,8.11826-17.36741,42.71671-10.74991,47.331,7.45254,5.19647,33.91757,1.35945,33.91757,1.35945s.88072-4.11662-.34468-6.1078-21.13805-5.208-22.0571-6.12707,11.48814-17.92133,11.48814-20.67853S1410.86242,514.13541,1410.86242,514.13541Z"/><path class="cls-8" d="M1427.5815,565.28187a17.21371,17.21371,0,0,0,2.475,2.69134,1.82288,1.82288,0,0,0,1.00576.2153l-1.25578-2.26074Z"/><path class="cls-8" d="M1427.1509,562.80583l5.41919,2.63165a.96517.96517,0,0,1-.89771.34674,12.91563,12.91563,0,0,1-2.35051-.64588Z"/><polygon class="cls-7" points="1430.056 571.656 1472.924 571.656 1485.819 539.59 1443.018 539.59 1430.056 571.656"/><polygon class="cls-10" points="1473.426 570.407 1416.82 570.407 1416.82 571.656 1472.924 571.656 1473.426 570.407"/><path class="cls-19" d="M1462.10252,555.62284a1.48524,1.48524,0,0,0-1.45564-2.04106,2.925,2.925,0,0,0-2.6265,2.04106,1.48545,1.48545,0,0,0,1.45588,2.04107A2.925,2.925,0,0,0,1462.10252,555.62284Z"/><path class="cls-24" d="M1231.66861,541.30216h.1367a2.88478,2.88478,0,0,1,2.88478,2.88478v60.897a2.88476,2.88476,0,0,1-2.88476,2.88476h-.137a2.88476,2.88476,0,0,1-2.88476-2.88476v-60.8968A2.885,2.885,0,0,1,1231.66861,541.30216Z"/><path class="cls-25" d="M1231.71143,672.52044h-.09427a.9895.9895,0,0,1-.98913-1.01218l1.50013-65.01574,4.4186-.51547-3.76809,65.53558A1.069,1.069,0,0,1,1231.71143,672.52044Z"/><path class="cls-24" d="M1302.76409,672.52044h.09427a.98951.98951,0,0,0,.98916-1.01218l-1.50013-65.01574-4.41859-.51547,3.768,65.53558A1.06934,1.06934,0,0,0,1302.76409,672.52044Z"/><path class="cls-24" d="M1302.44836,602.46028h-73.66477v2.7716a4.262,4.262,0,0,0,4.262,4.26195h69.40282a3.15143,3.15143,0,0,0,3.15152-3.15126v-.73077A3.15148,3.15148,0,0,0,1302.44836,602.46028Z"/><path class="cls-14" d="M1339.32673,658.62159s-1.08512,13.4806,1.32868,13.65964c.321.02365,12.24309.02365,12.24309.02365l15.21919-.08824s-.09967-3.667-4.54825-4.44225c-4.44868-.77526-13.25335-4.51867-15.94814-10.39828C1344.78617,651.19064,1339.32673,658.62159,1339.32673,658.62159Z"/><path class="cls-29" d="M1247.76854,584.76994s.5066,13.24808,2.84193,17.69034h53.82635s12.93285,1.33861,14.11171,2.21059c1.48778,1.10039-5.18024,12.01675,19.81527,54.67788l12.24361-.312s-12.80257-69.18766-15.07745-70.93883c-3.40281-2.61931-43.22281-11.73586-50.03948-11.93494C1278.67364,575.96414,1247.76854,584.76994,1247.76854,584.76994Z"/><path class="cls-8" d="M1277.94519,506.27c4.15365,2.5725,4.38773,7.69742,4.38773,7.69742-10.13116,2.62062-24.87152-8.62677-24.87152-8.62677a24.85059,24.85059,0,0,0,8.937-14.00972q.18343-.72843.3318-1.49344a30.39708,30.39708,0,0,0,.54842-5.27182l4.65408,4.16911,7.73872,6.9332a66.45992,66.45992,0,0,1-1.14349,7.82528Q1278.27539,504.78853,1277.94519,506.27Z"/><path class="cls-24" d="M1283.66879,559.45394c-.34557,2.2605.355,4.07907.69132,5.76055a6.48984,6.48984,0,0,1,.15253,1.8839c-.55419,6.25287,1.67529,7.04691.97784,9.06459a49.33693,49.33693,0,0,1-6.74174,3.04553c-1.89625.7161-4.16945,1.4852-6.78517,2.20775-.137.0373-.27394.07486-.41414.11215a99.62223,99.62223,0,0,1-23.78089,3.24153c-5.74588-.15382-6.90507-14.71734-4.77371-33.0605,3.32052-28.57658,7.80972-42.43118,19.64257-52.44235.74541-.63046.24293,1.51454,4.21936,3.43265a18.60679,18.60679,0,0,0,11.5464,1.41987l2.706,2.77442c5.37457,8.48867,5.93814,18.56516,5.4804,26.96354A246.93987,246.93987,0,0,1,1283.66879,559.45394Z"/><path class="cls-27" d="M1279.67142,495.668s.41169-.43342-.55637,4.51506c-8.57175-2.47989-11.36392-6.84678-12.50857-9.74184-.32551-.818,3.18624-1.254,5.32622-1.70642Z"/><path class="cls-8" d="M1283.65531,495.69245s-16.53876,2.36826-17.85509-7.95414c-1.31636-10.322-4.33745-16.96817,6.16643-18.91679,10.50387-1.94848,13.06186,1.72815,14.33936,5.06656C1287.58325,477.22659,1287.92356,494.81017,1283.65531,495.69245Z"/><rect class="cls-29" x="1351.0504" y="538.48236" width="1.32525" height="34.70322" transform="translate(2475.84999 1489.85516) rotate(-162.63035)"/><rect class="cls-29" x="1310.76048" y="570.22437" width="36.41654" height="2.17856" transform="translate(2651.934 1156.39498) rotate(-179.4051)"/><path class="cls-30" d="M1260.52647,469.02961c-.13285-.15459-.4405-.28089-1.12755-.32372a2.78816,2.78816,0,0,1,1.28678-.35161c.15124-.95455.673-2.64209,2.32106-3.04026a2.06162,2.06162,0,0,0-1.01116,1.47929c1.92046-1.94153,6.01379-3.33338,17.31044-2.35219,14.88773,1.29333,9.903,10.79261,7.96532,11.9145-1.93755,1.12175-6.76758-2.03362-10.36306-1.77678s-4.3198,5.44377-5.54433,6.14662-.73541-.55314-2.3788-1.31169c-1.64342-.75843-1.82179,1.97329-1.35945,3.75391.46237,1.78078-1.82229,4.10671-1.82229,4.10671l-2.27064-2.48439c-2.27051-2.48426-4.34672-12.94775-3.28783-15.16646C1260.33844,469.42768,1260.43091,469.2291,1260.52647,469.02961Z"/><path class="cls-31" d="M1285.49048,576.163a49.33693,49.33693,0,0,1-6.74174,3.04553c-18.87022-13.76665-18.76745-46.35667-18.87022-46.9141l23.7,20.86938.78158,12.0507a6.48984,6.48984,0,0,1,.15253,1.8839C1283.95845,573.35126,1286.18793,574.1453,1285.49048,576.163Z"/><path class="cls-8" d="M1319.65356,560.8324a5.85472,5.85472,0,0,0,3.11834-.50543c1.60148-.75187,7.12535-3.12424,8.16261-2.79989s4.42466,2.23708,5.222,2.60028a10.20563,10.20563,0,0,1,2.20725,2.22729c-.58519.59059-2.64272-.76419-3.56166-.73822-.919.02573-7.7081,3.73387-9.72591,3.81463a38.83745,38.83745,0,0,1-5.16222-.33283Z"/><path class="cls-8" d="M1331.95815,561.12822c.01786.11034,2.48208,2.85647,4.35994,1.98552l-2.05805-2.03285Z"/><path class="cls-8" d="M1322.7719,560.327a35.49676,35.49676,0,0,0,2.94265-3.02984s.44114.20166.45913.57437a4.93313,4.93313,0,0,1-.57824,1.7656Z"/><path class="cls-24" d="M1279.30087,511.7008c-12.14663-7.39752-26.48354,5.527-20.45587,18.40849,6.98954,14.93651,18.62484,33.1544,27.87088,34.23064,6.59008.767,25.42263,3.18161,33.39916,1.69457,0,0,3.864.1901,1.76866-6.03294,0,0-25.77219-7.18271-30.0533-12.75418-2.29419-2.98561-6.20348-9.03037-12.24761-35.37245C1279.558,511.76741,1279.39514,511.75841,1279.30087,511.7008Z"/><path class="cls-32" d="M1605.89854,672.52044h.1304a1.3668,1.3668,0,0,0,1.36638-1.39853l-2.07218-89.81651-6.10418-.712,5.20545,90.53492A1.47663,1.47663,0,0,0,1605.89854,672.52044Z"/><path class="cls-32" d="M1305.78031,672.52044H1305.65a1.36688,1.36688,0,0,1-1.36637-1.39853l2.07233-89.81651,6.10419-.712-5.20545,90.53492A1.47681,1.47681,0,0,1,1305.78031,672.52044Z"/><path class="cls-32" d="M1299.685,572.11941h311.53217a4.10479,4.10479,0,0,1,4.10479,4.10479v2.62831a4.10505,4.10505,0,0,1-4.10505,4.10505H1299.68526a4.10505,4.10505,0,0,1-4.10505-4.10505v-2.62831a4.10479,4.10479,0,0,1,4.10479-4.10479Z"/><rect class="cls-4" x="1220.73234" y="433.56742" width="5.20223" height="19.13926"/><path class="cls-4" d="M1225.28433,431.67154h-3.66508a.65213.65213,0,0,1-.65025-.65028h0a.65212.65212,0,0,1,.65025-.65025h3.66508a.65212.65212,0,0,1,.65024.65025h0A.65212.65212,0,0,1,1225.28433,431.67154Z"/><rect class="cls-4" x="1211.76344" y="418.5378" width="5.2021" height="34.16888"/><path class="cls-4" d="M1216.197,417.12011H1212.532a.65225.65225,0,0,1-.65038-.65027h0a.65223.65223,0,0,1,.65038-.65025h3.66494a.65213.65213,0,0,1,.65025.65025h0A.65215.65215,0,0,1,1216.197,417.12011Z"/><rect class="cls-4" x="1203.16831" y="394.74483" width="5.20223" height="57.96184"/><path class="cls-4" d="M1207.602,393.16353H1203.937a.65226.65226,0,0,1-.65041-.65025h0a.65228.65228,0,0,1,.65041-.65028h3.66492a.65216.65216,0,0,1,.65027.65028h0A.65214.65214,0,0,1,1207.602,393.16353Z"/><rect class="cls-4" x="1194.3472" y="405.2613" width="5.20223" height="47.44538"/><path class="cls-4" d="M1198.78071,403.99217h-3.66494a.65215.65215,0,0,1-.65025-.65028h0a.65212.65212,0,0,1,.65025-.65025h3.66494a.65223.65223,0,0,1,.65038.65025h0A.65226.65226,0,0,1,1198.78071,403.99217Z"/><rect class="cls-4" x="1185.75217" y="378.93247" width="5.20224" height="73.7742"/><path class="cls-4" d="M1190.18568,377.51916h-3.66491a.65215.65215,0,0,1-.65028-.65025h0a.65227.65227,0,0,1,.65028-.65041h3.66491a.65237.65237,0,0,1,.65041.65041h0A.65224.65224,0,0,1,1190.18568,377.51916Z"/><rect class="cls-4" x="1177.38327" y="390.45367" width="5.20223" height="62.25301"/><path class="cls-4" d="M1181.81691,389.13H1178.152a.65217.65217,0,0,1-.65025-.6504h0a.65212.65212,0,0,1,.65025-.65025h3.66494a.6522.6522,0,0,1,.65025.65025h0A.65225.65225,0,0,1,1181.81691,389.13Z"/><polygon class="cls-26" points="1564.946 572.119 1522.079 572.119 1509.184 540.053 1551.985 540.053 1564.946 572.119"/><polygon class="cls-26" points="1521.576 570.87 1578.183 570.87 1578.183 572.119 1522.079 572.119 1521.576 570.87"/><path class="cls-19" d="M1532.89988,556.08611a1.48545,1.48545,0,0,1,1.45588-2.04107,2.925,2.925,0,0,1,2.62626,2.04107,1.48546,1.48546,0,0,1-1.45588,2.04107A2.925,2.925,0,0,1,1532.89988,556.08611Z"/><path class="cls-33" d="M1794.66713,672.54049v.31023a.87746.87746,0,0,1-.83931.90361H1054.91434a.87745.87745,0,0,1-.83921-.90361v-.31023a.87741.87741,0,0,1,.83921-.90338h738.91348A.87742.87742,0,0,1,1794.66713,672.54049Z"/></svg>