<svg id="Layer_1" data-name="Layer 1" xmlns="http://www.w3.org/2000/svg" xmlns:xlink="http://www.w3.org/1999/xlink" viewBox="0 0 64 64"><defs><style>.cls-1{fill:url(#linear-gradient);}.cls-2{fill:url(#linear-gradient-2);}.cls-3{fill:url(#linear-gradient-3);}.cls-4{fill:#68b7f6;}.cls-5{fill:url(#linear-gradient-4);}.cls-6{fill:url(#linear-gradient-5);}.cls-7{fill:url(#linear-gradient-6);}</style><linearGradient id="linear-gradient" x1="32.07508" y1="46.6352" x2="62" y2="46.6352" gradientUnits="userSpaceOnUse"><stop offset="0.23395" stop-color="#2156a3"/><stop offset="1" stop-color="#012b73"/></linearGradient><linearGradient id="linear-gradient-2" x1="5.57411" y1="18.67448" x2="58.42736" y2="18.67448" gradientUnits="userSpaceOnUse"><stop offset="0" stop-color="#2156a3"/><stop offset="1" stop-color="#012b73"/></linearGradient><linearGradient id="linear-gradient-3" x1="2" y1="32.64148" x2="2.28591" y2="32.64148" xlink:href="#linear-gradient-2"/><linearGradient id="linear-gradient-4" x1="2.09397" y1="46.04164" x2="46.81162" y2="46.04164" xlink:href="#linear-gradient-2"/><linearGradient id="linear-gradient-5" x1="17.03104" y1="27.9647" x2="30.27356" y2="27.9647" xlink:href="#linear-gradient-2"/><linearGradient id="linear-gradient-6" x1="34.4874" y1="27.9646" x2="47.73317" y2="27.9646" gradientUnits="userSpaceOnUse"><stop offset="0.25102" stop-color="#2156a3"/><stop offset="1" stop-color="#012b73"/></linearGradient></defs><path class="cls-1" d="M39.26562,62.00024a16.78776,16.78776,0,0,0-1.94806-.481,7.53211,7.53211,0,0,1-4.40377-3.06988,3.83806,3.83806,0,0,1-.63864-2.0895c-.00455-2.84584.00192-5.6917.00425-8.53755a.72227.72227,0,0,1,.66066-.13506,13.483,13.483,0,0,0,9.9232-2.81555,18.37721,18.37721,0,0,0,3.298-2.95859,1.62826,1.62826,0,0,0,.4478-1.05263,1.08606,1.08606,0,0,0-1.32581-1.16831,2.81324,2.81324,0,0,0-1.58447.929,13.01286,13.01286,0,0,1-1.8693,1.67606,7.45791,7.45791,0,0,1-7.16376.452A7.02046,7.02046,0,0,1,32.697,41.49986a1.59313,1.59313,0,0,1-.60334-.90742c-.09305-1.36991.13223-1.77154,1.38655-2.30151a10.05281,10.05281,0,0,1,3.829-.71124c2.63129-.03159,5.26563-.07877,7.89412.01266a15.61985,15.61985,0,0,0,5.93641-1.086c1.06262-.3857,2.12378-.77586,3.16015-1.227A19.41407,19.41407,0,0,0,58.31326,33.194a7.98871,7.98871,0,0,0,1.16145-1.04609,3.12432,3.12432,0,0,1,1.37875-.82347A.815.815,0,0,1,62,32v1.0547a9.705,9.705,0,0,1-3.76228,5.73364,23.05426,23.05426,0,0,1-4.32764,2.54831c-1.26539.60967-2.5248,1.23232-3.80268,1.815a.95854.95854,0,0,0-.61444,1.00579c.01605,2.693.0985,5.38992-.01524,8.07818a11.06025,11.06025,0,0,1-4.08161,8.48043,5.91224,5.91224,0,0,1-3.318,1.28418H40.32031a.89584.89584,0,0,0-.70312,0Z"/><path class="cls-2" d="M58.379,33.30934a19.09231,19.09231,0,0,1-3.88495,2.05994c-.26745-.32207-.17312-.70906-.1734-1.07q-.00881-11.24825-.00321-22.4965a5.71963,5.71963,0,0,0-1.49886-4.13054,5.59709,5.59709,0,0,0-4.26528-1.738q-7.44018-.0034-14.88038-.00082-9.10983.00006-18.21967.00178a5.4961,5.4961,0,0,0-5.0335,2.765A5.84216,5.84216,0,0,0,9.68551,11.796q-.00534,11.16038-.00313,22.32075a3.94879,3.94879,0,0,1-.0546.99014c-.1037.30581-.32792.23288-.51479.12893-1.08059-.601-2.164-1.198-3.20321-1.86994a.64955.64955,0,0,1-.29555-.41565,4.24453,4.24453,0,0,1-.03834-.81758q-.00153-10.389,0-20.77808A9.61833,9.61833,0,0,1,11.8263,2.42986a6.00559,6.00559,0,0,1,1.456-.34306c1.7125-.16959,3.46278-.087,5.18185-.087H47.84522c.59639,0,1.19242.02281,1.78825.04645A9.36552,9.36552,0,0,1,51.3678,2.175a8.23627,8.23627,0,0,1,2.07734.8107A9.76608,9.76608,0,0,1,56.36442,5.5081q.1399.17541.2736.35568a9.02934,9.02934,0,0,1,1.7813,5.47966c.0143,7.08878.00429,14.17761.008,21.26642A6.071,6.071,0,0,1,58.379,33.30934Z"/><path class="cls-3" d="M2,32.23438a.0765.0765,0,0,1,.09394-.0311.60252.60252,0,0,1,.00308.87911A.10453.10453,0,0,1,2,33.0547Z"/><path class="cls-4" d="M39.61719,62.00024a.52323.52323,0,0,1,.70312,0Z"/><path class="cls-5" d="M2.097,33.08239l-.003-.87907c.03895-.54934.37507-.63538.82069-.505A11.95877,11.95877,0,0,1,5.1758,32.7799c.1874.10083.37877.19429.56828.29113a42.4361,42.4361,0,0,0,3.7557,2.19364.735.735,0,0,1,.608.14322c2.29314,1.34175,4.85811,1.634,7.42164,1.93233a77.01238,77.01238,0,0,0,9.10805.487,7.42793,7.42793,0,0,1,5.18921,2.26006,2.14283,2.14283,0,0,1,.41616.63025,6.84571,6.84571,0,0,0,4.95723,2.52811,6.68141,6.68141,0,0,0,5.85318-2.18763,7.60172,7.60172,0,0,1,1.34115-1.21851,1.76967,1.76967,0,0,1,1.78323-.16434,1.26066,1.26066,0,0,1,.63275,1.23232,1.3997,1.3997,0,0,1-.39633.947A18.35813,18.35813,0,0,1,42.135,45.552c-.46771.31562-.9658.58683-1.45422.87108a13.2522,13.2522,0,0,1-7.70092,1.43088c-.23332-.01368-.467-.02118-.70047-.03157a11.37994,11.37994,0,0,1-1.61779-.49253c-.41307-.20326-.27057.18763-.27111.3366-.00934,2.59742-.00676,5.19488-.00676,7.79234a4.40716,4.40716,0,0,1-3.54995,4.673,6.29151,6.29151,0,0,1-4.61647-.28362,15.23169,15.23169,0,0,1-6.14678-4.822,4.4001,4.4001,0,0,1-.83148-2.68763c.0241-3.00739-.00909-6.01529.02445-9.02249a.91327.91327,0,0,0-.68989-1.00183A45.40271,45.40271,0,0,1,5.982,37.95622a14.45191,14.45191,0,0,1-3.70841-4.32309A2.23823,2.23823,0,0,1,2.097,33.08239Z"/><path class="cls-6" d="M30.27354,27.95388a6.6212,6.6212,0,1,1-13.24235.03261,6.62121,6.62121,0,1,1,13.24235-.03261Z"/><path class="cls-7" d="M47.73317,27.97218a6.62288,6.62288,0,0,1-13.24576-.00365,6.62289,6.62289,0,1,1,13.24576.00365Z"/></svg>