<svg id="Layer_1" data-name="Layer 1" xmlns="http://www.w3.org/2000/svg" xmlns:xlink="http://www.w3.org/1999/xlink" viewBox="0 0 64 64"><defs><style>.cls-1{fill:url(#linear-gradient);}.cls-2{fill:url(#linear-gradient-2);}.cls-3{fill:url(#linear-gradient-3);}.cls-4{fill:url(#linear-gradient-4);}.cls-5{fill:url(#linear-gradient-5);}.cls-6{fill:url(#linear-gradient-6);}.cls-7{fill:url(#linear-gradient-7);}.cls-8{fill:url(#linear-gradient-8);}.cls-9{fill:url(#linear-gradient-9);}.cls-10{fill:url(#linear-gradient-10);}.cls-11{fill:url(#linear-gradient-11);}.cls-12{fill:url(#linear-gradient-12);}.cls-13{fill:url(#linear-gradient-13);}</style><linearGradient id="linear-gradient" x1="26.03926" y1="38.82979" x2="57" y2="38.82979" gradientUnits="userSpaceOnUse"><stop offset="0" stop-color="#2156a3"/><stop offset="1" stop-color="#012b73"/></linearGradient><linearGradient id="linear-gradient-2" x1="7" y1="17.54494" x2="27.85564" y2="17.54494" xlink:href="#linear-gradient"/><linearGradient id="linear-gradient-3" x1="7" y1="38.38407" x2="27.81814" y2="38.38407" xlink:href="#linear-gradient"/><linearGradient id="linear-gradient-4" x1="7" y1="31.987" x2="27.8191" y2="31.987" xlink:href="#linear-gradient"/><linearGradient id="linear-gradient-5" x1="7" y1="35.19494" x2="16.59261" y2="35.19494" xlink:href="#linear-gradient"/><linearGradient id="linear-gradient-6" x1="41.50815" y1="14.05091" x2="56.34888" y2="14.05091" xlink:href="#linear-gradient"/><linearGradient id="linear-gradient-7" x1="7.37443" y1="49.9478" x2="17.4152" y2="49.9478" xlink:href="#linear-gradient"/><linearGradient id="linear-gradient-8" x1="18.24509" y1="35.19878" x2="27.81638" y2="35.19878" xlink:href="#linear-gradient"/><linearGradient id="linear-gradient-9" x1="35.08712" y1="7.93738" x2="36.64687" y2="7.93738" xlink:href="#linear-gradient"/><linearGradient id="linear-gradient-10" x1="38.30195" y1="7.91991" x2="39.85751" y2="7.91991" xlink:href="#linear-gradient"/><linearGradient id="linear-gradient-11" x1="19.04654" y1="56.05434" x2="20.63953" y2="56.05434" xlink:href="#linear-gradient"/><linearGradient id="linear-gradient-12" x1="22.25566" y1="56.04938" x2="23.79356" y2="56.04938" xlink:href="#linear-gradient"/><linearGradient id="linear-gradient-13" x1="11.81972" y1="17.55226" x2="23.02929" y2="17.55226" xlink:href="#linear-gradient"/></defs><path class="cls-1" d="M57,56.8905c-.21011-.011-.42022-.03162-.63034-.03166q-14.84077-.00237-29.68155-.00137l-.64287,0a1.05041,1.05041,0,0,1,.00214-.23828c.6059-2.02263,1.17961-4.05581,1.83251-6.06322a5.57027,5.57027,0,0,1,4.72041-3.92021c1.61453-.28035,3.22512-.58337,4.9837-.90282-.15652-.23947-.22593-.45858-.375-.55647a8.12876,8.12876,0,0,1-3.52477-4.91426.651.651,0,0,0-.341-.389,3.19179,3.19179,0,0,1-2.28065-3.1755c-.01867-2.26108-.03158-4.52486.055-6.78357a9.86508,9.86508,0,0,1,16.94366-6.129,1.8199,1.8199,0,0,0,.55341.37733,4.90738,4.90738,0,0,1,3.28709,4.73858c.05969,2.61863.0299,5.2398.00781,7.8596a3.20487,3.20487,0,0,1-2.24913,3.10043.70519.70519,0,0,0-.37508.41882A8.1417,8.1417,0,0,1,45.78894,45.159a2.70018,2.70018,0,0,0-.44417.56294c1.23743.22671,2.32159.41858,3.40287.62552a24.33478,24.33478,0,0,1,2.7176.565,5.40777,5.40777,0,0,1,3.684,3.78724c.5649,1.83152,1.10448,3.67084,1.65879,5.50565.05055.16733.12736.32674.192.48982ZM50.27477,33.92979c0-1.786.05706-3.57389-.01813-5.35621a3.11845,3.11845,0,0,0-2.18954-2.8909,3.05392,3.05392,0,0,1-1.1191-.7275A8.25016,8.25016,0,0,0,32.80191,29.3138c-.16015,1.43175-.09395,2.8889-.12742,4.33459a2.8114,2.8114,0,0,0,.03647.3423l.78326-.318v-.90544a6.39373,6.39373,0,0,0,4.08128-.8501c1.14863-.77144,2.16333-1.74228,3.26294-2.647.06479.08229.18945.22868.30122.38432a7.07855,7.07855,0,0,0,6.26085,3.13007c.6792-.0168,1.35916-.00252,2.09141-.00252C49.44975,33.37423,49.44036,33.93172,50.27477,33.92979ZM54.859,55.2156c-.50275-1.5916-.94483-3.15489-1.4971-4.67823a3.0335,3.0335,0,0,0-1.96338-1.92514c-1.42441-.42062-2.89766-.6758-4.378-1.00747l-1.97907,5.91-3.61039-3.61315-3.5318,3.52464-1.93146-5.77586c-1.27711.24416-2.52734.444-3.75784.729a3.69387,3.69387,0,0,0-2.72083,2.4288c-.29154.7736-.49561,1.58026-.73642,2.37285-.202.66493-.40035,1.331-.61171,2.0345ZM35.105,34.3543c0,1.5452-.06614,3.05829.01362,4.56364a6.38232,6.38232,0,0,0,12.68566.37787c.15956-1.57878.0693-3.18283.08944-4.77548.00033-.02668-.03275-.05378-.08018-.12674a8.85092,8.85092,0,0,1-7.19043-2.815A8.68741,8.68741,0,0,1,35.105,34.3543Zm9.26341,16.12106,1.06781-3.21929c-1.22829.19732-1.82162,1.15521-2.6908,1.608ZM40.176,48.85254c-.61892-.46515-1.25521-.96522-1.91879-1.426a2.14369,2.14369,0,0,0-.71495-.14072L38.59756,50.453Zm-.82435-2.625,2.13365,1.59815,2.136-1.60181A11.175,11.175,0,0,1,39.35162,46.22749Zm10.16557-8.06655a1.56756,1.56756,0,0,0,.76187-1.50142,1.41326,1.41326,0,0,0-.76187-1.18489ZM33.44557,35.468a1.54694,1.54694,0,0,0,0,2.66818Z"/><path class="cls-2" d="M7,14.99468c.64461-.1659,1.29176-.32265,1.93285-.50118a.51283.51283,0,0,0,.31488-.8c-.315-.5668-.645-1.1253-.98873-1.72221,1.14233-1.14238,2.27485-2.28419,3.42637-3.40651a.50593.50593,0,0,1,.45228-.00316c.47663.24482.93172.53119,1.39911.79449a.52771.52771,0,0,0,.84533-.34707c.14654-.51564.29462-1.03175.412-1.55441a.37.37,0,0,1,.43129-.34153c1.46461.00917,2.92942.0141,4.39387-.00357.30113-.00363.39173.13053.45269.37846.1241.50473.261,1.00647.40024,1.5073a.52823.52823,0,0,0,.83753.362c.48231-.26985.95132-.56488,1.44362-.81442a.48578.48578,0,0,1,.44406.05q1.60763,1.5678,3.17406,3.1773a.53241.53241,0,0,1,.04641.48356c-.22167.4513-.49453.87735-.74546,1.31442-.29185.50837-.17154.805.38616.95856.59226.16312,1.18464.32581,1.79609.49395,0,1.62682.00662,3.22069-.01386,4.81422-.00148.11456-.18124.2863-.31168.32908-.47776.1567-.9698.2698-1.45632.39988-.57245.15306-.70085.44584-.41294.94908.25833.45154.53274.89454.77179,1.356a.45717.45717,0,0,1-.01.41235c-1.12194,1.15358-2.26067,2.29083-3.40758,3.444-.58242-.3369-1.12624-.65676-1.67529-.96736-.43025-.2434-.74107-.11133-.87416.3671-.16917.60814-.33191,1.21806-.50489,1.8547-1.62777,0-3.23718.00543-4.84632-.01274-.1026-.00116-.25784-.16826-.29514-.28742-.16-.51119-.28017-1.03468-.42422-1.55108a.53654.53654,0,0,0-.87729-.3719c-.55128.31083-1.097.63157-1.61112.92843l-3.61-3.61361c.28376-.4936.60016-1.03831.91089-1.58623q.39483-.69621-.3747-.90914c-.61-.16978-1.22114-.3355-1.83178-.503ZM26.24312,18.8294c0-.635,0-1.25182,0-1.86859,0-.71457.00888-.76686-.72047-.89115a1.53945,1.53945,0,0,1-1.45867-1.277c-.04359-.21774-.21135-.41055-.25541-.6283a1.0423,1.0423,0,0,1,.03377-.61466c.21541-.4499.48884-.872.69477-1.22845l-1.87727-1.88569c-.32271.18577-.70161.37551-1.04871.61192a1.03325,1.03325,0,0,1-.97518.07715,2.17081,2.17081,0,0,1-1.83311-2.09021.42191.42191,0,0,0-.29458-.28468c-.79349-.0241-1.588-.01315-2.38366-.01315a4.617,4.617,0,0,1-.5206,1.69359c-.34087.398-1.018.508-1.54767.7442a.12212.12212,0,0,1-.04494.01808,1.35714,1.35714,0,0,1-.53053-.0263c-.46166-.23059-.90035-.50713-1.41256-.8033-.30468.32912-.59352.65924-.90152.97039-.90252.91178-.9184.91665-.24368,2.029a1.07642,1.07642,0,0,1,.08344.96969,2.20865,2.20865,0,0,1-2.08379,1.84456.50618.50618,0,0,0-.30708.37546c-.03188.66538-.03174,1.334.00009,1.99934a.5463.5463,0,0,0,.31008.37687c.39406.14658.8162.21661,1.21375.35552a.68627.68627,0,0,1,.35852.32461,3.93939,3.93939,0,0,1,.627,1.60827c-.029.52425-.51,1.02335-.79155,1.53424a.41641.41641,0,0,0-.02606.09338l-.09486.09444c.32923.28794.66229.57164.98659.865.31189.28215.58959.76371.9286.80868.33708.04472.74613-.32278,1.09711-.55039a1.07291,1.07291,0,0,1,1.01621-.08059,2.17336,2.17336,0,0,1,1.80562,2.063c.00829.11687.23808.30478.3723.31131.66532.03235,1.33389.03232,1.99927.00065a.55058.55058,0,0,0,.38612-.30631c.14159-.37829.20794-.784.33095-1.17037a.63771.63771,0,0,1,.25629-.37074,4.87873,4.87873,0,0,1,1.7062-.66075c.44507-.01334.90447.45149,1.35752.7037.01421.00791.02926.02322.0428.02206.14-.012.32891.02673.41169-.04934.57377-.52721,1.12544-1.07847,1.69414-1.63167-.28608-.49548-.55879-.93627-.79473-1.39594a.67535.67535,0,0,1-.03807-.48465,3.95965,3.95965,0,0,1,.69634-1.582,4.34709,4.34709,0,0,1,1.63708-.53616A1.42424,1.42424,0,0,0,26.24312,18.8294Z"/><path class="cls-3" d="M7,37.554c.20905.01607.41809.04611.62715.04619q9.76407.0037,19.52815.002h.66284v1.612H7Z"/><path class="cls-4" d="M7,31.20611c1.51252-.00458,3.025-.01263,4.53757-.0131q7.83214-.00246,15.66429-.00063h.61724v1.552c-.12652.01286-.24988.03634-.37325.03637q-10.12568.00245-20.25134.00061c-.06484,0-.12967-.00828-.19451-.01269Z"/><path class="cls-5" d="M7,34.42887c.90993-.00982,1.81985-.02628,2.7298-.02811q3.14756-.00633,6.29513-.00133h.56768v1.592H7Z"/><path class="cls-6" d="M53.475,20.96057,50.6266,18.11793l1.185-1.154.796.96669c.0705-2.14493.38836-4.27923-.87457-6.1814a6.25845,6.25845,0,0,0-5.23352-2.99831c-1.4782-.04979-2.95932-.0132-4.43913-.01523-.17469-.00024-.34938,0-.55219,0,0-.54612,0-1.04361.00035-1.54147.02679-.01867.05356-.05347.07962-.05294a60.63614,60.63614,0,0,1,6.17948.16847,7.8184,7.8184,0,0,1,6.50893,7.25811c.04626,1.02265.03119,2.04806.04629,3.07218a.51522.51522,0,0,0,.1405.31762l.79011-1.0365,1.09545,1.1654Z"/><path class="cls-7" d="M17.4152,55.2628v1.61094a16.70779,16.70779,0,0,1-1.77429-.24286,7.97076,7.97076,0,0,1-6.22735-7.93509c-.00844-.71556-.00011-1.43131-.00268-2.147-.00056-.1543-.01481-.30854-.03012-.606l-.87148,1.03293L7.37443,45.85211l2.84623-2.83024,2.85757,2.84978-1.053,1.07248-.91343-.87335c-.03949.02331-.08856.03955-.088.05372a27.34721,27.34721,0,0,0,.2239,4.26744,6.23146,6.23146,0,0,0,5.83467,4.83812C17.1779,55.23505,17.27292,55.24855,17.4152,55.2628Z"/><path class="cls-8" d="M18.24509,35.95745V34.44012h9.57129v1.51733Z"/><path class="cls-9" d="M35.08712,8.70981V7.165h1.55975V8.70981Z"/><path class="cls-10" d="M38.302,7.14436h1.55556V8.69545H38.302Z"/><path class="cls-11" d="M19.04654,55.253H20.6373c0,.474.00928.93785-.01,1.40055a.296.296,0,0,1-.21457.19083c-.44877.01831-.89868.00895-1.36619.00895Z"/><path class="cls-12" d="M23.79356,56.826h-1.5379V55.27282h1.5379Z"/><path class="cls-13" d="M21.88908,20.86476l-1.23348-.91482a4.04611,4.04611,0,0,0,.52331-3.75825,3.80071,3.80071,0,0,0-1.61423-2.014,3.99618,3.99618,0,0,0-5.27806,5.848,4.07442,4.07442,0,0,0,5.59309.7216l.93823,1.21711a5.53284,5.53284,0,0,1-7.518-.61875,5.60576,5.60576,0,0,1,7.99693-7.85A5.53583,5.53583,0,0,1,21.88908,20.86476Z"/></svg>