<?xml version="1.0" encoding="utf-8"?>
<!-- Generator: Adobe Illustrator 26.0.1, SVG Export Plug-In . SVG Version: 6.00 Build 0)  -->
<svg version="1.1" id="Layer_1" xmlns="http://www.w3.org/2000/svg" xmlns:xlink="http://www.w3.org/1999/xlink" x="0px" y="0px"
	 viewBox="0 0 64 64" style="enable-background:new 0 0 64 64;" xml:space="preserve">
<style type="text/css">
	.st0{fill:url(#SVGID_1_);}
	.st1{fill:url(#SVGID_00000009573000414484407310000017145408303493554362_);}
	.st2{fill:url(#SVGID_00000003096809911735715120000009051471258829427072_);}
	.st3{fill:#68B7F6;}
	.st4{fill:url(#SVGID_00000006692209539453576330000008113641499977264301_);}
	.st5{fill:url(#SVGID_00000011731574659034195020000001386574726746895511_);}
	.st6{fill:url(#SVGID_00000053503740372627070890000005713763858325289870_);}
	.st7{fill:url(#SVGID_00000069376070532843586370000004198831568808000941_);}
	.st8{fill:url(#SVGID_00000152232378770242206600000008472703711745069448_);}
	.st9{fill:url(#SVGID_00000148653021675574585060000000060586412684514977_);}
	.st10{fill:#FFFFFF;}
	.st11{fill:url(#SVGID_00000145042815265811827620000017771428520741605522_);}
	.st12{fill:url(#SVGID_00000155134272491496176420000008408291591259489666_);}
	.st13{fill:url(#SVGID_00000013887640423018734750000018021708291064616614_);}
	.st14{fill:url(#SVGID_00000087409515750900873350000001813890341150881965_);}
	.st15{fill:url(#SVGID_00000042726138640901943320000006834059157521335696_);}
	.st16{fill:url(#SVGID_00000036217276190194762450000005690124014160309172_);}
	.st17{fill:url(#SVGID_00000174589378944632166190000014017065875223412642_);}
	.st18{fill:url(#SVGID_00000068638367734275641900000004370677362302778044_);}
	.st19{fill:url(#SVGID_00000070076121008965647920000014141362635806034817_);}
	.st20{fill:url(#SVGID_00000065040892840698094940000008176449746138112696_);}
	.st21{fill:url(#SVGID_00000059988119422087941160000013343899374303867265_);}
	.st22{fill:url(#SVGID_00000029014031576351014610000016894217344551398305_);}
	.st23{fill:url(#SVGID_00000115502850864040373880000008873772154053202070_);}
	.st24{fill:url(#SVGID_00000143577872896442995170000007253749993582831540_);}
	.st25{fill:url(#SVGID_00000088852798598197455740000014908341833033619873_);}
	.st26{fill:url(#SVGID_00000086681969463629193920000006836018512427512450_);}
	.st27{fill:url(#SVGID_00000007394190662941220550000010914932554091126936_);}
	.st28{fill:url(#SVGID_00000078752543210890480240000007393647580662829246_);}
	.st29{fill:url(#SVGID_00000155115965869216979200000015898664895300703377_);}
	.st30{fill:url(#SVGID_00000031165767422609120470000010439214922186887843_);}
	.st31{fill:url(#SVGID_00000094590595326721734300000018291886629257629087_);}
	.st32{fill:url(#SVGID_00000054973193245428269150000003076208557289598379_);}
	.st33{fill:url(#SVGID_00000059311158563503370550000004377120736196675510_);}
	.st34{fill:url(#SVGID_00000083081526920741633850000002242473029322012550_);}
	.st35{fill:url(#SVGID_00000050652090607888986060000006560452261207918748_);}
	.st36{fill:url(#SVGID_00000127019099374444189820000013751216834327241640_);}
	.st37{fill:url(#SVGID_00000181058332649154928520000014842526122276360597_);}
</style>
<linearGradient id="SVGID_1_" gradientUnits="userSpaceOnUse" x1="32.0751" y1="46.6352" x2="62" y2="46.6352">
	<stop  offset="0.2339" style="stop-color:#2156A3"/>
	<stop  offset="1" style="stop-color:#012B73"/>
</linearGradient>
<path class="st0" d="M39.3,62c-0.6-0.3-1.3-0.3-1.9-0.5c-1.8-0.6-3.4-1.4-4.4-3.1c-0.4-0.6-0.6-1.3-0.6-2.1c0-2.8,0-5.7,0-8.5
	c0.2-0.2,0.4-0.2,0.7-0.1c3.7,0.4,7-0.6,9.9-2.8c1.2-0.9,2.4-1.8,3.3-3c0.2-0.3,0.4-0.6,0.4-1.1c0-0.8-0.5-1.3-1.3-1.2
	c-0.7,0.1-1.1,0.5-1.6,0.9c-0.6,0.6-1.2,1.2-1.9,1.7c-2.3,1.5-4.7,1.4-7.2,0.5c-0.7-0.3-1.4-0.7-2-1.2c-0.3-0.2-0.5-0.5-0.6-0.9
	c-0.1-1.4,0.1-1.8,1.4-2.3c1.2-0.5,2.5-0.7,3.8-0.7c2.6,0,5.3-0.1,7.9,0c2.1,0.1,4-0.4,5.9-1.1c1.1-0.4,2.1-0.8,3.2-1.2
	c1.4-0.5,2.8-1.2,4-2.1c0.4-0.3,0.8-0.7,1.2-1c0.4-0.4,0.8-0.7,1.4-0.8c0.6-0.2,1,0,1.1,0.7c0,0.4,0,0.7,0,1.1
	c-0.5,2.4-1.9,4.2-3.8,5.7c-1.3,1-2.8,1.8-4.3,2.5c-1.3,0.6-2.5,1.2-3.8,1.8c-0.5,0.2-0.6,0.5-0.6,1c0,2.7,0.1,5.4,0,8.1
	c-0.1,3.4-1.4,6.3-4.1,8.5c-1,0.8-2.1,1.2-3.3,1.3c-0.6,0-1.2,0-1.8,0c-0.2-0.1-0.5-0.1-0.7,0C39.5,62,39.4,62,39.3,62z"/>
<linearGradient id="SVGID_00000059296912518405372950000002538273113778141840_" gradientUnits="userSpaceOnUse" x1="5.5741" y1="18.6745" x2="58.4274" y2="18.6745">
	<stop  offset="0" style="stop-color:#2156A3"/>
	<stop  offset="1" style="stop-color:#012B73"/>
</linearGradient>
<path style="fill:url(#SVGID_00000059296912518405372950000002538273113778141840_);" d="M58.4,33.3c-1.2,0.9-2.5,1.5-3.9,2.1
	c-0.3-0.3-0.2-0.7-0.2-1.1c0-7.5,0-15,0-22.5c0-1.6-0.4-3-1.5-4.1c-1.2-1.2-2.6-1.7-4.3-1.7c-5,0-9.9,0-14.9,0c-6.1,0-12.1,0-18.2,0
	c-2.2,0-3.9,0.9-5,2.8c-0.6,1-0.7,2-0.7,3.1c0,7.4,0,14.9,0,22.3c0,0.3,0,0.7-0.1,1c-0.1,0.3-0.3,0.2-0.5,0.1
	C8,34.6,6.9,34,5.9,33.4c-0.1-0.1-0.3-0.2-0.3-0.4c-0.1-0.3,0-0.5,0-0.8c0-6.9,0-13.9,0-20.8c0-3.9,2.5-7.6,6.3-8.9
	c0.5-0.2,1-0.3,1.5-0.3C15,1.9,16.7,2,18.5,2c1.8,0,3.5,0,5.3,0c3.5,0,7.1,0,10.6,0S41.5,2,45,2c0.9,0,1.9,0,2.8,0
	c0.6,0,1.2,0,1.8,0c0.6,0,1.2,0,1.7,0.1c0.7,0.2,1.4,0.5,2.1,0.8c1.1,0.6,2.1,1.5,2.9,2.5c0.1,0.1,0.2,0.2,0.3,0.4
	c1.2,1.6,1.8,3.5,1.8,5.5c0,7.1,0,14.2,0,21.3C58.4,32.8,58.4,33.1,58.4,33.3z"/>
<linearGradient id="SVGID_00000130611924516555172180000003163776402467846553_" gradientUnits="userSpaceOnUse" x1="2" y1="32.6415" x2="2.2859" y2="32.6415">
	<stop  offset="0" style="stop-color:#2156A3"/>
	<stop  offset="1" style="stop-color:#012B73"/>
</linearGradient>
<path style="fill:url(#SVGID_00000130611924516555172180000003163776402467846553_);" d="M2,32.2C2,32.2,2.1,32.2,2,32.2
	c0.4,0.3,0.3,0.6,0.1,0.8c0,0-0.1,0-0.1,0C2,32.8,2,32.5,2,32.2z"/>
<path class="st3" d="M39.6,62c0.2-0.2,0.5-0.2,0.7,0C40.1,62,39.9,62,39.6,62z"/>
<linearGradient id="SVGID_00000091694163185986439380000005305666060931571353_" gradientUnits="userSpaceOnUse" x1="2.094" y1="46.0416" x2="46.8116" y2="46.0416">
	<stop  offset="0" style="stop-color:#2156A3"/>
	<stop  offset="1" style="stop-color:#012B73"/>
</linearGradient>
<path style="fill:url(#SVGID_00000091694163185986439380000005305666060931571353_);" d="M2.1,33.1c0-0.3,0-0.6,0-0.9
	c0-0.5,0.4-0.6,0.8-0.5c0.8,0.2,1.5,0.7,2.3,1.1c0.2,0.1,0.4,0.2,0.6,0.3c1.2,0.8,2.5,1.5,3.8,2.2c0.2-0.1,0.4,0,0.6,0.1
	c2.3,1.3,4.9,1.6,7.4,1.9c3,0.4,6.1,0.5,9.1,0.5c2,0,3.7,0.9,5.2,2.3c0.2,0.2,0.3,0.4,0.4,0.6c1.3,1.6,3,2.3,5,2.5
	c2.3,0.2,4.3-0.5,5.9-2.2c0.4-0.4,0.8-0.9,1.3-1.2c0.6-0.4,1.2-0.4,1.8-0.2c0.5,0.2,0.6,0.7,0.6,1.2c0,0.4-0.2,0.7-0.4,0.9
	c-1.2,1.5-2.7,2.6-4.3,3.7c-0.5,0.3-1,0.6-1.5,0.9c-2.4,1.4-5,1.6-7.7,1.4c-0.2,0-0.5,0-0.7,0c-0.5-0.2-1.1-0.2-1.6-0.5
	c-0.4-0.2-0.3,0.2-0.3,0.3c0,2.6,0,5.2,0,7.8c0,2.5-1.1,4-3.5,4.7c-1.6,0.5-3.1,0.4-4.6-0.3c-2.4-1.1-4.6-2.6-6.1-4.8
	c-0.6-0.8-0.8-1.7-0.8-2.7c0-3,0-6,0-9c0-0.6-0.2-0.8-0.7-1c-3-1.2-5.9-2.5-8.6-4.4c-1.6-1.1-2.7-2.7-3.7-4.3
	C2.2,33.5,2.2,33.3,2.1,33.1z"/>
<linearGradient id="SVGID_00000143588649196842172350000015206792073763973017_" gradientUnits="userSpaceOnUse" x1="17.031" y1="27.9647" x2="30.2736" y2="27.9647">
	<stop  offset="0" style="stop-color:#2156A3"/>
	<stop  offset="1" style="stop-color:#012B73"/>
</linearGradient>
<path style="fill:url(#SVGID_00000143588649196842172350000015206792073763973017_);" d="M30.3,28c0,3.7-2.9,6.6-6.6,6.6
	c-3.7,0-6.6-2.9-6.6-6.6c0-3.6,3-6.6,6.6-6.7C27.3,21.3,30.3,24.3,30.3,28z"/>
<linearGradient id="SVGID_00000149358067595451032850000015861878216241038986_" gradientUnits="userSpaceOnUse" x1="34.4874" y1="27.9646" x2="47.7332" y2="27.9646">
	<stop  offset="0.251" style="stop-color:#2156A3"/>
	<stop  offset="1" style="stop-color:#012B73"/>
</linearGradient>
<path style="fill:url(#SVGID_00000149358067595451032850000015861878216241038986_);" d="M47.7,28c0,3.7-2.9,6.6-6.6,6.6
	c-3.7,0-6.6-3-6.6-6.6c0-3.6,3-6.6,6.6-6.6C44.8,21.3,47.7,24.3,47.7,28z"/>
<linearGradient id="SVGID_00000125563763591848418510000012134878164800892343_" gradientUnits="userSpaceOnUse" x1="-526.4011" y1="40.0939" x2="-510.6311" y2="40.0939">
	<stop  offset="0" style="stop-color:#2156A3"/>
	<stop  offset="1" style="stop-color:#012B73"/>
</linearGradient>
<path style="fill:url(#SVGID_00000125563763591848418510000012134878164800892343_);" d="M-522.1,49c-0.5-0.9-1.2-1.7-1.8-2.6
	c-2.5-3.5-5.1-6.9-7.7-10.4c-0.2-0.3-0.2-0.4,0.1-0.7c1.8-1.3,3.7-2.7,5.5-4c0.3-0.2,0.4-0.2,0.6,0.1c1.3,1.8,2.6,3.6,3.9,5.4
	c1,1.3,1.9,2.6,2.9,3.9c0.8,1.1,1.6,2.2,2.5,3.4c0.2,0.3,0.2,0.5-0.1,0.7c-1.1,0.8-2.2,1.6-3.3,2.4C-520.3,47.7-521.2,48.3-522.1,49
	C-522,49-522,49-522.1,49z M-527.6,35.1c0,1,0.7,1.7,1.6,1.8c1,0,1.8-0.7,1.8-1.7c0-0.9-0.7-1.7-1.7-1.7
	C-526.7,33.5-527.7,34.3-527.6,35.1z"/>
<linearGradient id="SVGID_00000178168715893417386680000013436244815111080115_" gradientUnits="userSpaceOnUse" x1="-523.7019" y1="33.0288" x2="-484.161" y2="33.0288">
	<stop  offset="0" style="stop-color:#2156A3"/>
	<stop  offset="1" style="stop-color:#012B73"/>
</linearGradient>
<path style="fill:url(#SVGID_00000178168715893417386680000013436244815111080115_);" d="M-485,28.7c-0.9,0.9-1.8,1.8-2.7,2.7
	c-2.5,2.5-5,4.9-7.4,7.4c-0.9,0.9-1.9,1.3-3.1,1.3c-3.5,0-7.1,0-10.6,0c-1.1,0-2.1,0-3.2,0c-0.7,0-1.4,0.2-2,0.6
	c-0.5,0.4-1,0.7-1.5,1.1c-0.3,0.2-0.5,0.2-0.7-0.1c-1.5-2.1-3.1-4.2-4.6-6.2c-0.9-1.2-1.8-2.4-2.7-3.6c-0.2-0.2-0.2-0.4,0-0.7
	c0.7-1.1,1.6-1.8,2.7-2.4c3.5-1.7,7.1-2.1,10.8-1.2c0.5,0.1,1,0.2,1.3,0.6c3.2,0,6.3,0,9.5,0c0.5,0,1,0.1,1.5,0.3
	c0.9,0.4,1.5,1.3,1.5,2.3c0,1-0.7,1.9-1.5,2.3c-0.5,0.2-1,0.3-1.5,0.3c-3.1,0-6.3,0-9.5,0c-0.3,0.4-0.3,0.8,0,1.2
	c3.4,0,6.8,0,10.2,0c1.6,0,3-1.4,3.4-3c0.1-0.4,0.2-0.6,0.5-0.9c2-2,3.9-4,5.9-5.9c1.4-1.4,3.6-1,4.4,0.7
	C-483.9,26.6-484.1,27.8-485,28.7z"/>
<linearGradient id="SVGID_00000101093367833956553020000011648562214942042500_" gradientUnits="userSpaceOnUse" x1="-515.34" y1="11.6665" x2="-490.0297" y2="11.6665">
	<stop  offset="0" style="stop-color:#2156A3"/>
	<stop  offset="1" style="stop-color:#012B73"/>
</linearGradient>
<path style="fill:url(#SVGID_00000101093367833956553020000011648562214942042500_);" d="M-490.6,8.9c-0.5-0.1-0.9-0.3-1.4-0.3
	c-0.7-0.1-1.1-0.4-1.3-1c-0.1-0.3-0.1-0.4,0.1-0.7c0.3-0.5,0.7-1.1,1-1.7c0.2-0.4,0.2-0.7-0.1-1c-1-1-2-2-2.9-2.9
	c-0.3-0.3-0.6-0.3-1-0.1c-0.4,0.2-0.8,0.4-1.1,0.7c-0.6,0.5-1.2,0.5-1.8,0.1c-0.2-0.1-0.3-0.1-0.3-0.4c-0.1-0.3-0.1-0.6-0.2-0.9
	c-0.2-0.6-0.1-1.3-0.7-1.7h-4.9c-0.2,0.2-0.3,0.5-0.4,0.8c-0.1,0.5-0.3,1.1-0.4,1.7c-0.1,0.5-1.2,1-1.6,0.7
	c-0.6-0.4-1.3-0.8-1.9-1.1c-0.3-0.2-0.5,0-0.7,0.2c-1,1-2,2-3,3c-0.3,0.3-0.3,0.6-0.1,0.9c0.3,0.6,0.7,1.1,1,1.7
	c0.3,0.5-0.1,1.4-0.6,1.6c-0.6,0.1-1.2,0.3-1.8,0.4c-0.6,0.2-0.7,0.3-0.7,0.9v3.9c0,0.6,0.1,0.8,0.7,0.9c0.6,0.2,1.2,0.3,1.8,0.5
	c0.4,0.1,0.8,1.1,0.6,1.5c-0.4,0.6-0.7,1.2-1.1,1.8c-0.2,0.3-0.2,0.6,0.1,0.9c1,1,2,2,3,3c0.3,0.3,0.6,0.3,0.9,0
	c0.6-0.3,1.1-0.7,1.7-1c0.5-0.3,1.4,0.1,1.6,0.7c0.2,0.6,0.3,1.2,0.5,1.9c0.1,0.5,0.3,0.6,0.8,0.6c1,0,2,0,3.1,0
	c1.8,0,1.5,0.2,2-1.6c0,0,0-0.1,0-0.1c0-0.8,0.4-1.3,1.2-1.5c0.2,0,0.3-0.1,0.5,0c0.6,0.4,1.2,0.7,1.7,1.1c0.4,0.2,0.7,0.2,1-0.1
	c1-1,1.9-1.9,2.9-2.9c0.3-0.3,0.4-0.6,0.1-1c-0.4-0.5-0.7-1.1-1-1.7c-0.3-0.5,0.1-1.5,0.7-1.6c0.6-0.2,1.3-0.3,1.9-0.5
	c0.4-0.1,0.6-0.3,0.6-0.7c0-1.4,0-2.8,0-4.2C-490,9.2-490.2,9-490.6,8.9z M-496,13.1c-0.6,2.7-2.8,4.8-5.6,5.3c-1.4,0.2-2.8,0-4-0.5
	c-1.2-0.5-2.1-1.4-2.8-2.5c-0.3-0.5-0.7-1-0.8-1.6c-0.4-1.3-0.4-2.6-0.1-3.9c0.5-1.7,1.5-3.1,3-4.1c2.3-1.5,5.4-1.4,7.6,0.2
	C-496.5,7.7-495.4,10.5-496,13.1z"/>
<path class="st10" d="M-509.2,13.9c-0.4-1.3-0.4-2.6-0.1-3.9c0.5-1.7,1.5-3.1,3-4.1c2.3-1.5,5.4-1.4,7.6,0.2c2.2,1.6,3.3,4.4,2.7,7
	c-0.6,2.7-2.8,4.8-5.6,5.3c-1.4,0.2-2.8,0-4-0.5c-1.2-0.5-2.1-1.4-2.8-2.5C-508.7,14.9-509.1,14.4-509.2,13.9z M-498.1,14.9
	c1.5-2,1.6-5.4-1-7.6c-2.1-1.8-5.5-1.7-7.6,0.4c-2.2,2.2-1.9,5.6-0.6,7.2c0.5-1.1,1.3-2,2.4-2.5c0.3-0.2,0.1-0.3,0-0.4
	c-0.9-1.2-0.5-3.2,1.1-3.9c1-0.4,2.1-0.2,2.9,0.5c0.8,0.8,1,1.9,0.6,2.9c-0.1,0.3-0.5,0.6-0.4,0.7c0.1,0.2,0.5,0.3,0.7,0.5
	C-499.1,13.3-498.5,14-498.1,14.9z M-502.7,17.3c1.2,0,2.3-0.4,3.3-1c0.3-0.2,0.3-0.4,0.2-0.7c-0.5-1.5-2-2.5-3.5-2.5
	c-1.6,0-3,1-3.5,2.5c-0.1,0.3-0.1,0.5,0.2,0.6C-505,16.9-503.9,17.3-502.7,17.3z M-501.3,10.5c0-0.8-0.6-1.4-1.4-1.4
	c-0.8,0-1.4,0.6-1.4,1.4c0,0.8,0.6,1.4,1.4,1.5C-501.9,11.9-501.3,11.3-501.3,10.5z"/>
<linearGradient id="SVGID_00000101087155259175697610000016626061423921241769_" gradientUnits="userSpaceOnUse" x1="-508.3153" y1="10.4831" x2="-497.0473" y2="10.4831">
	<stop  offset="0" style="stop-color:#2156A3"/>
	<stop  offset="1" style="stop-color:#012B73"/>
</linearGradient>
<path style="fill:url(#SVGID_00000101087155259175697610000016626061423921241769_);" d="M-498.1,14.9c-0.4-0.9-1-1.6-1.8-2.2
	c-0.3-0.2-0.6-0.3-0.7-0.5c-0.1-0.1,0.3-0.5,0.4-0.7c0.4-1,0.2-2.2-0.6-2.9c-0.8-0.7-1.9-0.9-2.9-0.5c-1.6,0.7-1.9,2.7-1.1,3.9
	c0.1,0.1,0.3,0.3,0,0.4c-1.1,0.5-1.9,1.4-2.4,2.5c-1.4-1.6-1.7-5,0.6-7.2c2.1-2.1,5.4-2.2,7.6-0.4C-496.5,9.5-496.6,12.9-498.1,14.9
	z"/>
<linearGradient id="SVGID_00000155147018420805136870000001185425344413266063_" gradientUnits="userSpaceOnUse" x1="-506.2548" y1="15.195" x2="-499.1184" y2="15.195">
	<stop  offset="0" style="stop-color:#2156A3"/>
	<stop  offset="1" style="stop-color:#012B73"/>
</linearGradient>
<path style="fill:url(#SVGID_00000155147018420805136870000001185425344413266063_);" d="M-502.7,17.3c-1.2,0-2.3-0.4-3.3-1.1
	c-0.3-0.2-0.3-0.4-0.2-0.6c0.5-1.5,2-2.5,3.5-2.5c1.5,0,3,1,3.5,2.5c0.1,0.3,0.1,0.5-0.2,0.7C-500.4,16.9-501.5,17.3-502.7,17.3z"/>
<linearGradient id="SVGID_00000072246317775795591760000002811802867836873605_" gradientUnits="userSpaceOnUse" x1="-504.097" y1="10.4801" x2="-501.2688" y2="10.4801">
	<stop  offset="0" style="stop-color:#2156A3"/>
	<stop  offset="1" style="stop-color:#012B73"/>
</linearGradient>
<path style="fill:url(#SVGID_00000072246317775795591760000002811802867836873605_);" d="M-501.3,10.5c0,0.8-0.7,1.4-1.5,1.4
	c-0.8,0-1.4-0.7-1.4-1.5c0-0.8,0.7-1.4,1.4-1.4C-501.9,9.1-501.3,9.7-501.3,10.5z"/>
<linearGradient id="SVGID_00000173125111936277503860000002166917015314360969_" gradientUnits="userSpaceOnUse" x1="-526.3967" y1="35.2159" x2="-525.4456" y2="35.2159">
	<stop  offset="0" style="stop-color:#2156A3"/>
	<stop  offset="1" style="stop-color:#012B73"/>
</linearGradient>
<path style="fill:url(#SVGID_00000173125111936277503860000002166917015314360969_);" d="M-525.4,35.2c0,0.3-0.2,0.5-0.5,0.5
	c-0.3,0-0.4-0.2-0.4-0.5c0-0.3,0.2-0.5,0.5-0.5C-525.6,34.7-525.5,34.9-525.4,35.2z"/>
<g>
	
		<linearGradient id="SVGID_00000044890252700510408270000006964596786992658075_" gradientUnits="userSpaceOnUse" x1="-533" y1="-62.1096" x2="-523.1327" y2="-62.1096">
		<stop  offset="0" style="stop-color:#2156A3"/>
		<stop  offset="1" style="stop-color:#012B73"/>
	</linearGradient>
	<path style="fill:url(#SVGID_00000044890252700510408270000006964596786992658075_);" d="M-533-63.9c0.2-0.7,0.4-1.4,0.9-1.9
		c0.6-0.7,1.4-1.1,2.3-1.2c1.5,0,3.1-0.1,4.6,0c0.9,0,1.5,0.6,1.8,1.4c0.3,0.8,0.2,1.6-0.4,2.3c-0.5,0.5-1.1,0.7-1.8,0.7
		c-0.8,0-1.7,0-2.5,0c-0.2,0-0.4,0-0.6,0c0,1.1,0,2.2,0,3.2c0,0.9-0.4,1.6-1.2,2c-1.1,0.6-2.5,0.1-3-1c-0.1-0.1-0.1-0.3-0.2-0.4
		C-533-60.6-533-62.2-533-63.9z M-531.5-61.5c0,0.6,0,1.3,0,1.9c0,0.6,0.3,0.9,0.7,0.9c0.5,0,0.8-0.3,0.8-0.9c0-1.2,0-2.3,0-3.5
		c0-0.8,0.2-1.1,1.1-1.1c1.2,0,2.4,0,3.6,0c0.5,0,0.8-0.3,0.8-0.7c0-0.4-0.3-0.7-0.8-0.7c-1.3,0-2.7,0-4,0c-1.2,0.1-2,1-2.1,2.2
		C-531.5-62.7-531.5-62.1-531.5-61.5z"/>
	
		<linearGradient id="SVGID_00000047034001801893091160000018329467002817455008_" gradientUnits="userSpaceOnUse" x1="-492.8672" y1="-62.1234" x2="-483" y2="-62.1234">
		<stop  offset="0" style="stop-color:#2156A3"/>
		<stop  offset="1" style="stop-color:#012B73"/>
	</linearGradient>
	<path style="fill:url(#SVGID_00000047034001801893091160000018329467002817455008_);" d="M-483-58.9c-0.1,0.1-0.1,0.2-0.2,0.3
		c-0.4,1-1.4,1.6-2.5,1.4c-1-0.2-1.7-1.1-1.8-2.1c0-0.9,0-1.8,0-2.7c0-0.2,0-0.3,0-0.6c-1.1,0-2.1,0-3.1,0c-0.8,0-1.5-0.2-2-0.9
		c-0.5-0.7-0.6-1.4-0.2-2.2c0.3-0.8,0.9-1.3,1.8-1.3c1.6,0,3.3-0.1,4.9,0c1.5,0.2,2.5,1.2,2.9,2.7c0,0.1,0.1,0.3,0.1,0.4
		C-483-62.2-483-60.6-483-58.9z M-484.5-61.5c0-0.6,0-1.1,0-1.7c0-1.5-0.9-2.4-2.4-2.4c-1.2,0-2.3,0-3.5,0c-0.2,0-0.4,0-0.5,0.1
		c-0.2,0.2-0.5,0.4-0.5,0.7c0,0.2,0.3,0.5,0.5,0.7c0.1,0.1,0.4,0.1,0.6,0.1c1.1,0,2.2,0,3.4,0c0.8,0,1,0.2,1,1c0,1.1,0,2.3,0,3.4
		c0,0.7,0.2,1,0.7,1c0.5,0,0.7-0.3,0.7-1.1C-484.5-60.3-484.5-60.9-484.5-61.5z"/>
	
		<linearGradient id="SVGID_00000035503772879354286130000014792240403325085594_" gradientUnits="userSpaceOnUse" x1="-533" y1="-29.8766" x2="-523.1328" y2="-29.8766">
		<stop  offset="0" style="stop-color:#2156A3"/>
		<stop  offset="1" style="stop-color:#012B73"/>
	</linearGradient>
	<path style="fill:url(#SVGID_00000035503772879354286130000014792240403325085594_);" d="M-533-33.1c0.1-0.1,0.1-0.2,0.2-0.3
		c0.4-1,1.4-1.6,2.5-1.4c1,0.2,1.7,1.1,1.8,2.1c0,0.9,0,1.8,0,2.7c0,0.2,0,0.3,0,0.6c1.1,0,2.1,0,3.1,0c0.8,0,1.5,0.2,2,0.9
		c0.5,0.7,0.6,1.4,0.2,2.2c-0.3,0.8-0.9,1.3-1.8,1.3c-1.6,0-3.3,0.1-4.9,0c-1.5-0.2-2.5-1.2-2.9-2.7c0-0.1-0.1-0.3-0.1-0.4
		C-533-29.8-533-31.4-533-33.1z M-527.4-26.4C-527.4-26.4-527.4-26.4-527.4-26.4c0.7,0,1.4,0.1,2.1,0c0.2,0,0.5-0.3,0.7-0.5
		c0.1-0.2,0-0.5-0.2-0.7c-0.2-0.2-0.5-0.2-0.8-0.2c-1.1,0-2.3,0-3.4,0c-0.8,0-1-0.2-1-1c0-1.2,0-2.4,0-3.6c0-0.5-0.3-0.8-0.7-0.8
		c-0.4,0-0.7,0.3-0.7,0.8c0,1.3,0,2.7,0,4c0,1.1,0.9,2,2,2.1C-528.8-26.4-528.1-26.4-527.4-26.4z"/>
	
		<linearGradient id="SVGID_00000113310888650753343810000017962264075449746071_" gradientUnits="userSpaceOnUse" x1="-492.8673" y1="-29.8904" x2="-483" y2="-29.8904">
		<stop  offset="0" style="stop-color:#2156A3"/>
		<stop  offset="1" style="stop-color:#012B73"/>
	</linearGradient>
	<path style="fill:url(#SVGID_00000113310888650753343810000017962264075449746071_);" d="M-483-28.1c-0.2,0.7-0.4,1.4-0.9,1.9
		c-0.6,0.7-1.4,1.1-2.3,1.2c-1.5,0-3.1,0.1-4.6,0c-0.9,0-1.5-0.6-1.8-1.4c-0.3-0.8-0.2-1.6,0.4-2.3c0.5-0.5,1.1-0.7,1.8-0.7
		c0.8,0,1.7,0,2.5,0c0.2,0,0.4,0,0.6,0c0-1.1,0-2.2,0-3.2c0-0.9,0.4-1.6,1.2-2c1.1-0.6,2.5-0.1,3,1c0.1,0.1,0.1,0.3,0.2,0.4
		C-483-31.4-483-29.8-483-28.1z M-484.5-30.5c0-0.7,0-1.4,0-2c0-0.5-0.4-0.9-0.8-0.8c-0.5,0.1-0.6,0.4-0.6,0.8c0,1.2,0,2.3,0,3.5
		c0,0.9-0.2,1.1-1.1,1.1c-1.2,0-2.4,0-3.6,0c-0.5,0-0.8,0.3-0.8,0.7c0,0.4,0.3,0.7,0.8,0.7c1.3,0,2.7,0,4,0c1.3-0.1,2.1-1,2.1-2.2
		C-484.5-29.3-484.5-29.9-484.5-30.5z"/>
	
		<linearGradient id="SVGID_00000137129026628156216300000010942428158437343379_" gradientUnits="userSpaceOnUse" x1="-510.197" y1="-66.8515" x2="-505.8079" y2="-66.8515">
		<stop  offset="0" style="stop-color:#2156A3"/>
		<stop  offset="1" style="stop-color:#012B73"/>
	</linearGradient>
	<path style="fill:url(#SVGID_00000137129026628156216300000010942428158437343379_);" d="M-507.5-71c0.1,0.1,0.2,0.1,0.3,0.2
		c0.8,0.4,1.3,0.9,1.3,1.8c0,1.4,0.1,2.9,0,4.3c0,1.1-0.9,1.9-2,2c-1,0.1-2-0.6-2.3-1.6c-0.1-0.2-0.1-0.5-0.1-0.7c0-1.2,0-2.4,0-3.7
		c0-1.2,0.7-1.9,1.7-2.3C-508.2-71-507.8-71-507.5-71z M-507.3-66.8c0-0.6,0-1.2,0-1.8c0-0.6-0.3-0.9-0.7-0.9
		c-0.4,0-0.7,0.3-0.7,0.9c0,1.2,0,2.4,0,3.6c0,0.5,0.3,0.9,0.7,0.9c0.4,0,0.7-0.3,0.7-0.9C-507.3-65.7-507.3-66.2-507.3-66.8z"/>
	
		<linearGradient id="SVGID_00000088103860527253553890000016139845604971780501_" gradientUnits="userSpaceOnUse" x1="-533" y1="-45.9975" x2="-524.703" y2="-45.9975">
		<stop  offset="0" style="stop-color:#2156A3"/>
		<stop  offset="1" style="stop-color:#012B73"/>
	</linearGradient>
	<path style="fill:url(#SVGID_00000088103860527253553890000016139845604971780501_);" d="M-533-46.5c0.1-0.1,0.1-0.2,0.2-0.3
		c0.4-0.8,0.9-1.3,1.8-1.3c1.4,0,2.9-0.1,4.3,0c1.1,0,1.9,0.9,2,2c0.1,1-0.6,2-1.6,2.3c-0.2,0.1-0.5,0.1-0.7,0.1c-1.2,0-2.4,0-3.7,0
		c-1.2,0-1.9-0.7-2.3-1.7C-533-45.8-533-46.2-533-46.5z M-528.9-45.3c0.6,0,1.2,0,1.8,0c0.6,0,0.9-0.3,0.9-0.7
		c0-0.4-0.3-0.7-0.9-0.7c-1.2,0-2.4,0-3.6,0c-0.5,0-0.9,0.3-0.9,0.7c0,0.4,0.3,0.7,0.9,0.7C-530-45.3-529.5-45.3-528.9-45.3z"/>
	
		<linearGradient id="SVGID_00000163751974411077208360000011456136309820385158_" gradientUnits="userSpaceOnUse" x1="-491.297" y1="-46.0025" x2="-483" y2="-46.0025">
		<stop  offset="0" style="stop-color:#2156A3"/>
		<stop  offset="1" style="stop-color:#012B73"/>
	</linearGradient>
	<path style="fill:url(#SVGID_00000163751974411077208360000011456136309820385158_);" d="M-483-45.5c-0.1,0.1-0.1,0.2-0.2,0.3
		c-0.4,0.8-0.9,1.3-1.8,1.3c-1.4,0-2.9,0.1-4.3,0c-1.1,0-1.9-0.9-2-2c-0.1-1,0.6-2,1.6-2.3c0.2-0.1,0.5-0.1,0.7-0.1
		c1.2,0,2.4,0,3.7,0c1.2,0,1.9,0.7,2.3,1.7C-483-46.2-483-45.8-483-45.5z M-487.2-45.3c0.6,0,1.2,0,1.8,0c0.5,0,0.9-0.3,0.9-0.7
		c0-0.4-0.3-0.7-0.8-0.7c-1.2,0-2.4,0-3.7,0c-0.5,0-0.9,0.3-0.9,0.7c0,0.4,0.3,0.7,0.9,0.7C-488.4-45.3-487.8-45.3-487.2-45.3z"/>
	
		<linearGradient id="SVGID_00000087374669245454220570000009859441017672081085_" gradientUnits="userSpaceOnUse" x1="-510.1921" y1="-25.1485" x2="-505.803" y2="-25.1485">
		<stop  offset="0" style="stop-color:#2156A3"/>
		<stop  offset="1" style="stop-color:#012B73"/>
	</linearGradient>
	<path style="fill:url(#SVGID_00000087374669245454220570000009859441017672081085_);" d="M-508.5-21c-0.1-0.1-0.2-0.1-0.3-0.2
		c-0.8-0.4-1.3-0.9-1.3-1.8c0-1.4-0.1-2.9,0-4.3c0-1.1,0.9-1.9,2-2c1-0.1,2,0.6,2.3,1.6c0.1,0.2,0.1,0.5,0.1,0.7c0,1.2,0,2.4,0,3.7
		c0,1.2-0.7,1.9-1.7,2.3C-507.8-21-508.2-21-508.5-21z M-507.3-25.1c0-0.6,0-1.2,0-1.8c0-0.6-0.3-0.9-0.7-0.9
		c-0.4,0-0.7,0.3-0.7,0.9c0,1.2,0,2.4,0,3.6c0,0.5,0.3,0.9,0.7,0.9c0.4,0,0.7-0.3,0.7-0.9C-507.3-24-507.3-24.5-507.3-25.1z"/>
	
		<linearGradient id="SVGID_00000151507954026348579760000006301454641016546231_" gradientUnits="userSpaceOnUse" x1="-523.2821" y1="-45.9986" x2="-492.7128" y2="-45.9986">
		<stop  offset="0" style="stop-color:#2156A3"/>
		<stop  offset="1" style="stop-color:#012B73"/>
	</linearGradient>
	<path style="fill:url(#SVGID_00000151507954026348579760000006301454641016546231_);" d="M-516.5-37.4c0-1.4,0-2.8,0-4.2
		c0-1.6,0.5-3.1,1.4-4.5c0.1-0.1,0.1-0.2,0.1-0.3c-1.4-0.6-2.8-0.6-4.2,0c-0.2,0.1-0.3,0.2-0.5,0.3c-0.4,0.2-0.7,0-0.9-0.3
		c-0.2-0.4-0.1-0.7,0.2-0.9c0.2-0.1,0.4-0.2,0.6-0.4c-2.5-2.2-2-5.2-0.4-6.7c1.5-1.5,4.6-2.1,6.8,0.6c0.7-3.6,2.7-5.5,5.8-5.3
		c2.4,0.1,4.8,2,5,5.4c0.9-1.1,2-1.8,3.4-1.9c1.4-0.1,2.6,0.4,3.6,1.5c1.5,1.6,1.7,4.5-0.6,6.5c0.4,0.3,0.9,0.6,1.3,1
		c1.7,1.4,2.3,3.3,2.2,5.4c0,0.4-0.3,0.7-0.7,0.7c-0.4,0-0.7-0.3-0.7-0.7c-0.1-0.8-0.1-1.6-0.3-2.3c-0.8-2.6-4.1-4-6.5-2.7
		c0,0.1,0,0.1,0.1,0.2c1,1.6,1.5,3.3,1.5,5.1c0,1.2,0,2.4,0,3.6c1.8,0,3.5,0,5.2,0c0-0.2,0-0.4,0-0.6c0-0.6,0.3-0.9,0.7-0.9
		c0.5,0,0.7,0.3,0.7,1c0,0.4,0,0.7,0,1.1c0,0.7-0.2,1-1,1c-1.7,0-3.4,0-5.1,0c-0.2,0-0.4,0-0.6,0c0,0.7,0,1.4,0,2
		c0,0.8-0.2,1.1-1.1,1.1c-3.4,0-6.8,0-10.3,0c-0.2,0-0.4,0-0.5-0.1c-0.4-0.1-0.5-0.4-0.5-0.7c0-0.4,0.3-0.6,0.6-0.7
		c0.2,0,0.3,0,0.5,0c3.1,0,6.2,0,9.2,0c0.2,0,0.3,0,0.5,0c0-0.1,0-0.2,0-0.3c0-2.4,0-4.9,0-7.3c-0.1-3.2-2.8-6-5.9-6.5
		c-4-0.5-7.4,2-8.1,5.9c0,0.3-0.1,0.6-0.1,0.8c0,2.4,0,4.7,0,7.1c0,0.1,0,0.1,0,0.2c0.3,0,0.5,0,0.8,0c0.4,0,0.7,0.3,0.7,0.7
		c0,0.4-0.2,0.7-0.7,0.7c-0.5,0-1.1,0-1.6,0c-0.5,0-0.7-0.3-0.7-0.9c0-0.7,0-1.4,0-2.2c-0.2,0-0.4,0-0.6,0c-1.7,0-3.4,0-5,0
		c-0.9,0-1.1-0.2-1.1-1.1c0-1.9,0-3.7,0.1-5.6c0-0.7,0.3-1.4,0.5-2.1c0.2-0.5,0.6-0.6,1-0.5c0.4,0.2,0.6,0.6,0.4,1.1
		c-0.3,0.8-0.4,1.6-0.4,2.4c0,1.4,0,2.8,0,4.2C-520.1-37.4-518.3-37.4-516.5-37.4z M-507.9-57.7c-2.1,0-3.9,1.7-4,3.9
		c0,2.1,1.7,3.9,3.8,3.9c2.1,0.1,3.9-1.7,4-3.9C-504.1-55.9-505.8-57.7-507.9-57.7z M-520-51.3c0,1.6,1.3,3,3,3
		c1.6,0,2.9-1.3,2.9-2.9c0-1.6-1.3-3-3-3C-518.7-54.2-520.1-52.9-520-51.3z M-499-48.3c1.6,0,3-1.3,3-2.9c0-1.6-1.2-2.9-2.9-3
		c-1.6-0.1-3,1.2-3,2.9C-501.9-49.7-500.6-48.4-499-48.3z M-514.4-47.7c0,0,0,0.1,0,0.1c0.2,0,0.4,0,0.6,0c0.9-0.6,1.8-1.2,2.6-1.8
		c-0.4-0.4-0.9-1-1.5-1.6C-512.8-49.6-513.4-48.6-514.4-47.7z M-501.7-47.6c0-0.1,0-0.1,0-0.2c-1-0.8-1.6-1.9-1.7-3.2
		c-0.5,0.6-1,1.1-1.5,1.5c0.9,0.6,1.7,1.2,2.6,1.8C-502.1-47.5-501.8-47.6-501.7-47.6z"/>
	
		<linearGradient id="SVGID_00000182490190289323566870000002478347138485764481_" gradientUnits="userSpaceOnUse" x1="-512.1179" y1="-40.5123" x2="-503.5925" y2="-40.5123">
		<stop  offset="0" style="stop-color:#2156A3"/>
		<stop  offset="1" style="stop-color:#012B73"/>
	</linearGradient>
	<path style="fill:url(#SVGID_00000182490190289323566870000002478347138485764481_);" d="M-508.1-39c1-1.5,2-2.8,2.9-4.2
		c0.1-0.1,0.2-0.3,0.3-0.4c0.3-0.3,0.7-0.4,1-0.2c0.3,0.3,0.4,0.6,0.2,1c-0.1,0.1-0.1,0.2-0.2,0.3c-1.1,1.6-2.2,3.2-3.3,4.8
		c-0.5,0.7-0.9,0.8-1.5,0.1c-1-1-2.1-2-3.1-3.1c-0.2-0.2-0.3-0.5-0.3-0.8c0-0.2,0.3-0.5,0.5-0.5c0.2,0,0.6,0,0.8,0.2
		c0.8,0.7,1.6,1.5,2.4,2.3C-508.4-39.3-508.3-39.2-508.1-39z"/>
</g>
<g>
	
		<linearGradient id="SVGID_00000028296202555895755730000009501923834646648754_" gradientUnits="userSpaceOnUse" x1="-385.9607" y1="143.8298" x2="-355" y2="143.8298">
		<stop  offset="0" style="stop-color:#2156A3"/>
		<stop  offset="1" style="stop-color:#012B73"/>
	</linearGradient>
	<path style="fill:url(#SVGID_00000028296202555895755730000009501923834646648754_);" d="M-355,161.9c-0.2,0-0.4,0-0.6,0
		c-9.9,0-19.8,0-29.7,0c-0.2,0-0.4,0-0.6,0c0-0.1,0-0.2,0-0.2c0.6-2,1.2-4.1,1.8-6.1c0.7-2.3,2.4-3.5,4.7-3.9c1.6-0.3,3.2-0.6,5-0.9
		c-0.2-0.2-0.2-0.5-0.4-0.6c-1.8-1.2-3-2.8-3.5-4.9c0-0.2-0.2-0.3-0.3-0.4c-1.5-0.6-2.3-1.6-2.3-3.2c0-2.3,0-4.5,0.1-6.8
		c0.2-4,3.3-7.8,7.1-8.8c3.8-1,7-0.1,9.8,2.6c0.2,0.2,0.4,0.3,0.6,0.4c2.1,0.9,3.2,2.5,3.3,4.7c0.1,2.6,0,5.2,0,7.9
		c0,1.5-0.8,2.6-2.2,3.1c-0.2,0.1-0.3,0.3-0.4,0.4c-0.5,2.1-1.7,3.7-3.5,4.9c-0.2,0.1-0.2,0.3-0.4,0.6c1.2,0.2,2.3,0.4,3.4,0.6
		c0.9,0.2,1.8,0.3,2.7,0.6c1.9,0.6,3.1,1.9,3.7,3.8c0.6,1.8,1.1,3.7,1.7,5.5c0.1,0.2,0.1,0.3,0.2,0.5
		C-355,161.8-355,161.8-355,161.9z M-361.7,138.9c0-1.8,0.1-3.6,0-5.4c-0.1-1.4-0.9-2.4-2.2-2.9c-0.4-0.2-0.8-0.4-1.1-0.7
		c-2.1-2.1-4.6-2.9-7.5-2.4c-3.3,0.5-6.3,3.5-6.6,6.8c-0.2,1.4-0.1,2.9-0.1,4.3c0,0.1,0,0.2,0,0.3c0.3-0.1,0.5-0.2,0.8-0.3
		c0-0.3,0-0.6,0-0.9c1.5,0.1,2.9-0.1,4.1-0.9c1.1-0.8,2.2-1.7,3.3-2.6c0.1,0.1,0.2,0.2,0.3,0.4c1.5,2.1,3.6,3.2,6.3,3.1
		c0.7,0,1.4,0,2.1,0C-362.6,138.4-362.6,138.9-361.7,138.9z M-357.1,160.2c-0.5-1.6-0.9-3.2-1.5-4.7c-0.3-0.9-1-1.6-2-1.9
		c-1.4-0.4-2.9-0.7-4.4-1c-0.7,2-1.3,3.9-2,5.9c-1.2-1.2-2.4-2.4-3.6-3.6c-1.2,1.2-2.4,2.4-3.5,3.5c-0.6-1.9-1.3-3.8-1.9-5.8
		c-1.3,0.2-2.5,0.4-3.8,0.7c-1.3,0.3-2.2,1.2-2.7,2.4c-0.3,0.8-0.5,1.6-0.7,2.4c-0.2,0.7-0.4,1.3-0.6,2
		C-374.9,160.2-366.1,160.2-357.1,160.2z M-376.9,139.4c0,1.5-0.1,3.1,0,4.6c0.2,3.2,2.9,5.8,6.2,5.9c3.2,0.1,6.1-2.3,6.5-5.5
		c0.2-1.6,0.1-3.2,0.1-4.8c0,0,0-0.1-0.1-0.1c-2.8,0.1-5.2-0.7-7.2-2.8C-372.9,138.2-374.7,139.1-376.9,139.4z M-367.6,155.5
		c0.3-1,0.7-2.1,1.1-3.2c-1.2,0.2-1.8,1.2-2.7,1.6C-368.7,154.4-368.2,154.9-367.6,155.5z M-371.8,153.9c-0.6-0.5-1.3-1-1.9-1.4
		c-0.2-0.1-0.4-0.1-0.7-0.1c0.4,1.1,0.7,2.2,1.1,3.2C-372.9,154.9-372.4,154.4-371.8,153.9z M-372.6,151.2c0.7,0.5,1.4,1.1,2.1,1.6
		c0.7-0.5,1.4-1.1,2.1-1.6C-369.8,151.5-371.2,151.5-372.6,151.2z M-362.5,143.2c0.6-0.4,0.8-0.9,0.8-1.5c0-0.5-0.3-0.9-0.8-1.2
		C-362.5,141.4-362.5,142.2-362.5,143.2z M-378.6,140.5c-0.6,0.3-0.8,0.8-0.8,1.4c0,0.5,0.2,1,0.8,1.3
		C-378.6,142.2-378.6,141.4-378.6,140.5z"/>
	
		<linearGradient id="SVGID_00000005948114723032513370000000883339221499803325_" gradientUnits="userSpaceOnUse" x1="-405" y1="122.5449" x2="-384.1443" y2="122.5449">
		<stop  offset="0" style="stop-color:#2156A3"/>
		<stop  offset="1" style="stop-color:#012B73"/>
	</linearGradient>
	<path style="fill:url(#SVGID_00000005948114723032513370000000883339221499803325_);" d="M-405,120c0.6-0.2,1.3-0.3,1.9-0.5
		c0.4-0.1,0.5-0.4,0.3-0.8c-0.3-0.6-0.6-1.1-1-1.7c1.1-1.1,2.3-2.3,3.4-3.4c0.1-0.1,0.3-0.1,0.5,0c0.5,0.2,0.9,0.5,1.4,0.8
		c0.4,0.2,0.7,0.1,0.8-0.3c0.1-0.5,0.3-1,0.4-1.6c0.1-0.3,0.2-0.3,0.4-0.3c1.5,0,2.9,0,4.4,0c0.3,0,0.4,0.1,0.5,0.4
		c0.1,0.5,0.3,1,0.4,1.5c0.1,0.4,0.5,0.6,0.8,0.4c0.5-0.3,1-0.6,1.4-0.8c0.1-0.1,0.4,0,0.4,0c1.1,1,2.1,2.1,3.2,3.2
		c0.1,0.1,0.1,0.4,0,0.5c-0.2,0.5-0.5,0.9-0.7,1.3c-0.3,0.5-0.2,0.8,0.4,1c0.6,0.2,1.2,0.3,1.8,0.5c0,1.6,0,3.2,0,4.8
		c0,0.1-0.2,0.3-0.3,0.3c-0.5,0.2-1,0.3-1.5,0.4c-0.6,0.2-0.7,0.4-0.4,0.9c0.3,0.5,0.5,0.9,0.8,1.4c0.1,0.1,0.1,0.3,0,0.4
		c-1.1,1.2-2.3,2.3-3.4,3.4c-0.6-0.3-1.1-0.7-1.7-1c-0.4-0.2-0.7-0.1-0.9,0.4c-0.2,0.6-0.3,1.2-0.5,1.9c-1.6,0-3.2,0-4.8,0
		c-0.1,0-0.3-0.2-0.3-0.3c-0.2-0.5-0.3-1-0.4-1.6c-0.1-0.5-0.5-0.6-0.9-0.4c-0.6,0.3-1.1,0.6-1.6,0.9c-1.2-1.2-2.4-2.4-3.6-3.6
		c0.3-0.5,0.6-1,0.9-1.6c0.3-0.5,0.1-0.8-0.4-0.9c-0.6-0.2-1.2-0.3-1.8-0.5C-405,123.4-405,121.7-405,120z M-385.8,123.8
		c0-0.6,0-1.3,0-1.9c0-0.7,0-0.8-0.7-0.9c-0.8-0.1-1.3-0.5-1.5-1.3c0-0.2-0.2-0.4-0.3-0.6c0-0.2,0-0.4,0-0.6
		c0.2-0.4,0.5-0.9,0.7-1.2c-0.6-0.6-1.3-1.3-1.9-1.9c-0.3,0.2-0.7,0.4-1,0.6c-0.3,0.2-0.6,0.2-1,0.1c-1.1-0.3-1.7-0.9-1.8-2.1
		c0-0.1-0.2-0.3-0.3-0.3c-0.8,0-1.6,0-2.4,0c-0.2,0.6-0.2,1.3-0.5,1.7c-0.3,0.4-1,0.5-1.5,0.7c0,0,0,0,0,0c-0.2,0-0.4,0-0.5,0
		c-0.5-0.2-0.9-0.5-1.4-0.8c-0.3,0.3-0.6,0.7-0.9,1c-0.9,0.9-0.9,0.9-0.2,2c0.2,0.3,0.2,0.6,0.1,1c-0.3,1.1-0.9,1.7-2.1,1.8
		c-0.1,0-0.3,0.2-0.3,0.4c0,0.7,0,1.3,0,2c0,0.1,0.2,0.3,0.3,0.4c0.4,0.1,0.8,0.2,1.2,0.4c0.1,0,0.3,0.2,0.4,0.3
		c0.2,0.5,0.7,1.1,0.6,1.6c0,0.5-0.5,1-0.8,1.5c0,0,0,0.1,0,0.1c0,0-0.1,0.1-0.1,0.1c0.3,0.3,0.7,0.6,1,0.9c0.3,0.3,0.6,0.8,0.9,0.8
		c0.3,0,0.7-0.3,1.1-0.6c0.3-0.2,0.6-0.2,1-0.1c1.1,0.3,1.7,0.9,1.8,2.1c0,0.1,0.2,0.3,0.4,0.3c0.7,0,1.3,0,2,0
		c0.1,0,0.3-0.2,0.4-0.3c0.1-0.4,0.2-0.8,0.3-1.2c0-0.1,0.1-0.3,0.3-0.4c0.6-0.3,1.1-0.6,1.7-0.7c0.4,0,0.9,0.5,1.4,0.7c0,0,0,0,0,0
		c0.1,0,0.3,0,0.4,0c0.6-0.5,1.1-1.1,1.7-1.6c-0.3-0.5-0.6-0.9-0.8-1.4c-0.1-0.1-0.1-0.3,0-0.5c0.2-0.5,0.3-1.2,0.7-1.6
		c0.4-0.4,1.1-0.4,1.6-0.5C-385.9,123.9-385.8,123.9-385.8,123.8z"/>
	
		<linearGradient id="SVGID_00000178909839029604339840000000996717872753119674_" gradientUnits="userSpaceOnUse" x1="-405" y1="143.3841" x2="-384.1819" y2="143.3841">
		<stop  offset="0" style="stop-color:#2156A3"/>
		<stop  offset="1" style="stop-color:#012B73"/>
	</linearGradient>
	<path style="fill:url(#SVGID_00000178909839029604339840000000996717872753119674_);" d="M-405,142.6c0.2,0,0.4,0,0.6,0
		c6.5,0,13,0,19.5,0c0.2,0,0.4,0,0.7,0c0,0.6,0,1.1,0,1.6c-7,0-13.9,0-20.8,0C-405,143.7-405,143.1-405,142.6z"/>
	
		<linearGradient id="SVGID_00000116230508822673244490000002186481840673114800_" gradientUnits="userSpaceOnUse" x1="-405" y1="136.987" x2="-384.1809" y2="136.987">
		<stop  offset="0" style="stop-color:#2156A3"/>
		<stop  offset="1" style="stop-color:#012B73"/>
	</linearGradient>
	<path style="fill:url(#SVGID_00000116230508822673244490000002186481840673114800_);" d="M-405,136.2c1.5,0,3,0,4.5,0
		c5.2,0,10.4,0,15.7,0c0.2,0,0.4,0,0.6,0c0,0.5,0,1,0,1.6c-0.1,0-0.2,0-0.4,0c-6.8,0-13.5,0-20.3,0c-0.1,0-0.1,0-0.2,0
		C-405,137.2-405,136.7-405,136.2z"/>
	
		<linearGradient id="SVGID_00000164481880217342780330000014094294093012631224_" gradientUnits="userSpaceOnUse" x1="-405" y1="140.1949" x2="-395.4074" y2="140.1949">
		<stop  offset="0" style="stop-color:#2156A3"/>
		<stop  offset="1" style="stop-color:#012B73"/>
	</linearGradient>
	<path style="fill:url(#SVGID_00000164481880217342780330000014094294093012631224_);" d="M-405,139.4c0.9,0,1.8,0,2.7,0
		c2.1,0,4.2,0,6.3,0c0.2,0,0.4,0,0.6,0c0,0.5,0,1,0,1.6c-3.2,0-6.4,0-9.6,0C-405,140.5-405,139.9-405,139.4z"/>
	
		<linearGradient id="SVGID_00000072977893213540622110000009295984219912837256_" gradientUnits="userSpaceOnUse" x1="-370.4919" y1="119.0509" x2="-355.6511" y2="119.0509">
		<stop  offset="0" style="stop-color:#2156A3"/>
		<stop  offset="1" style="stop-color:#012B73"/>
	</linearGradient>
	<path style="fill:url(#SVGID_00000072977893213540622110000009295984219912837256_);" d="M-358.5,126c-0.9-0.9-1.9-1.9-2.8-2.8
		c0.3-0.3,0.7-0.7,1.2-1.2c0.2,0.3,0.5,0.6,0.8,1c0.1-2.1,0.4-4.3-0.9-6.2c-1.2-1.9-3-2.9-5.2-3c-1.5,0-3,0-4.4,0
		c-0.2,0-0.3,0-0.6,0c0-0.5,0-1,0-1.5c0,0,0.1-0.1,0.1-0.1c2.1,0,4.1-0.1,6.2,0.2c3.5,0.4,6.3,3.7,6.5,7.3c0,1,0,2,0,3.1
		c0,0.1,0,0.2,0.1,0.3c0.3-0.3,0.5-0.7,0.8-1c0.5,0.5,0.8,0.8,1.1,1.2C-356.6,124-357.6,125-358.5,126z"/>
	
		<linearGradient id="SVGID_00000178884376626011049780000001664489464753447845_" gradientUnits="userSpaceOnUse" x1="-404.6256" y1="154.9478" x2="-394.5848" y2="154.9478">
		<stop  offset="0" style="stop-color:#2156A3"/>
		<stop  offset="1" style="stop-color:#012B73"/>
	</linearGradient>
	<path style="fill:url(#SVGID_00000178884376626011049780000001664489464753447845_);" d="M-394.6,160.3c0,0.5,0,1,0,1.6
		c-0.6-0.1-1.2-0.1-1.8-0.2c-3.8-0.9-6.2-4-6.2-7.9c0-0.7,0-1.4,0-2.1c0-0.2,0-0.3,0-0.6c-0.4,0.4-0.6,0.7-0.9,1
		c-0.4-0.4-0.8-0.8-1.1-1.1c0.9-0.9,1.9-1.9,2.8-2.8c0.9,0.9,1.9,1.9,2.9,2.8c-0.3,0.3-0.7,0.7-1.1,1.1c-0.3-0.3-0.6-0.6-0.9-0.9
		c0,0-0.1,0-0.1,0.1c0.1,1.4-0.1,2.9,0.2,4.3c0.6,2.7,3,4.7,5.8,4.8C-394.8,160.2-394.7,160.2-394.6,160.3z"/>
	
		<linearGradient id="SVGID_00000127034722679631183420000012583956479100636326_" gradientUnits="userSpaceOnUse" x1="-393.7549" y1="140.1988" x2="-384.1836" y2="140.1988">
		<stop  offset="0" style="stop-color:#2156A3"/>
		<stop  offset="1" style="stop-color:#012B73"/>
	</linearGradient>
	<path style="fill:url(#SVGID_00000127034722679631183420000012583956479100636326_);" d="M-393.8,141c0-0.5,0-1,0-1.5
		c3.2,0,6.4,0,9.6,0c0,0.5,0,1,0,1.5C-387.4,141-390.5,141-393.8,141z"/>
	
		<linearGradient id="SVGID_00000169539527918380172960000010260378988114637193_" gradientUnits="userSpaceOnUse" x1="-376.9129" y1="112.9374" x2="-375.3531" y2="112.9374">
		<stop  offset="0" style="stop-color:#2156A3"/>
		<stop  offset="1" style="stop-color:#012B73"/>
	</linearGradient>
	<path style="fill:url(#SVGID_00000169539527918380172960000010260378988114637193_);" d="M-376.9,113.7c0-0.5,0-1,0-1.5
		c0.5,0,1,0,1.6,0c0,0.5,0,1,0,1.5C-375.9,113.7-376.4,113.7-376.9,113.7z"/>
	
		<linearGradient id="SVGID_00000127013173812459443400000016965449713233597361_" gradientUnits="userSpaceOnUse" x1="-373.6981" y1="112.9199" x2="-372.1425" y2="112.9199">
		<stop  offset="0" style="stop-color:#2156A3"/>
		<stop  offset="1" style="stop-color:#012B73"/>
	</linearGradient>
	<path style="fill:url(#SVGID_00000127013173812459443400000016965449713233597361_);" d="M-373.7,112.1c0.5,0,1,0,1.6,0
		c0,0.5,0,1,0,1.6c-0.5,0-1,0-1.6,0C-373.7,113.2-373.7,112.7-373.7,112.1z"/>
	
		<linearGradient id="SVGID_00000153675369775765070580000004599732653206970280_" gradientUnits="userSpaceOnUse" x1="-392.9535" y1="161.0543" x2="-391.3605" y2="161.0543">
		<stop  offset="0" style="stop-color:#2156A3"/>
		<stop  offset="1" style="stop-color:#012B73"/>
	</linearGradient>
	<path style="fill:url(#SVGID_00000153675369775765070580000004599732653206970280_);" d="M-393,160.3c0.5,0,1,0,1.6,0
		c0,0.5,0,0.9,0,1.4c0,0.1-0.1,0.2-0.2,0.2c-0.4,0-0.9,0-1.4,0C-393,161.3-393,160.8-393,160.3z"/>
	
		<linearGradient id="SVGID_00000123399900509406270110000003278538740777937590_" gradientUnits="userSpaceOnUse" x1="-389.7443" y1="161.0494" x2="-388.2064" y2="161.0494">
		<stop  offset="0" style="stop-color:#2156A3"/>
		<stop  offset="1" style="stop-color:#012B73"/>
	</linearGradient>
	<path style="fill:url(#SVGID_00000123399900509406270110000003278538740777937590_);" d="M-388.2,161.8c-0.5,0-1,0-1.5,0
		c0-0.5,0-1,0-1.6c0.5,0,1,0,1.5,0C-388.2,160.8-388.2,161.3-388.2,161.8z"/>
	
		<linearGradient id="SVGID_00000098219957034288244680000004660635461195551879_" gradientUnits="userSpaceOnUse" x1="-400.1803" y1="122.5523" x2="-388.9707" y2="122.5523">
		<stop  offset="0" style="stop-color:#2156A3"/>
		<stop  offset="1" style="stop-color:#012B73"/>
	</linearGradient>
	<path style="fill:url(#SVGID_00000098219957034288244680000004660635461195551879_);" d="M-390.1,125.9c-0.4-0.3-0.8-0.6-1.2-0.9
		c0.8-1.2,1-2.4,0.5-3.8c-0.3-0.9-0.8-1.5-1.6-2c-1.7-1-3.8-0.7-5.1,0.7c-1.3,1.5-1.4,3.7-0.2,5.2c1.1,1.4,3.4,2.2,5.6,0.7
		c0.3,0.4,0.6,0.8,0.9,1.2c-2.1,1.8-5.5,1.5-7.5-0.6c-2-2.2-2-5.7,0.2-7.8c2.2-2.1,5.6-2.2,7.8-0.1
		C-388.7,120.4-388.4,123.9-390.1,125.9z"/>
</g>
</svg>
