<svg id="Layer_1" data-name="Layer 1" xmlns="http://www.w3.org/2000/svg" xmlns:xlink="http://www.w3.org/1999/xlink" viewBox="0 0 64 64"><defs><style>.cls-1{fill:url(#linear-gradient);}.cls-2{fill:url(#linear-gradient-2);}.cls-3{fill:url(#linear-gradient-3);}.cls-4{fill:url(#linear-gradient-4);}.cls-5{fill:url(#linear-gradient-5);}.cls-6{fill:url(#linear-gradient-6);}.cls-7{fill:url(#linear-gradient-7);}.cls-8{fill:url(#linear-gradient-8);}.cls-9{fill:url(#linear-gradient-9);}.cls-10{fill:url(#linear-gradient-10);}</style><linearGradient id="linear-gradient" x1="7" y1="15.89037" x2="16.86728" y2="15.89037" gradientUnits="userSpaceOnUse"><stop offset="0" stop-color="#2156a3"/><stop offset="1" stop-color="#012b73"/></linearGradient><linearGradient id="linear-gradient-2" x1="47.13277" y1="15.87661" x2="57" y2="15.87661" xlink:href="#linear-gradient"/><linearGradient id="linear-gradient-3" x1="7" y1="48.12339" x2="16.86724" y2="48.12339" xlink:href="#linear-gradient"/><linearGradient id="linear-gradient-4" x1="47.13272" y1="48.10963" x2="57" y2="48.10963" xlink:href="#linear-gradient"/><linearGradient id="linear-gradient-5" x1="29.803" y1="11.14849" x2="34.19207" y2="11.14849" xlink:href="#linear-gradient"/><linearGradient id="linear-gradient-6" x1="7" y1="32.00246" x2="15.29697" y2="32.00246" xlink:href="#linear-gradient"/><linearGradient id="linear-gradient-7" x1="48.70303" y1="31.99753" x2="57" y2="31.99753" xlink:href="#linear-gradient"/><linearGradient id="linear-gradient-8" x1="29.80793" y1="52.85151" x2="34.197" y2="52.85151" xlink:href="#linear-gradient"/><linearGradient id="linear-gradient-9" x1="16.7179" y1="32.00135" x2="47.28718" y2="32.00135" xlink:href="#linear-gradient"/><linearGradient id="linear-gradient-10" x1="27.88208" y1="37.48768" x2="36.4075" y2="37.48768" xlink:href="#linear-gradient"/></defs><path class="cls-1" d="M7,14.12891A4.38613,4.38613,0,0,1,7.9469,12.18a3.30682,3.30682,0,0,1,2.33329-1.17247c1.52742-.0416,3.05743-.0519,4.58467-.01171a1.97141,1.97141,0,0,1,1.83962,1.37762,2.0839,2.0839,0,0,1-.437,2.26753,2.25975,2.25975,0,0,1-1.80229.70925c-.82984-.00274-1.6597-.0002-2.48955,0-.17543,0-.35087,0-.58167,0,0,1.10036.00827,2.15386-.00254,3.20715a2.15012,2.15012,0,0,1-1.17389,1.996A2.19132,2.19132,0,0,1,7.20481,19.5332c-.066-.14233-.13643-.2826-.20481-.42382Zm1.46492,2.38187c0,.6338-.00391,1.26762.00114,1.90137.00469.58793.25616.90843.70932.92108.47626.01329.75049-.31574.75292-.92576.00459-1.15381.00023-2.30766.00178-3.46148.00112-.83662.22382-1.058,1.07616-1.061,1.18631-.00415,2.37277.00741,3.55888-.00868a.742.742,0,0,0,.82511-.71145.7314.7314,0,0,0-.8-.73421c-1.34838-.01231-2.69887-.03834-4.045.02072a2.12585,2.12585,0,0,0-2.07685,2.20681C8.45442,15.27544,8.46593,15.89324,8.46492,16.51078Z"/><path class="cls-2" d="M57,19.10938c-.05067.09574-.10973.188-.15071.28775a2.1891,2.1891,0,0,1-4.23579-.74224c-.02463-.91056-.007-1.82226-.008-2.73345-.00019-.175,0-.35,0-.57192-1.05986,0-2.06525-.002-3.07063.00064a2.23908,2.23908,0,0,1-1.9565-.89782,2.07656,2.07656,0,0,1-.24719-2.16953,1.93912,1.93912,0,0,1,1.75539-1.281,38.0021,38.0021,0,0,1,4.87328.04739A3.38762,3.38762,0,0,1,56.8789,13.71c.0418.13922.0808.27928.1211.41895Zm-1.46486-2.58807c0-.55254.00183-1.10509-.00034-1.65762a2.22143,2.22143,0,0,0-2.40939-2.44024c-1.16994-.01243-2.34013-.00438-3.5102-.00062-.16139.00052-.37649-.03069-.473.05651-.20962.18946-.49478.44631-.49416.67492.00061.22844.28028.49633.49923.6686.12716.1.37554.05843.56946.05918,1.12131.00433,2.24269-.00338,3.364.00441.75154.00522.98676.24852.98878,1.00025.00305,1.13757-.00019,2.27516.00119,3.41274.00086.69935.249,1.04229.74347,1.035.48781-.0072.7196-.34639.72079-1.058Q55.53642,17.39887,55.53514,16.52131Z"/><path class="cls-3" d="M7,44.89063c.05067-.09574.10973-.188.15072-.28776a2.18909,2.18909,0,0,1,4.23578.74224c.02463.91056.007,1.82226.008,2.73346.00019.175,0,.35,0,.57191,1.05986,0,2.06526.002,3.07064-.00064a2.23905,2.23905,0,0,1,1.95649.89783,2.07656,2.07656,0,0,1,.24719,2.16953,1.93914,1.93914,0,0,1-1.7554,1.281,38.00391,38.00391,0,0,1-4.87328-.0474A3.38762,3.38762,0,0,1,7.1211,50.29c-.0418-.13921-.0808-.27927-.1211-.41894Zm5.56989,6.66244.00006.01471c.69862,0,1.40162.0444,2.09351-.02385a1.0163,1.0163,0,0,0,.66566-.51055.74573.74573,0,0,0-.18039-.68163,1.23716,1.23716,0,0,0-.75718-.22586c-1.13712-.02286-2.275-.00667-3.41254-.01133-.82138-.00336-1.04738-.23-1.04882-1.039-.00215-1.20258.00689-2.40524-.0051-3.6077a.73141.73141,0,1,0-1.4556.001c-.00978,1.33247-.02691,2.66579.009,3.99742a2.10123,2.10123,0,0,0,1.997,2.07767C11.17032,51.59335,11.87153,51.55307,12.56989,51.55307Z"/><path class="cls-4" d="M57,49.87109A4.38613,4.38613,0,0,1,56.0531,51.82a3.3068,3.3068,0,0,1-2.33328,1.17247c-1.52742.0416-3.05743.05189-4.58467.0117a1.97141,1.97141,0,0,1-1.83963-1.37761,2.08391,2.08391,0,0,1,.437-2.26753,2.25982,2.25982,0,0,1,1.80229-.70925c.82984.00274,1.6597.00021,2.48955,0,.17544-.00005.35087,0,.58168,0,0-1.10035-.00826-2.15384.00255-3.20714a2.15015,2.15015,0,0,1,1.17386-1.996,2.19134,2.19134,0,0,1,3.01273,1.02022c.066.14233.13643.2826.20481.42384ZM55.534,47.5039c0-.68255.0126-1.3654-.004-2.04753a.70858.70858,0,0,0-.83548-.77588c-.47623.07741-.62306.41465-.6235.84861q-.00177,1.73074-.0008,3.46149c-.00053.91952-.19921,1.12208-1.11049,1.12473-1.1863.00346-2.3728-.00833-3.55882.011a.72391.72391,0,1,0-.00574,1.442c1.3484.01328,2.69888.04009,4.04511-.01792a2.13381,2.13381,0,0,0,2.09268-2.2427C55.54374,48.70664,55.53476,48.10519,55.534,47.5039Z"/><path class="cls-5" d="M32.48828,7c.11067.05673.219.11873.3324.16933a2.00983,2.00983,0,0,1,1.3354,1.82017c.04357,1.44411.05343,2.89218-.00342,4.3354a2.0998,2.0998,0,0,1-1.958,1.96242,2.17991,2.17991,0,0,1-2.29124-1.5806,2.78735,2.78735,0,0,1-.09531-.7211c-.00941-1.21882-.0025-2.43774-.00514-3.65662A2.36424,2.36424,0,0,1,31.51172,7Zm.24249,4.17533c0-.6013.00933-1.20279-.00269-1.80386-.01144-.57181-.298-.90646-.7397-.89842-.426.00775-.7096.32962-.715.8729q-.01812,1.80373,0,3.60775c.00542.54383.28806.86557.714.874.44181.00878.729-.326.74083-.89729C32.74017,12.34564,32.73076,11.76039,32.73077,11.17533Z"/><path class="cls-6" d="M7,31.51172c.05673-.11067.11873-.219.16933-.33239A2.00982,2.00982,0,0,1,8.9895,29.84392c1.44411-.04357,2.89218-.05344,4.3354.00342a2.09979,2.09979,0,0,1,1.96242,1.958,2.17991,2.17991,0,0,1-1.5806,2.29124,2.78735,2.78735,0,0,1-.7211.09531c-1.21881.00941-2.43774.0025-3.65662.00514A2.36424,2.36424,0,0,1,7,32.48828Zm4.12559,1.219c.6013,0,1.2028.00934,1.80386-.00269.57175-.01144.90641-.29808.89828-.73984-.00784-.426-.32969-.70946-.873-.71491q-1.80372-.01812-3.60775,0c-.54376.00543-.86552.28819-.87389.71409-.00869.4418.32606.7289.89743.74071C9.95528,32.74017,10.54053,32.73076,11.12559,32.73077Z"/><path class="cls-7" d="M57,32.48828c-.05673.11067-.11873.219-.16933.33239a2.00982,2.00982,0,0,1-1.82017,1.33541c-1.44411.04357-2.89218.05343-4.33539-.00342a2.09979,2.09979,0,0,1-1.96243-1.958,2.17989,2.17989,0,0,1,1.5806-2.29123,2.78693,2.78693,0,0,1,.7211-.09532c1.21881-.00941,2.43774-.0025,3.65662-.00514A2.36424,2.36424,0,0,1,57,31.51172Zm-4.15167.24218c.6013,0,1.20285.01061,1.80384-.00315.54429-.01245.86587-.288.87478-.71384.00893-.42668-.31532-.733-.84782-.73908q-1.828-.02091-3.65648-.0002c-.53357.006-.85769.31005-.85039.73672.0073.42621.32889.70368.87223.71632C51.64547,32.74121,52.247,32.73042,52.84833,32.73046Z"/><path class="cls-8" d="M31.51172,57c-.11067-.05673-.219-.11872-.33239-.16932a2.00985,2.00985,0,0,1-1.33541-1.82018c-.04357-1.44411-.05344-2.89218.00342-4.33539a2.09979,2.09979,0,0,1,1.958-1.96243,2.17989,2.17989,0,0,1,2.29123,1.5806,2.78734,2.78734,0,0,1,.09532.72109c.00942,1.21882.0025,2.43774.00514,3.65662A2.36426,2.36426,0,0,1,32.48828,57Zm1.219-4.1257c0-.60131.00934-1.2028-.0027-1.80387-.01145-.57169-.29818-.90637-.74-.89816-.426.00791-.70935.32974-.7148.87315q-.0181,1.80373,0,3.60775c.00543.54371.28829.86548.7142.87378.44179.00862.72879-.32612.74059-.89755C32.74016,54.0446,32.73076,53.45935,32.73077,52.8743Z"/><path class="cls-9" d="M23.47031,40.59433c0-1.42974-.013-2.812.00338-4.19394A8.20331,8.20331,0,0,1,24.8626,31.9461c.051-.07819.08575-.16692.14509-.28447a4.748,4.748,0,0,0-4.16192-.00646c-.17693.08106-.34516.18308-.526.2532a.71531.71531,0,0,1-.685-1.24441,5.62734,5.62734,0,0,1,.58374-.35576,4.4813,4.4813,0,1,1,6.36092-6.18177c.69414-3.62174,2.7033-5.47651,5.794-5.29933a5.41579,5.41579,0,0,1,5.02,5.38017,4.53673,4.53673,0,0,1,3.44843-1.89936,4.35968,4.35968,0,0,1,3.5589,1.49329,4.47264,4.47264,0,0,1-.60719,6.47421c.444.31855.90833.608,1.32284.95668a6.21829,6.21829,0,0,1,2.15351,5.44953.67953.67953,0,0,1-.70859.71452c-.42219.01608-.67989-.257-.73723-.74172a13.70352,13.70352,0,0,0-.30276-2.30585,4.68824,4.68824,0,0,0-6.5022-2.67462.95693.95693,0,0,0,.079.20847,8.74661,8.74661,0,0,1,1.45041,5.12623c-.0159,1.18465-.003,2.36967-.003,3.59365H45.79c.00939-.18811.02149-.37579.02763-.56366.02067-.63321.2677-.94483.74579-.937.47136.00775.70842.32094.719.96237.00588.3579.00686.71609-.00023,1.07395-.01442.72793-.24322.96407-.97553.96732-1.70858.00758-3.41723.00263-5.12585.00276h-.63556c0,.7046.00282,1.3501-.00069,1.99556-.00461.8483-.22878,1.07435-1.06848,1.07464q-5.12586.00174-10.25173-.00157a1.88568,1.88568,0,0,1-.53-.05162.65908.65908,0,0,1-.5124-.73185.68113.68113,0,0,1,.6068-.66075,2.52245,2.52245,0,0,1,.48668-.01817q4.61328-.00125,9.22655-.00062h.53277a2.30213,2.30213,0,0,0,.04121-.288c-.00874-2.44057.03761-4.88306-.04443-7.32122a7.06085,7.06085,0,0,0-14.0235-.54,5.07242,5.07242,0,0,0-.06622.82593q-.01494,3.539-.01649,7.078a1.7545,1.7545,0,0,0,.04424.24892c.25526,0,.5114-.01349.76559.003a.71233.71233,0,0,1,.72677.70154.69367.69367,0,0,1-.68518.74034,13.13561,13.13561,0,0,1-1.60939.00062c-.47679-.03-.69769-.321-.70846-.87966-.01344-.69706-.00323-1.39457-.00323-2.17512h-.60327q-2.51412,0-5.02823-.00075c-.89755-.00126-1.10926-.20345-1.10619-1.08259.00652-1.871-.02254-3.74389.05763-5.61195a7.893,7.893,0,0,1,.50993-2.06484.69786.69786,0,0,1,.9661-.48157.7225.7225,0,0,1,.359,1.05564,5.88241,5.88241,0,0,0-.43006,2.42939c.0065,1.39845.00178,2.797.00178,4.24293Zm8.58914-20.31365a3.90166,3.90166,0,1,0,3.843,3.93386A3.93279,3.93279,0,0,0,32.05945,20.28068ZM19.95278,26.73321a2.96522,2.96522,0,1,0,2.97073-2.97184A2.96185,2.96185,0,0,0,19.95278,26.73321Zm21.07357,2.95756a2.96385,2.96385,0,1,0-2.90735-3.032A2.96264,2.96264,0,0,0,41.02635,29.69077Zm-15.41305.57912.02253.13714c.18625-.00957.41724.04877.55152-.03969.90067-.59332,1.78076-1.21786,2.627-1.80419l-1.468-1.55113A4.52755,4.52755,0,0,1,25.6133,30.26989Zm12.73487.1447.03709-.15588a4.53219,4.53219,0,0,1-1.74069-3.23462L35.186,28.56184c.85036.59016,1.73271,1.216,2.63421,1.813C37.94862,30.45987,38.16987,30.40481,38.34817,30.41459Z"/><path class="cls-10" d="M31.88626,39.03708c1.01718-1.46485,1.9611-2.82464,2.90574-4.18392a4.87542,4.87542,0,0,1,.31431-.43346.71811.71811,0,0,1,.99946-.15143.69876.69876,0,0,1,.19378.95466,2.61736,2.61736,0,0,1-.18277.28683q-1.65234,2.3826-3.30676,4.76376c-.50281.72227-.9051.75779-1.5276.1401-1.0268-1.01884-2.06336-2.02839-3.06653-3.07005a1.2412,1.2412,0,0,1-.33373-.79576.72516.72516,0,0,1,.46632-.52393,1.021,1.021,0,0,1,.78.213c.81247.748,1.58216,1.54268,2.36293,2.32486C31.61649,38.6871,31.71936,38.83461,31.88626,39.03708Z"/></svg>