<svg id="Layer_1" data-name="Layer 1" xmlns="http://www.w3.org/2000/svg" viewBox="0 0 66 99"><defs><style>.cls-1{fill:#012b73;}.cls-2{fill:#062c63;}.cls-3{fill:#3f434f;}.cls-4{fill:#e3e7f3;}.cls-5{fill:#042759;}.cls-6{fill:#f8607f;}.cls-7{fill:#fdd47a;}.cls-8{fill:#99d797;}.cls-9{fill:#75c875;}.cls-10{fill:#f14959;}.cls-11{fill:#6fb96f;}.cls-12{fill:#edab42;}.cls-13{fill:#f85268;}.cls-14{fill:#f7ba4b;}.cls-15{fill:#d5a95e;}.cls-16{fill:#d05669;}.cls-17{fill:#6fab73;}.cls-18{fill:#cbced9;}.cls-19{fill:#fefefe;}.cls-20{fill:#c9cfdc;}.cls-21{fill:#748bfc;}.cls-22{fill:#75c975;}.cls-23{fill:#2b5266;}.cls-24{fill:#f8607e;}.cls-25{fill:#b9c0cd;}.cls-26{fill:#bac1ce;}.cls-27{fill:#a6acba;}.cls-28{fill:#416e83;}.cls-29{fill:#fcfcfd;}.cls-30{fill:#fcfdfd;}.cls-31{fill:#fdfdfd;}.cls-32{fill:#f6f8fa;}.cls-33{fill:#f9fafb;}.cls-34{fill:#f4f7fa;}.cls-35{fill:#fbfcfc;}.cls-36{fill:#f5f8f7;}.cls-37{fill:#f4f8f7;}.cls-38{fill:#f8fafa;}.cls-39{fill:#f7f9f9;}.cls-40{fill:#fcfcfc;}.cls-41{fill:#f8f7f8;}.cls-42{fill:#f8f6f7;}.cls-43{fill:#f8f5f7;}.cls-44{fill:#f7f8f7;}.cls-45{fill:#f8f9f7;}.cls-46{fill:#f6f5f6;}.cls-47{fill:#f6f4f6;}.cls-48{fill:#f8f6f8;}.cls-49{fill:#f8f8f9;}.cls-50{fill:#7289f8;}.cls-51{fill:#f05f7e;}.cls-52{fill:#f15f7e;}.cls-53{fill:#f45f7e;}.cls-54{fill:#f6d079;}.cls-55{fill:#f4cf79;}.cls-56{fill:#f9d179;}.cls-57{fill:#71c474;}.cls-58{fill:#72c574;}.cls-59{fill:#fef9fa;}.cls-60{fill:#fef8f9;}.cls-61{fill:#fef7f9;}.cls-62{fill:#fef7f8;}.cls-63{fill:#fef6f7;}.cls-64{fill:#fef6f8;}.cls-65{fill:#fef3f5;}.cls-66{fill:#fef5f7;}.cls-67{fill:#fef4f6;}.cls-68{fill:#fef2f5;}.cls-69{fill:#fdeef1;}.cls-70{fill:#fef2f4;}.cls-71{fill:#fdecf0;}.cls-72{fill:#fdeff2;}.cls-73{fill:#fef1f3;}.cls-74{fill:#fdecef;}.cls-75{fill:#fef1f4;}</style></defs><path class="cls-1" d="M61.03284,43.40467a3.07081,3.07081,0,0,1-3.43363-.17893C55.16168,41.853,52.75144,40.432,50.32583,39.038c-.95633-.54958-1.924-1.07953-2.88648-1.61842a.49514.49514,0,0,1-.254-.07715c-.22542-.14324-.484-.22726-.70111-.38622-.06271-.064-.09034-.15483-.16264-.2117-2.83462-1.63925-5.68652-3.24962-8.49894-4.926a11.20166,11.20166,0,0,1-5.07907-7.218,2.37029,2.37029,0,0,1-.02668-.4722c-.15348-.35566.02767-.74428-.10888-1.10161l.00038-.28665c.12869-.3159-.03444-.66288.10449-.97769a2.91683,2.91683,0,0,1,1.99939-2.55384,2.25117,2.25117,0,0,1,1.58817-.077.6584.6584,0,0,0,.91541-.40486,1.89367,1.89367,0,0,1,1.3491-1.12207c.14214-.048.322.00666.42241-.15474.11917-.09037.27391-.07277.403-.13275a1.94287,1.94287,0,0,1,.62726-.03321,6.28767,6.28767,0,0,1,3.49292,1.808c.28021.27565.50355.40853.85708.11a3.37,3.37,0,0,1,1.47453-.6561,1.82472,1.82472,0,0,1,.42071-.05432c.40159-.00474.80294-.00337,1.204-.003A8.24724,8.24724,0,0,1,51.648,20.31168,18.14751,18.14751,0,0,1,58.4323,31.63283a8.33973,8.33973,0,0,0,.21216,1.47164,1.80547,1.80547,0,0,0,.45759.57919,10.91389,10.91389,0,0,1,3.19475,6.2718,12.495,12.495,0,0,1-.01012,1.31171,3.94625,3.94625,0,0,1-.56929,1.572Q61.38,43.1269,61.03284,43.40467Z"/><path class="cls-1" d="M17.753,74.79559Q13.77238,77.0743,9.7929,79.35492a1.6467,1.6467,0,0,1-1.70645.1798,1.53489,1.53489,0,0,1-.18871-1.04516Q7.89249,71.5323,7.89565,64.575a3.26532,3.26532,0,0,0-.10273-1.075,5.17724,5.17724,0,0,1-.06048-1.00979q-.002-5.43909.00072-10.87817a2.96953,2.96953,0,0,1,.0878-1.00329.38.38,0,0,1,.4486-.21866,2.92267,2.92267,0,0,0,1.84673-.567C14.1634,47.45848,18.232,45.131,22.2987,42.80019c.05894-.03378.11659-.06983.1757-.10329.84681-.4793.92333-.4366.92336.517q.00019,7.327.00244,14.654a2.0335,2.0335,0,0,0,.04436.73876c.00962,4.11693.01283,8.2339.038,12.35073a.87628.87628,0,0,1-.57383.82252q-2.02729,1.16454-4.04914,2.33853A1.79316,1.79316,0,0,1,17.753,74.79559Z"/><path class="cls-2" d="M7.94879,50.46331l.00373,13.03735a1.26683,1.26683,0,0,1,.06263.66392q.00537,7.27817-.00992,14.55629c-.00073.21533.22246.55313-.19095.67361-2.1174-1.21392-4.23069-2.43508-6.35568-3.63561-.42183-.23832-.41976-.59476-.42023-.98626-.00431-3.55371-.01688-7.10741-.0178-10.66112q-.00229-8.79312.00627-17.58623a.608.608,0,0,1,.57159.11575c1.98925,1.15014,3.9805,2.29688,5.96267,3.45916A.83479.83479,0,0,1,7.94879,50.46331Z"/><path class="cls-3" d="M28.92924,57.89483q-.00565-9.873-.00829-19.74592a1.06663,1.06663,0,0,1,.67057-1.13818c.67206-.33218,1.18657.099,1.69818.39286q2.68254,1.54092,5.361,3.08922Q46.784,46.32944,56.92985,52.14431a4.59679,4.59679,0,0,1,2.50877,2.79117,4.45041,4.45041,0,0,1,.14723,1.1392c-.00057,4.2328.06668,8.46713-.03083,12.6977-.04428,1.921-.07685,3.84257-.10973,5.764a.8286.8286,0,0,1-.20813.6899c-.31812.15294-.5666-.03069-.81884-.17691Q49.31674,69.773,40.19769,64.52681c-3.49062-2.00731-6.975-4.02569-10.47631-6.01461A1.84858,1.84858,0,0,1,28.92924,57.89483Z"/><path class="cls-1" d="M59.0964,75.20331c.213-.13575.17449-.35368.16868-.55155-.09091-3.09821.1738-6.1907.13842-9.28883-.03334-2.91982-.06543-5.842.01481-8.76a4.377,4.377,0,0,0-2.55324-4.30132c-2.97108-1.63283-5.884-3.37094-8.82494-5.05856q-6.05817-3.47639-12.12139-6.944-2.64733-1.51737-5.2891-3.04441a1.71483,1.71483,0,0,0-1.03813-.24391c.4404-.26906.906-.505,1.31551-.81464a1.6142,1.6142,0,0,1,1.99327-.00475q6.42966,3.73652,12.88251,7.43326c.17506.10083.35566.19206.53368.28776a.22655.22655,0,0,1,.16565-.03122c.23216.114.44128.26951.67794.3762a.56455.56455,0,0,1,.23169.25037q4.77567,2.77167,9.55142,5.5432c.84043.48765,1.67824.97995,2.52352,1.4591A3.57215,3.57215,0,0,1,61.389,54.7939c-.01,7.12786-.05392,14.25567-.08407,21.38351a1.154,1.154,0,0,1-.63037,1.11392,7.76168,7.76168,0,0,1-1.67124.85557C59.12588,77.16859,59.02367,76.18319,59.0964,75.20331Z"/><path class="cls-4" d="M59.0964,75.20331a3.79162,3.79162,0,0,1-.09307,2.94359.457.457,0,0,1-.2889.2927c-.2485-.17065-.5591.03625-.80793-.13239a33.14743,33.14743,0,0,1-3.67976-1.99983c-1.28953-.69733-2.53782-1.47065-3.80413-2.21076a15.68965,15.68965,0,0,1-2.56036-1.33117c-.33925-.17425-.66385-.38075-.98779-.58429-.324-.18424-.6501-.36522-.96821-.56-.08413-.04318-.1675-.0875-.25176-.13066-1.83494-1.0857-3.69566-2.127-5.52868-3.21558-.23291-.16865-.55237-.196-.73571-.44579a30.97867,30.97867,0,0,0-3.113-1.87148c-1.866-1.09162-3.756-2.14254-5.61594-3.24407a3.45485,3.45485,0,0,1-1.74623-3.05946c-.015-.58593.00839-1.17285.01436-1.75931,2.55115,1.45756,5.10624,2.90833,7.65273,4.374q11.0775,6.37573,22.15012,12.75993C58.84843,75.09577,58.97475,75.14551,59.0964,75.20331Z"/><path class="cls-1" d="M7.9488,50.46331q-2.60753-1.48755-5.21527-2.97473c-.5676-.32336-1.13772-.64233-1.70669-.96331-.1026-.40119.09914-.61882.43147-.80971q6.73139-3.86637,13.45222-7.751a1.58383,1.58383,0,0,1,1.72541-.00067q3.12967,1.83152,6.27258,3.64044a.91522.91522,0,0,1,.54419.85551q-.01254,8.07339-.00815,16.14681c-.1986-.23841-.10757-.52215-.10795-.78415q-.01064-7.26141-.00807-14.52282c-.00007-.24343,0-.48687,0-.87027-1.16778.67018-2.237,1.28268-3.30508,1.897q-3.81634,2.19486-7.63227,4.39046-1.46856.84354-2.9439,1.67535A1.62075,1.62075,0,0,1,7.9488,50.46331Z"/><path class="cls-5" d="M58.45136,33.211a17.46773,17.46773,0,0,0-2.17817-7.187,15.54834,15.54834,0,0,0-6.65482-6.72115,5.707,5.707,0,0,0-2.0581-.63444,2.94376,2.94376,0,0,0-1.36486-.00052l-.40613.012c-.27939-.01355-.13232-.16542-.06216-.243a1.92449,1.92449,0,0,1,1.13936-.54438,4.9223,4.9223,0,0,1,5.07236-.47151,14.22615,14.22615,0,0,1,6.4239,5.73,17.44486,17.44486,0,0,1,2.75879,7.12652c.06164.42208.045.85554.06454,1.28374.00482.0217.02044.04852.0129.06435A5.15544,5.15544,0,0,1,58.45136,33.211Z"/><path class="cls-1" d="M46.88335,72.07628a30.67729,30.67729,0,0,1,3.53926,2.02034c-.10224.58721.158,1.2024-.13748,1.77471a.43379.43379,0,0,0-.37767.10383,3.42139,3.42139,0,0,1-2.525.58045A18.36451,18.36451,0,0,1,36.5884,71.47426a3.30832,3.30832,0,0,1-.65889-.8573c-.08237-.16239-.14974-.10205-.23361-.016a3.47018,3.47018,0,0,1-.04057-1.06379,1.40065,1.40065,0,0,1,1.14036-1.44624,9.52885,9.52885,0,0,1,2.5944-.26173,1.74682,1.74682,0,0,1,.79835.29862,2.43762,2.43762,0,0,1,.1756,1.7132,1.62,1.62,0,0,0,1.04687,1.75093q2.21691,1.18239,4.34948,2.5189c.06345.13344.12834.16623.19633.00191a1.26917,1.26917,0,0,0,.75235-1.41769A.64165.64165,0,0,1,46.88335,72.07628Z"/><path class="cls-5" d="M58.45136,33.211A10.74544,10.74544,0,0,0,61.186,31.56117a11.20455,11.20455,0,0,1,3.57937,5.60945,6.81093,6.81093,0,0,1,.19112,2.54342,2.80869,2.80869,0,0,1-1.51013,2.3359c-.57827.30019-1.1391.63384-1.70777.95246-.15528.061-.18412-.01852-.16673-.14943a7.75284,7.75284,0,0,0,.553-1.49911,3.49952,3.49952,0,0,0-.00018-1.48773,10.82858,10.82858,0,0,0-2.32028-5.15758C59.381,34.187,58.90394,33.7089,58.45136,33.211Z"/><path class="cls-1" d="M17.753,74.79559a4.09215,4.09215,0,0,1,1.10657-.67721,17.3688,17.3688,0,0,0,2.639,1.61843c2.04011,1.20731,4.11649,2.35361,6.15469,3.564a.781.781,0,0,0,.92112-.08228q3.95643-2.29018,7.90389-4.5957a6.87781,6.87781,0,0,0,1.69661-1.07922.99089.99089,0,0,1,1.081.69769c-1.64895.97888-3.29372,1.96487-4.948,2.93476-1.81326,1.06312-3.64374,2.09724-5.44814,3.175a1.271,1.271,0,0,1-1.5176.054c-3.12594-1.8614-6.29069-3.65786-9.44092-5.47867A.97869.97869,0,0,1,17.753,74.79559Z"/><path class="cls-5" d="M46.86648,17.89245c-.32164.3134-.88413.29851-1.07717.78729a4.633,4.633,0,0,0-1.63967.88735c-.28286.26769-.40184-.01225-.53648-.15281A6.51161,6.51161,0,0,0,40.07165,17.447a.76544.76544,0,0,0-.67814.00019l-.40619.00278a8.00851,8.00851,0,0,1,3.07114-1.613,4.89137,4.89137,0,0,1,3.8931,1.41391C46.24049,17.48244,46.41854,17.88407,46.86648,17.89245Z"/><path class="cls-6" d="M33.03212,80.35742c1.00487-.7562,2.1489-1.2838,3.20918-1.94878a.364.364,0,0,1,.43455.00414c1.06155.66332,2.21183,1.18,3.21619,1.938a22.2481,22.2481,0,0,1-3.31915,2.00573.8062.8062,0,0,1-.19785.02284A12.011,12.011,0,0,1,33.03212,80.35742Z"/><path class="cls-7" d="M12.88943,80.35107A34.254,34.254,0,0,1,16.10291,78.384a.28739.28739,0,0,1,.31409.00365,34.76415,34.76415,0,0,1,3.35634,1.95727,26.80708,26.80708,0,0,1-3.33915,2.003.73487.73487,0,0,1-.1984.01044A15.08708,15.08708,0,0,1,12.88943,80.35107Z"/><path class="cls-8" d="M24.58314,72.882c.99916-.76588,2.1527-1.27758,3.21129-1.94542a.31962.31962,0,0,1,.37274-.00711,38.0252,38.0252,0,0,1,3.28394,1.95765,19.63749,19.63749,0,0,1-3.32186,1.9979.7807.7807,0,0,1-.19837.00186A15.89671,15.89671,0,0,1,24.58314,72.882Z"/><path class="cls-3" d="M39.25588,74.24133a4.29982,4.29982,0,0,0-1.08106-.69769,10.44068,10.44068,0,0,1-2.02924-1.7746,1.69659,1.69659,0,0,1-.44967-1.16814l.06838-.47026a14.08067,14.08067,0,0,0,6.32428,4.7948A17.06305,17.06305,0,0,0,47.131,76.36588a3.3267,3.3267,0,0,0,2.85815-.686c.35437-.33649.25574.03736.296.19147-.21437.87986-.9175,1.11645-1.679,1.205a12.10975,12.10975,0,0,1-5.60106-.99476A28.02359,28.02359,0,0,1,39.25588,74.24133Z"/><path class="cls-9" d="M24.58314,72.882,27.961,74.784a.70769.70769,0,0,1-.004.93284c-1.08815-.49689-2.07817-1.16861-3.12174-1.7449C24.3438,73.70053,24.61433,73.25739,24.58314,72.882Z"/><path class="cls-10" d="M36.53457,82.25025c1.11392-.64237,2.18228-1.365,3.35748-1.89941.19172.64939-.0793,1.02757-.66724,1.32072-.86192.42977-1.68669.93374-2.52729,1.4061C36.16287,82.89609,36.36286,82.57039,36.53457,82.25025Z"/><path class="cls-11" d="M28.09571,74.78376c1.12226-.62556,2.18155-1.36211,3.35544-1.89661a1.01194,1.01194,0,0,1-.66234,1.324c-.86524.41806-1.687.92586-2.52726,1.39533C27.79622,75.41456,28.08215,75.07181,28.09571,74.78376Z"/><path class="cls-12" d="M16.39465,82.24485A30.43059,30.43059,0,0,1,19.77337,80.345a1.05456,1.05456,0,0,1-.69514,1.3219c-.86881.41757-1.691.93179-2.53306,1.40475C16.02218,82.88178,16.22175,82.56089,16.39465,82.24485Z"/><path class="cls-13" d="M33.03212,80.35742c1.13207.61337,2.19045,1.35745,3.36734,1.89133.00609.28653.295.62794-.16066.8249-1.00069-.55856-2.00707-1.10732-2.99945-1.68022C32.80434,81.14229,33.03447,80.71717,33.03212,80.35742Z"/><path class="cls-14" d="M12.88943,80.35107l3.36625,1.89872c.00891.27889.27459.6014-.13794.80868-.97691-.55013-1.94718-1.11255-2.93355-1.64525C12.69019,81.14644,12.88714,80.73185,12.88943,80.35107Z"/><path class="cls-5" d="M38.56492,17.60468a3.33671,3.33671,0,0,0-1.4007,1.57779c-.08291.19891-.20131.372-.458.24965a4.92046,4.92046,0,0,0-1.99389-.22351,20.7944,20.7944,0,0,1,2.412-1.428A2.28587,2.28587,0,0,1,38.56492,17.60468Z"/><path class="cls-1" d="M7.81428,79.39448c.23673-.22286.13262-.51206.133-.7705q.00985-7.56165.00528-15.12332c.22189.20078.13129.46647.13151.70393q.00694,7.66506.00243,15.33012A.28634.28634,0,0,1,7.81428,79.39448Z"/><path class="cls-1" d="M47.39177,44.50771l-.27447-.13054c-.1026-2.19992-.04076-4.40062-.028-6.601a.62982.62982,0,0,1,.19558-.48722q.07707.06542.15429.13076Q47.41565,40.96365,47.39177,44.50771Z"/><path class="cls-1" d="M46.45122,43.97852l-.13473-.06615q.00258-3.58391.00512-7.16781l.1565.10712a1.37392,1.37392,0,0,1,.21267.9027c.00323,1.78045.00672,3.56092-.003,5.34134A1.05645,1.05645,0,0,1,46.45122,43.97852Z"/><path class="cls-15" d="M16.11774,83.05848c.25261-.23449.0911-.53932.13792-.80873l.13893-.00489c.03754.27788-.12595.59221.15054.82678C16.39686,83.25613,16.2553,83.22209,16.11774,83.05848Z"/><path class="cls-16" d="M36.2388,83.07365c.28331-.23042.10954-.54949.16064-.82493q.06762-.00255.13512.00148c.04653.27738-.12492.59747.16294.82746C36.543,83.26345,36.39017,83.25029,36.2388,83.07365Z"/><path class="cls-17" d="M28.09571,74.78376c.04678.27592-.1232.59536.16581.82267a.24264.24264,0,0,1-.30448.11042q.00194-.46654.00394-.933A.806.806,0,0,1,28.09571,74.78376Z"/><path class="cls-18" d="M57.9065,78.30721c.26918.04515.5717-.11232.808.13241C58.44492,78.39669,58.14154,78.55964,57.9065,78.30721Z"/><path class="cls-19" d="M52.05246,30.97131c-.53246-.29859-.91047-.49323-1.27025-.71708-.37609-.234-.50024-.15413-.495.29.01511,1.28887-.01564,2.57839.00842,3.867.00988.52917-.10081.63994-.58177.351q-1.68724-1.01364-3.411-1.96617a.6833.6833,0,0,1-.36813-.715c.01489-1.24368-.028-2.48929.02757-3.73074a1.20071,1.20071,0,0,0-.75343-1.318c-1.03086-.51323-1.01856-.5721-.182-1.39241,1.04652-1.02623,2.11407-2.0311,3.1862-3.05826Z"/><path class="cls-1" d="M46.45122,43.97852q.01338-3.56322.02683-7.12663a1.888,1.888,0,0,1,.80685.437c.0005,2.11174.00414,4.22344-.00255,6.33512-.00081.2568.09709.54793-.165.75306A1.51175,1.51175,0,0,1,46.45122,43.97852Z"/><path class="cls-20" d="M21.83543,62.64627c0,.83017-.00959,1.54784.00493,2.265a.54068.54068,0,0,1-.34132.52258q-5.71139,3.28347-11.41389,6.58232c-.442.25614-.50559.12133-.51352-.3237C9.536,69.69274,9.531,69.70314,11.2844,68.70022q5.04033-2.883,10.0691-5.78608C21.46954,62.84744,21.58744,62.784,21.83543,62.64627Z"/><path class="cls-21" d="M21.83466,55.47167c.244.76051-.21877,1.20886-.986,1.64048-3.6058,2.0285-7.17911,4.11465-10.75742,6.19154-.44163.25633-.50876.12067-.51758-.32321-.03961-1.994-.04359-1.983,1.70709-2.98668q4.97214-2.85059,9.93258-5.72149c.16929-.09747.34354-.3176.53578-.19955.18459.11335.0692.37334.08209.56777C21.84612,54.86558,21.83466,55.09238,21.83466,55.47167Z"/><path class="cls-22" d="M9.5824,66.396c-.337-.94611.4077-1.31867,1.20824-1.76951,3.53018-1.98808,7.036-4.01951,10.53788-6.057.4442-.25845.50352-.17239.51364.29.04365,1.99544.04732,1.98385-1.7099,2.98979q-4.92079,2.817-9.82918,5.65558c-.20567.11827-.41288.40729-.64273.23787-.11915-.08784-.06406-.41931-.076-.64134C9.57468,66.9208,9.5824,66.73926,9.5824,66.396Z"/><path class="cls-6" d="M9.57943,54.84228c0-.84952.005-1.58961-.0028-2.32957-.00265-.25034.15833-.34841.34074-.45345q5.70818-3.28712,11.41127-6.58293c.43393-.25136.50724-.1318.51473.32126.03314,2.00285.03809,1.99115-1.7129,2.99337q-5.06832,2.901-10.12375,5.82433C9.91053,54.67065,9.8107,54.71972,9.57943,54.84228Z"/><path class="cls-7" d="M21.8348,49.67015c0,.76239-.0058,1.50057.00355,2.23856a.44462.44462,0,0,1-.2853.41455q-5.9112,3.39423-11.82234,6.78854c-.01433.00822-.04179-.00634-.151-.02641,0-.736.00412-1.491-.00254-2.2459-.002-.22315.14391-.31087.30392-.40295q5.84989-3.36617,11.70046-6.73117A.89162.89162,0,0,1,21.8348,49.67015Z"/><path class="cls-6" d="M9.57926,76.65073c0-.84659.00789-1.58438-.00439-2.32184a.49339.49339,0,0,1,.32128-.46435q5.85486-3.36123,11.70846-6.72467a1.2682,1.2682,0,0,1,.22519-.05486c0,.79571.02234,1.57024-.01011,2.34247-.01463.3481-.39642.40925-.63538.54756q-5.05049,2.92311-10.1147,5.82255C10.60483,76.06469,10.13917,76.33027,9.57926,76.65073Z"/><path class="cls-23" d="M7.13571,62.01935c-.05163.40767.22288,1.14742-.10853,1.32993-.41239.22711-.87524-.38183-1.31657-.62662-1.04729-.58088-2.07149-1.20491-3.13348-1.757a1.21163,1.21163,0,0,1-.763-1.334c.0573-.58282.0127-1.17567.01205-1.7641-.00035-.31582-.01631-.55324.43523-.2862C3.681,58.42086,5.12405,59.221,6.562,60.02943a.93745.93745,0,0,1,.58131,1.02645A7.24172,7.24172,0,0,0,7.13571,62.01935Z"/><path class="cls-23" d="M1.82642,71.86531c-.00009-.38391.01356-.76846-.004-1.15158-.017-.37078.14269-.37109.40025-.22342q2.31762,1.32885,4.637,2.65464a.56181.56181,0,0,1,.27717.56765c-.004.74524-.01242,1.49072.00291,2.23566.00827.4013-.12785.49251-.47418.29263Q4.41039,74.9393,2.15431,73.63924a.6423.6423,0,0,1-.33079-.62226C1.83546,72.63343,1.82652,72.24923,1.82642,71.86531Z"/><path class="cls-23" d="M1.82712,52.51346c.00086-.38469-.00279-.76943.002-1.15406.00383-.30746.12989-.42375.42615-.25389,1.4895.854,2.98334,1.70057,4.46572,2.56669a.78072.78072,0,0,1,.41987.726c-.018.72369-.01383,1.44826-.00249,2.17221.0062.39561-.16787.41892-.45533.25375Q4.4209,55.52424,2.161,54.22044a.68633.68633,0,0,1-.33819-.68883C1.83782,53.19284,1.82627,52.85289,1.82712,52.51346Z"/><path class="cls-23" d="M1.82629,65.42773c-.00007-.3165.02153-.6348-.00468-.94912-.05058-.60683.2022-.57647.61644-.33427q2.133,1.24712,4.27761,2.4745a.73339.73339,0,0,1,.42391.70647q-.02052,1.05084-.0011,2.10233c.01025.541-.25141.49152-.592.29543-1.44718-.8332-2.889-1.67575-4.343-2.497a.63776.63776,0,0,1-.38091-.64555C1.8383,66.19685,1.82636,65.81205,1.82629,65.42773Z"/><path class="cls-24" d="M58.27016,73.23846c-1.22808-.70446-2.28321-1.307-3.33584-1.91395q-12.2439-7.05945-24.49287-14.11013a.84371.84371,0,0,1-.44069-.8797q.01674-8.72622.01469-17.45249c.00047-.74031.00976-.75061.67506-.36755q10.71717,6.17067,21.43088,12.34729,2.38434,1.37386,4.77006,2.74533a2.62581,2.62581,0,0,1,1.41232,2.4505q-.02421,6.96058-.03329,13.92121C58.26833,71.01036,58.27016,72.04177,58.27016,73.23846Z"/><path class="cls-20" d="M45.78893,74.23746Q43.112,72.72375,40.43346,71.213c-.252-.14144-.22559-.35955-.22695-.58344q-.00755-1.25092-.01806-2.50182,2.8071,1.63272,5.61423,3.26542A4.70884,4.70884,0,0,1,45.78893,74.23746Z"/><path class="cls-25" d="M46.88335,72.07628a4.79142,4.79142,0,0,0,.01163.74284,1.12442,1.12442,0,0,1-.96963,1.41251,11.1957,11.1957,0,0,1,.00483-2.72365A2.658,2.658,0,0,1,46.88335,72.07628Z"/><path class="cls-26" d="M44.83929,68.75764c.00481.28761-.02238.55748-.40066.57362-.39045.01667-.93956-.64775-.96179-1.15732-.01394-.3196.03081-.60229.44764-.59446C44.35716,67.58761,44.82509,68.19559,44.83929,68.75764Z"/><path class="cls-27" d="M45.93018,71.508l-.00483,2.72365c-.0418.088-.08664.10458-.13642.00582q.00676-1.42224.01363-2.84439Z"/><path class="cls-28" d="M8.578,48.69432a2.37157,2.37157,0,0,1-.3466-.13759c-1.17616-.67306-2.34826-1.35319-3.52393-2.02712-.3642-.20877-.318-.37944.01812-.5718Q8.37177,43.8711,12.01248,41.775q1.58518-.91224,3.16212-1.83874a.90228.90228,0,0,1,1.05714-.09252c1.09659.67316,2.22189,1.29967,3.33431,1.94724.39293.22874.6222.36772.00982.714-3.40072,1.923-6.77176,3.89822-10.15555,5.85109A1.88416,1.88416,0,0,1,8.578,48.69432Z"/><path class="cls-19" d="M21.06961,64.05752c.15259.38883.07494.6029-.20955.76546-1.64187.93815-3.27987,1.88306-4.93706,2.836-.12163-.32341-.12506-.57446.16556-.74174C17.72925,65.97278,19.3719,65.03172,21.06961,64.05752Z"/><path class="cls-29" d="M12.28618,69.46959c-.108.27123-.2.58831-.563.65764-.173.033-.23482-.11235-.21937-.25862a.74307.74307,0,0,1,.5239-.63137C12.175,69.18184,12.28436,69.27254,12.28618,69.46959Z"/><path class="cls-30" d="M14.88152,67.98076c-.14444.29523-.22818.633-.61392.65088-.1699.00787-.20719-.16711-.17456-.3a.73021.73021,0,0,1,.56411-.59293C14.83376,67.70224,14.8669,67.85287,14.88152,67.98076Z"/><path class="cls-30" d="M13.36234,68.43535c.21546.05455.17093.23347.159.37647a.505.505,0,0,1-.44353.50445c-.22643.03043-.23652-.16372-.21289-.3207A.63136.63136,0,0,1,13.36234,68.43535Z"/><path class="cls-31" d="M10.48479,70.82217c-.23135-.03807-.23347-.2023-.20133-.35616.05783-.27689.20257-.525.51152-.51779.21341.005.15216.24106.13722.379A.54021.54021,0,0,1,10.48479,70.82217Z"/><path class="cls-30" d="M21.19273,55.2217c.08671.39134.11485.66425-.242.8679-1.66544.95043-3.32316,1.91433-5.05965,2.91732-.03542-.34853-.17386-.63022.16015-.82349C17.74743,57.20194,19.44711,56.22644,21.19273,55.2217Z"/><path class="cls-32" d="M11.73544,61.454c-.25007-.019-.26165-.18476-.24686-.34136a.68919.68919,0,0,1,.54721-.6722c.23062-.04561.29365.17488.25816.36314A.77948.77948,0,0,1,11.73544,61.454Z"/><path class="cls-33" d="M14.888,59.32082a.75052.75052,0,0,1-.58365.6288c-.2187.0342-.25089-.16408-.22407-.32556.05486-.33031.20426-.615.571-.66311C14.8567,58.934,14.89056,59.11856,14.888,59.32082Z"/><path class="cls-34" d="M13.56571,60.02127a.69637.69637,0,0,1-.55992.68455c-.18941.03222-.2641-.1763-.23445-.33158.06054-.31707.19149-.61716.56344-.66519C13.56509,59.67931,13.54124,59.88761,13.56571,60.02127Z"/><path class="cls-35" d="M10.6876,61.20173c.23941-.02648.282.11453.28.28561a.63452.63452,0,0,1-.45229.66031.21863.21863,0,0,1-.30659-.23777A.7252.7252,0,0,1,10.6876,61.20173Z"/><path class="cls-30" d="M15.9109,63.3526a.69321.69321,0,0,1,.361-.95515c1.46139-.80941,2.89647-1.666,4.35179-2.48664.164-.09247.38257-.39832.56986-.12436.16777.24539.04216.512-.24165.67418C19.2881,61.4115,17.62711,62.36731,15.9109,63.3526Z"/><path class="cls-36" d="M13.30105,64.0473c.26534.015.27133.18215.26182.33777a.68585.68585,0,0,1-.53592.68122c-.21984.0491-.30457-.16178-.26029-.3571A.7969.7969,0,0,1,13.30105,64.0473Z"/><path class="cls-37" d="M10.76291,65.53781c.26491.05526.2301.25741.20119.42724a.619.619,0,0,1-.5574.58691c-.21723.01073-.25743-.22658-.20454-.41342A.71816.71816,0,0,1,10.76291,65.53781Z"/><path class="cls-38" d="M14.89432,63.63611a.75424.75424,0,0,1-.59648.6717c-.16736.02945-.2313-.11207-.22258-.25743a.71059.71059,0,0,1,.54995-.73448C14.82987,63.2685,14.88163,63.43411,14.89432,63.63611Z"/><path class="cls-39" d="M12.30769,65.1283c-.07639.31413-.216.611-.60231.67341-.16994.02746-.22612-.12034-.21763-.26361a.70826.70826,0,0,1,.55419-.73251C12.24575,64.75993,12.294,64.9323,12.30769,65.1283Z"/><path class="cls-40" d="M15.88174,50.30484c-.01748-.36114-.16217-.654.17937-.85118,1.69364-.9776,3.38715-1.95542,5.13542-2.96475.0704.37069.15768.65647-.17.84626C19.33229,48.31628,17.63559,49.29307,15.88174,50.30484Z"/><path class="cls-41" d="M12.30949,52.08118c-.08856.32307-.2373.61607-.59529.6576-.26332.03055-.24971-.2193-.22385-.39232a.69391.69391,0,0,1,.53709-.62668C12.2742,51.66868,12.29393,51.89439,12.30949,52.08118Z"/><path class="cls-41" d="M14.89511,50.55481a.78462.78462,0,0,1-.54013.69112c-.19825.06653-.28853-.08592-.28512-.27026a.71894.71894,0,0,1,.55908-.74978C14.83032,50.175,14.87865,50.3663,14.89511,50.55481Z"/><path class="cls-42" d="M13.33822,50.97972a.25307.25307,0,0,1,.24924.33016c-.05909.32292-.19126.612-.55581.66168-.22817.03112-.32349-.13626-.26653-.34622C12.8488,51.31692,12.988,51.04285,13.33822,50.97972Z"/><path class="cls-43" d="M10.48282,53.46926c-.20619-.00237-.325-.1112-.3013-.29244a.71911.71911,0,0,1,.542-.69505c.18864-.041.30045.09133.27869.2829A.74033.74033,0,0,1,10.48282,53.46926Z"/><path class="cls-30" d="M15.91559,54.64306a.69363.69363,0,0,1,.37125-.96333c1.6335-.91276,3.24545-1.864,4.8893-2.815.15028.4053.12383.66732-.22411.86673C19.286,52.68637,17.62641,53.65255,15.91559,54.64306Z"/><path class="cls-44" d="M11.77361,57.0952c-.241.016-.28645-.12524-.28711-.29638a.71663.71663,0,0,1,.50713-.71262c.22009-.077.31662.12592.30435.3233A.7976.7976,0,0,1,11.77361,57.0952Z"/><path class="cls-44" d="M14.35242,55.60358c-.24451.00733-.28282-.13925-.27941-.308a.71311.71311,0,0,1,.51786-.70405c.22037-.06917.3107.13782.29418.33511A.79585.79585,0,0,1,14.35242,55.60358Z"/><path class="cls-45" d="M12.75732,56.00432c.10074-.29445.20455-.60431.586-.64905a.2097.2097,0,0,1,.2409.25331c-.03955.33041-.15413.63152-.52865.69694C12.87455,56.33714,12.76935,56.20411,12.75732,56.00432Z"/><path class="cls-40" d="M10.51976,57.80272c-.22729-.00734-.3613-.10465-.33208-.29094a.70731.70731,0,0,1,.50842-.65206c.216-.05306.2653.1116.26644.2882A.661.661,0,0,1,10.51976,57.80272Z"/><path class="cls-40" d="M15.91925,72.06956a.70251.70251,0,0,1,.39911-.9882c1.45671-.81387,2.893-1.664,4.34612-2.48445.15973-.09019.38134-.40323.556-.08668.13856.25106.01112.51332-.27258.67472-1.078.61324-2.149,1.23869-3.2241,1.85711C17.13993,71.378,16.55312,71.70887,15.91925,72.06956Z"/><path class="cls-46" d="M13.61327,73.06c-.08323.33693-.20774.6573-.59327.73327-.19531.03849-.29133-.1455-.26757-.30417a.76327.76327,0,0,1,.58417-.73266C13.53142,72.7182,13.59521,72.88769,13.61327,73.06Z"/><path class="cls-47" d="M10.73579,74.23344a.29322.29322,0,0,1,.26047.40015c-.0669.31959-.21776.61147-.57623.64684-.22564.02226-.28682-.19489-.24142-.38167A.82708.82708,0,0,1,10.73579,74.23344Z"/><path class="cls-48" d="M12.30347,73.87651c-.07314.27964-.17793.57782-.55288.63711-.20882.033-.28337-.11166-.26519-.291.03681-.36305.1926-.65938.58722-.71152C12.27585,73.48425,12.30823,73.67169,12.30347,73.87651Z"/><path class="cls-49" d="M14.6303,72.03288c.2674.03211.293.20932.2463.39164-.08015.31283-.22384.60236-.60443.59854-.19975-.002-.22694-.19-.19565-.35155C14.13887,72.34951,14.28114,72.08834,14.6303,72.03288Z"/><path class="cls-50" d="M3.34479,59.81518c-.00451.31671-.04139.59611-.34461.53163A1.00031,1.00031,0,0,1,2.251,59.413c-.03558-.22952.07882-.42806.32833-.40954C3.11222,59.043,3.228,59.47554,3.34479,59.81518Z"/><path class="cls-50" d="M3.98158,60.43176c.00451-.25463.01525-.4595.30636-.46813.33022-.00978.81136.57807.79352.97449-.01037.23022-.105.4283-.36066.37866A.92642.92642,0,0,1,3.98158,60.43176Z"/><path class="cls-50" d="M6.74736,61.81483c-.00487.26138-.00856.46821-.29991.4804-.33332.01394-.80891-.56058-.79318-.96529.00878-.22585.09892-.43935.35007-.38841A.96024.96024,0,0,1,6.74736,61.81483Z"/><path class="cls-51" d="M3.34953,72.94352c-.00523.2139-.03767.41643-.30775.43571-.31552.02252-.7884-.56358-.79887-.97611-.00576-.2266.06178-.40965.31693-.43219C2.89158,71.94164,3.35046,72.51676,3.34953,72.94352Z"/><path class="cls-52" d="M6.753,74.8383c-.01.24424.00469.4616-.28864.486-.33146.0276-.81473-.54384-.80956-.96087.00284-.229.08592-.43769.34236-.40306C6.51185,74.02991,6.66091,74.438,6.753,74.8383Z"/><path class="cls-53" d="M3.97909,73.4629c.00117-.26014.01069-.46442.30133-.47722.3325-.01464.81394.563.80076.96793-.00735.22575-.0941.44869-.34726.39125A.989.989,0,0,1,3.97909,73.4629Z"/><path class="cls-54" d="M4.28035,53.32658a1.15791,1.15791,0,0,1,.802,1.02187c-.01843.23055-.1167.38479-.37475.37167-.34788-.0177-.76523-.596-.735-1.01013C3.98907,53.48361,4.06349,53.31644,4.28035,53.32658Z"/><path class="cls-55" d="M5.968,54.29985c.35629.00064.8027.59156.78914,1.004-.00727.221-.06127.41145-.33055.41322-.31434.00207-.78444-.6164-.77383-1.00407C5.659,54.48507,5.7471,54.32506,5.968,54.29985Z"/><path class="cls-56" d="M3.35108,53.321c-.00293.21456-.03277.407-.31466.41218-.328.00606-.79143-.55654-.79209-.96305-.00036-.22617.07025-.3982.32929-.4135C2.90684,52.337,3.35252,52.89342,3.35108,53.321Z"/><path class="cls-57" d="M3.984,66.88536c.0151-.26054.035-.53841.35424-.46708.483.10791.64916.52811.73564.95533.04924.24325-.07822.50912-.35872.42889A.97408.97408,0,0,1,3.984,66.88536Z"/><path class="cls-58" d="M6.74553,68.29371c-.01269.24637.00762.46638-.28395.49277-.32252.02918-.81783-.55492-.80915-.954.005-.23225.10164-.4222.35059-.39784C6.53393,67.48657,6.65674,67.90464,6.74553,68.29371Z"/><path class="cls-58" d="M3.34325,66.32371c-.01785.23309.01986.46157-.27292.48727-.31618.02775-.80554-.52834-.82385-.93816-.01117-.24995.07675-.50568.3565-.43526A.97618.97618,0,0,1,3.34325,66.32371Z"/><path class="cls-59" d="M54.2477,58.59245,40.29232,50.54586l.15088-.259L54.396,58.32942Z"/><path class="cls-59" d="M40.36069,47.44118,53.3625,54.94374l-.10109.17137C52.20826,54.809,40.53105,47.94151,40.36069,47.44118Z"/><path class="cls-59" d="M52.12227,67.10871c-1.41114-.62021-11.45758-6.51136-11.6859-7.033L52.255,66.89082Z"/><path class="cls-60" d="M40.44707,51.68734l11.76728,6.79411-.15.25281c-3.92662-2.26843-7.87206-4.505-11.78015-6.80484Z"/><path class="cls-60" d="M40.44845,54.48624l10.85777,6.26383-.15182.25883L40.29683,54.74475Z"/><path class="cls-60" d="M51.01741,63.73364l-10.74563-6.205.15216-.25731,10.75417,6.2058Z"/><path class="cls-60" d="M49.83658,51.86105l-9.547-5.50983.15336-.26233,9.56275,5.51389Z"/><path class="cls-60" d="M40.42619,58.66881l9.36646,5.407-.15162.25756-9.37675-5.40926Z"/><path class="cls-60" d="M49.62627,67.12941l-9.35992-5.4046.151-.25684L49.788,66.87276Z"/><path class="cls-61" d="M40.433,53.07656l9.33566,5.3916-.15144.25683-9.34307-5.39215Z"/><path class="cls-61" d="M40.44112,55.87729l8.2521,4.76538-.1531.2611-8.26148-4.76525Z"/><path class="cls-62" d="M40.35329,48.833l8.19709,4.73483C47.8033,53.62805,40.53927,49.35555,40.35329,48.833Z"/><path class="cls-62" d="M30.9003,44.71949l6.81137,3.92724-.15262.26084L30.75137,44.974Z"/><path class="cls-63" d="M36.65239,45.59292,30.73293,42.1733l.15241-.258,5.9279,3.42228Z"/><path class="cls-64" d="M32.55121,51.26242l5.51067,3.18091-.1542.26132L32.3804,51.52458Z"/><path class="cls-64" d="M54.53028,64.35615l-5.46142-3.14822.14559-.255c1.84431,1.01709,3.65878,2.08684,5.47763,3.14887Z"/><path class="cls-65" d="M35.45347,57.49023l-4.765-2.75433.149-.25619,4.78367,2.75085Z"/><path class="cls-66" d="M30.89234,46.125c1.54572.89293,3.11434,1.749,4.63155,2.68781l-.14975.24368-4.64117-2.693Z"/><path class="cls-67" d="M33.81647,49.20063l4.44489,2.5641-.15323.26057L33.6672,49.45468Z"/><path class="cls-67" d="M50.50534,58.88209,54.961,61.45458l-.15568.26048-4.46621-2.57683Z"/><path class="cls-65" d="M50.3755,67.19505l4.15967,2.42377-.136.22473c-1.41405-.76437-2.81487-1.551-4.17251-2.41026Z"/><path class="cls-67" d="M37.72333,60.12284c-1.18958-.46311-3.85342-2.10559-4.10162-2.64164l4.22874,2.4457Z"/><path class="cls-65" d="M37.30251,57.16326l-3.91788-2.27419.15242-.25467,3.94041,2.268Z"/><path class="cls-65" d="M53.98959,66.8472l-3.92466-2.28493.15053-.25011,3.92914,2.27506Z"/><path class="cls-65" d="M30.84959,48.919c1.29663.69126,2.57346,1.41592,3.81236,2.20451l-.13778.23582L30.71653,49.156Z"/><path class="cls-68" d="M34.3883,54.09282l-3.71693-2.17109.15315-.24973,3.73157,2.15893Z"/><path class="cls-69" d="M51.98826,55.75634A9.60688,9.60688,0,0,1,49.23355,54.095,9.14332,9.14332,0,0,1,51.98826,55.75634Z"/><path class="cls-70" d="M35.31472,45.99647a5.20238,5.20238,0,0,1-2.728-1.7A20.50678,20.50678,0,0,1,35.31472,45.99647Z"/><path class="cls-65" d="M33.23422,42.09688a7.44646,7.44646,0,0,1-2.40051-1.47946A6.9846,6.9846,0,0,1,33.23422,42.09688Z"/><path class="cls-71" d="M30.7522,53.15781a6.89012,6.89012,0,0,1,2.31053,1.41657A6.63143,6.63143,0,0,1,30.7522,53.15781Z"/><path class="cls-72" d="M32.91848,49.04117a18.95409,18.95409,0,0,1-2.21918-1.36271l.13321-.206,2.2519,1.33015Z"/><path class="cls-73" d="M32.89887,57.42523l-2.23229-1.31712.14283-.23669,2.26494,1.295Z"/><path class="cls-74" d="M31.89827,51.20322a.733.733,0,0,1-.22859-.08386c-.29483-.24659-.77133-.25161-.91681-.68761-.00556-.01665.11349-.10878.13745-.09609a2.92843,2.92843,0,0,1,1.10949.72451Z"/><path class="cls-75" d="M30.83458,43.39521c.33691.163.79335.17364.98111.72638C31.34561,43.942,30.97941,43.8241,30.83458,43.39521Z"/></svg>