<svg id="Layer_1" data-name="Layer 1" xmlns="http://www.w3.org/2000/svg" xmlns:xlink="http://www.w3.org/1999/xlink" viewBox="0 0 66 99"><defs><style>.cls-1{fill:#012b73;}.cls-2{fill:#c7deff;}.cls-3{fill:#fff;}.cls-4{fill:url(#linear-gradient);}.cls-5{fill:#5182bc;}.cls-6{fill:url(#linear-gradient-2);}</style><linearGradient id="linear-gradient" x1="13.90481" y1="51.4422" x2="52.11434" y2="51.4422" gradientUnits="userSpaceOnUse"><stop offset="0" stop-color="#2156a3"/><stop offset="1" stop-color="#012b73"/></linearGradient><linearGradient id="linear-gradient-2" x1="28.8726" y1="42.1622" x2="37.13691" y2="42.1622" xlink:href="#linear-gradient"/></defs><path class="cls-1" d="M53.33367,67.28346A5.56285,5.56285,0,0,1,57.268,63.78953a5.429,5.429,0,0,1,6.44761,3.78378c.06281.222.025.48446.21833.66532v1.933c-.17605.07753-.1763.25681-.22127.40275a5.41756,5.41756,0,0,1-10.16255.73594c-.068-.144-.14109-.28568-.21182-.42844a1.8979,1.8979,0,0,1-.42229-1.34637A3.19138,3.19138,0,0,1,53.33367,67.28346Z"/><path class="cls-1" d="M63.934,26.79966c-.17566.08454-.15434.27211-.19945.41468a5.43966,5.43966,0,0,1-10.25594.64325c-.03353-.07273-.06471-.14654-.097-.21985a1.49128,1.49128,0,0,1-.438-1.14085A3.40819,3.40819,0,0,1,53.31505,24.02a5.55761,5.55761,0,0,1,3.78417-3.49006,5.41946,5.41946,0,0,1,6.61957,3.73766c.06.2.01447.44738.21518.5991Z"/><path class="cls-2" d="M55.24685,45.522c2.13061.0008,4.2623.042,6.3914-.0143a2.17244,2.17244,0,0,1,2.29572,1.347v.96651a2.43213,2.43213,0,0,1-2.56342,1.34394c-2.2823-.05446-4.56684-.01482-6.85046-.01406a.48582.48582,0,0,1-.08334-.50231c.19407-.893.37891-1.78778.53812-2.68781A.55906.55906,0,0,1,55.24685,45.522Z"/><path class="cls-3" d="M55.24685,45.522l-.72677,3.6291-1.45787,4.95111a10.01226,10.01226,0,0,1-.88935,2.58748,1.94818,1.94818,0,0,1-.57621,1.02854,52.87931,52.87931,0,0,1-4.40707,7.66829c-.4193.58895-.8422,1.17533-1.26345,1.7629a4.83463,4.83463,0,0,1-1.11391,1.592c-.48421.62825-1.05426,1.189-1.55162,1.8096a1.2161,1.2161,0,0,1-.48739.33182A59.96615,59.96615,0,0,1,35.93349,76.984c-.59716.44436-1.20055.88051-1.80583,1.31379a1.5058,1.5058,0,0,1-1.12191.34559.78453.78453,0,0,1-.17556-.50354c.00028-1.1059-.06251-2.21259.03651-3.31641a1.49662,1.49662,0,0,1,.70263-.79526,41.43724,41.43724,0,0,0,5.11641-4.40967,46.36942,46.36942,0,0,0,7.587-9.88168,44.12414,44.12414,0,0,0,5.3952-16.10054,35.97611,35.97611,0,0,0,.28163-5.17579.7951.7951,0,0,0-.63457-.86981c-2.52527-.829-5.02558-1.73108-7.45659-2.8076a45.13706,45.13706,0,0,1-10.42724-6.02,1.368,1.368,0,0,1-.56111-.68973,36.75018,36.75018,0,0,1-.03176-3.71061c.00531-.31677.09319-.62349.54162-.47916a1.18722,1.18722,0,0,1,.84029.424,27.1154,27.1154,0,0,0,7.66635,5.361,8.31207,8.31207,0,0,0,1.63066.76184,5.88251,5.88251,0,0,1,1.89276.74417,5.77369,5.77369,0,0,1,1.7221.83922,62.22627,62.22627,0,0,0,6.621,2.38593c1.58266.50509,1.90671.9083,1.96978,2.582a41.48664,41.48664,0,0,1-.46144,8.18A2.9271,2.9271,0,0,0,55.24685,45.522Z"/><path class="cls-3" d="M33.01372,74.64659l-.008,3.99677a1.6891,1.6891,0,0,1-1.22-.41991,54.47579,54.47579,0,0,1-7.59671-6.40911c-.30908-.31467-.62817-.6195-.94262-.92889-.46023-.13981-.64358-.57626-.94019-.88831-.71346-.75062-1.356-1.56259-2.007-2.36706a1.333,1.333,0,0,1-.21387-.48039,54.50869,54.50869,0,0,1-5.66627-9.4283,2.1154,2.1154,0,0,1-.59788-1.08572,8.8663,8.8663,0,0,1-.8654-2.53254L11.4952,49.15122a1.33273,1.33273,0,0,1-.3081-.70134c-.16272-.75982-.323-1.52035-.44983-2.28707a.82452.82452,0,0,1,.03288-.63865,49.68833,49.68833,0,0,1-.4952-5.76171c.00315-1.0664.001-2.13351.03941-3.19894a1.94347,1.94347,0,0,1,1.60273-2.04674,71.09305,71.09305,0,0,0,6.97033-2.49322.68823.68823,0,0,1,.3836-.27733c.94749-.39478,1.87855-.82717,2.82268-1.22958a.67019.67019,0,0,1,.40752-.08041,29.67065,29.67065,0,0,0,9.12317-5.9503,1.6185,1.6185,0,0,1,1.75567-.60228c-.386-.00863-.37537.2523-.37368.52758.0078,1.27692.00756,2.55389.01019,3.83084l-.01828.09079a11.67689,11.67689,0,0,1-2.19915,1.77189,52.32927,52.32927,0,0,1-10.03336,5.264c-1.97468.81027-3.973,1.55991-6.00915,2.20074a.84834.84834,0,0,0-.69062.94718A42.31835,42.31835,0,0,0,17.88741,56.139a43.56053,43.56053,0,0,0,7.09773,11.02733A49.20654,49.20654,0,0,0,32.242,73.87468a2.28332,2.28332,0,0,1,.75462.68065Z"/><path class="cls-1" d="M12.68317,70.88463a5.69671,5.69671,0,0,1-2.97923,3.16649,5.4296,5.4296,0,1,1,2.789-7.13967c.05422.128.1285.24745.19345.37088a3.39619,3.39619,0,0,1,.39409,2.4324A1.65973,1.65973,0,0,1,12.68317,70.88463Z"/><path class="cls-1" d="M12.62815,27.6442a5.4669,5.4669,0,0,1-8.03687,2.70811A5.49478,5.49478,0,0,1,2.256,24.418a5.39289,5.39289,0,0,1,4.97836-4.04192,5.42364,5.42364,0,0,1,5.47,3.64708A3.69058,3.69058,0,0,1,12.62815,27.6442Z"/><path class="cls-2" d="M12.62815,27.6442a5.8927,5.8927,0,0,0,.07621-3.621q4.004-.00162,8.008-.00212A1.71247,1.71247,0,0,1,22.495,25.79957c.01507,1.54542.00539,3.09108.00626,4.63665a26.20076,26.20076,0,0,1-3.6138,1.58729c-.00424-1.26829-.02647-2.537-.00309-3.80476.00828-.44881-.12415-.58964-.57906-.58412C16.41313,27.65761,14.52056,27.64424,12.62815,27.6442Z"/><path class="cls-2" d="M47.13207,32.01381a24.82407,24.82407,0,0,1-3.61485-1.58339c.00061-1.505-.00272-3.01.00312-4.515a1.74455,1.74455,0,0,1,1.90923-1.89879q3.94271-.00092,7.88545.00334a5.94924,5.94924,0,0,0,.06668,3.61786c-1.8902.00079-3.78045.01516-5.67027-.00716-.45439-.00536-.58649.13458-.578.58289C47.15736,29.47987,47.13574,30.747,47.13207,32.01381Z"/><path class="cls-2" d="M12.68317,70.88463a6.37879,6.37879,0,0,0,.00337-3.60234c2.239-.00341,4.47824-.00411,6.71739-.0145.22881-.00107.48447.09081.68143-.11812q1.58052,1.86792,3.16106,3.7358Q17.96481,70.885,12.68317,70.88463Z"/><path class="cls-2" d="M42.77321,70.88284l3.153-3.7335c.19765.20759.4533.117.68259.11808,2.24155.01079,4.48316.012,6.72483.016a6.25646,6.25646,0,0,0,.00465,3.59848Q48.05581,70.88236,42.77321,70.88284Z"/><path class="cls-2" d="M10.77015,45.52416l.72506,3.62706c-2.49629-.00049-4.9926.00655-7.48881-.00575a1.85215,1.85215,0,0,1-1.7697-1.13284A1.6431,1.6431,0,0,1,2.47723,46.207a1.73434,1.73434,0,0,1,1.46843-.68378C6.22048,45.52852,8.49532,45.52461,10.77015,45.52416Z"/><path class="cls-2" d="M12.95582,54.10313q.73164,1.80914,1.46327,3.61826c-2.08661.002-4.17324.00917-6.25984.004a1.88488,1.88488,0,0,1-1.9564-1.79132A1.794,1.794,0,0,1,8.14056,54.0975C9.74532,54.12136,11.35071,54.10317,12.95582,54.10313Z"/><path class="cls-2" d="M51.59665,57.71821l1.46556-3.616c1.61061,0,3.22123-.003,4.83184.00108a1.80311,1.80311,0,0,1,1.93016,1.80012,1.91434,1.91434,0,0,1-1.94631,1.82039C55.78417,57.73006,53.6904,57.721,51.59665,57.71821Z"/><path class="cls-3" d="M58.54106,67.27228a1.81036,1.81036,0,0,1,1.76851,1.83084,1.87937,1.87937,0,0,1-1.87971,1.79242,1.90034,1.90034,0,0,1-1.74355-1.8788A1.80392,1.80392,0,0,1,58.54106,67.27228Z"/><path class="cls-3" d="M58.48889,24.01638a1.75724,1.75724,0,1,1-1.80267,1.76537A1.74018,1.74018,0,0,1,58.48889,24.01638Z"/><path class="cls-4" d="M51.59666,37.52222a85.91025,85.91025,0,0,1-8.59-3.3,43.60287,43.60287,0,0,1-9.99-5.98l-.02.02a.6002.6002,0,0,0-.11.06,43.05451,43.05451,0,0,1-10.11,6.02,82.76539,82.76539,0,0,1-8.32,3.17.65344.65344,0,0,0-.55.77c.07,1.16.01,2.32.11,3.49a43.70647,43.70647,0,0,0,5.28,17.55,44.86479,44.86479,0,0,0,7.1,9.6,48.47463,48.47463,0,0,0,6.6,5.7l.02.02a52.87731,52.87731,0,0,0,6.92-6.12,45.92873,45.92873,0,0,0,4.83-6.05,43.88205,43.88205,0,0,0,5.48-11.55005,40.58,40.58,0,0,0,1.86-12.66C52.09666,37.86218,52.00663,37.65222,51.59666,37.52222Zm-8.75,20.25a5.27973,5.27973,0,0,1-.26,1.72,3.08072,3.08072,0,0,1-3.05,2.04c-1.91.02-3.82,0-5.72.01-.29,0-.6-.05-.82.18a.36915.36915,0,0,0-.06-.07,1.668,1.668,0,0,0-.88-.11c-1.86-.01-3.71,0-5.56-.01a3.10193,3.10193,0,0,1-2.86-1.59,3.76012,3.76012,0,0,1-.46-1.85q-.045-4.83-.01-9.66a3.4721,3.4721,0,0,1,1.85-3.23,1.07571,1.07571,0,0,0,.24-.18c.31-.44.17-.94.17-1.41a7.58109,7.58109,0,0,1,6.33-7.36,5.71718,5.71718,0,0,0,1.18-.21l.06-.06a.87549.87549,0,0,0,.57.17,7.62026,7.62026,0,0,1,7.02,7.65c0,.41-.12.85.18,1.22a3.77268,3.77268,0,0,1,2.09,3.65C42.84666,51.70221,42.86661,54.74219,42.84666,57.77222Z"/><path class="cls-3" d="M9.331,69.09742a1.8826,1.8826,0,0,1-1.814,1.79786,1.89431,1.89431,0,0,1-1.8093-1.81239,1.81169,1.81169,0,1,1,3.62333.01453Z"/><path class="cls-3" d="M7.53694,27.53045a1.75859,1.75859,0,1,1-.03535-3.5154,1.75859,1.75859,0,1,1,.03535,3.5154Z"/><path class="cls-3" d="M40.74069,44.89369a12.71613,12.71613,0,0,0-2.96089-.1708c-.21752-.0057-.43477-.02152-.65215-.03268-.243-.24954-.16821-.56679-.1709-.86079A3.93217,3.93217,0,0,0,33.766,39.84111c-.29965-.07083-.66386-.01222-.86-.35114a17.59435,17.59435,0,0,1-.06144-3.11986.54546.54546,0,0,1,.16845-.3764l-.00979-.027a7.73681,7.73681,0,0,1,7.67312,6.64639A12.29873,12.29873,0,0,1,40.74069,44.89369Z"/><path class="cls-5" d="M42.99662,48.32221a3.39492,3.39492,0,0,0-2.26-3.43.82954.82954,0,0,0-.62-.29,18.26177,18.26177,0,0,0-3.05-.1c-1.13-.04-2.27-.01-3.41-.01a.95193.95193,0,0,0-.67.18c0,.01-.00995.01-.00995.02a.20309.20309,0,0,0-.12-.12,34.68188,34.68188,0,0,0-3.95-.07,17.5522,17.5522,0,0,0-2.99.1c-.24.04-.48.06-.63.3a3.44077,3.44077,0,0,0-2.29,3.47c-.00995,3.26-.02,6.52.01,9.78a3.29643,3.29643,0,0,0,3.07,3.54c2.31.07,4.62,0,6.94,0l-.01.04c2.09-.01,4.18-.01,6.27-.02,2.34,0,3.7-1.28,3.72-3.62C43.02665,54.83222,43.00663,51.58222,42.99662,48.32221Zm-8.35,5.86a1.57871,1.57871,0,0,1-1.17,1.51,1.00306,1.00306,0,0,0-.49005.22.20686.20686,0,0,0-.04-.06,1.26317,1.26317,0,0,0-.26-.13,1.741,1.741,0,0,1-1.33-1.96v-1.26a1.67118,1.67118,0,0,1,1.18-1.7c.17-.07.37994-.09.46-.3a1.00667,1.00667,0,0,0,.33.2,1.73373,1.73373,0,0,1,1.32,1.55A15.543,15.543,0,0,1,34.64664,54.18219Z"/><path class="cls-3" d="M28.89431,44.6832c-.87055.01721-1.74165.02139-2.61137.05824a8.37954,8.37954,0,0,0-.9941.15756,7.89078,7.89078,0,0,1,2.56748-6.944A7.41143,7.41143,0,0,1,33.013,35.9937q-.00268,1.79364-.00534,3.58727c-.01856.02549-.03712.051-.05542.07677a5.18006,5.18006,0,0,1-.98959.25185,3.958,3.958,0,0,0-2.9061,3.78941C29.05259,44.03118,29.15235,44.38941,28.89431,44.6832Z"/><path class="cls-3" d="M33.37937,50.59169a1.72418,1.72418,0,0,1,1.4398,1.73884c.00751.54344.00283,1.08707.0012,1.6306a1.80056,1.80056,0,0,1-1.815,1.97189l.00738-.03471a.726.726,0,0,1-.19019-.55429c-.01492-1.40519-.02743-2.81068.0081-4.21547C32.83851,50.817,32.86248,50.427,33.37937,50.59169Z"/><path class="cls-3" d="M33.37937,50.59169c-.39462-.01825-.37325.25136-.37243.52239q.00727,2.39211.00582,4.78424a1.7859,1.7859,0,0,1-1.81413-1.83346c-.00911-.38074-.002-.76186-.00205-1.14281,0-1.58646.31029-2.00538,1.81021-2.44434C33.13505,50.50236,33.27943,50.47439,33.37937,50.59169Z"/><path class="cls-6" d="M37.12662,44.6922c-1.37.01-2.75.03-4.12.05l-.01-.06h-4.1a4.61141,4.61141,0,0,1,.96-3.6,3.87661,3.87661,0,0,1,3.15-1.45v-.05a4.1756,4.1756,0,0,1,4.05,3.31A9.01384,9.01384,0,0,1,37.12662,44.6922Z"/></svg>