<svg id="Layer_1" data-name="Layer 1" xmlns="http://www.w3.org/2000/svg" viewBox="0 0 66 99"><defs><style>.cls-1{fill:#65b8fe;}.cls-2{fill:#5b5e8a;}.cls-3{fill:#012b73;}.cls-4{fill:#062a5e;}.cls-5{fill:#e73d62;}.cls-6{fill:#feae92;}.cls-7{fill:#aa604b;}.cls-8{fill:#3e7ffe;}.cls-9{fill:#ed8678;}.cls-10{fill:#c6754f;}.cls-11{fill:#312e4b;}.cls-12{fill:#dddcfe;}.cls-13{fill:#8b4f4f;}.cls-14{fill:#cd2955;}.cls-15{fill:#feae93;}.cls-16{fill:#c5c5f6;}.cls-17{fill:#ed8879;}.cls-18{fill:#fdaf93;}.cls-19{fill:#fdae93;}.cls-20{fill:#5baafe;}.cls-21{fill:#ce2955;}.cls-22{fill:#ed8778;}.cls-23{fill:#35304c;}.cls-24{fill:#f59883;}</style></defs><path class="cls-1" d="M55.76349,63.54884a22.53653,22.53653,0,0,1,4.3073.26792,7.76546,7.76546,0,0,1,5.89094,7.236c.0768,3.62206.00939,7.247.03733,10.87041.00536.69567-.43438.53532-.80412.53548q-14.03283.00582-28.06564.00436c-1.847.00056-3.69408.02393-5.54108.02-.23781-.0005-.524.136-.71684-.13876a1.19634,1.19634,0,0,1,.87487-.21021c1.01855-.00551,2.03713-.001,3.0557-.00238,1.11469-.00147,1.11759-.002,1.11818-1.09048.00181-3.34-.00714-6.68.0029-10.0199A7.98833,7.98833,0,0,1,42.27916,63.543a3.25978,3.25978,0,0,1,.49636-.02962,2.736,2.736,0,0,0,.89273-.12019c1.29984-.11425,2.602-.04459,3.90281-.05152,2.36672-.01261,4.73356-.00635,7.10034-.001A1.62873,1.62873,0,0,1,55.76349,63.54884Z"/><path class="cls-2" d="M49.064,34.86257c.95479.67454,2.13172.48746,3.18.81518a10.41508,10.41508,0,0,1,3.1971,1.48,6.38545,6.38545,0,0,1,2.30324,4.47676,30.38483,30.38483,0,0,1,.33307,3.17235,9.18221,9.18221,0,0,1-.47964,5.27606c-.38713.96237-.63185,1.97392-1.05635,2.92592a12.16526,12.16526,0,0,1-3.09288,4.2749,6.50388,6.50388,0,0,1-5.17508,1.75187.34229.34229,0,0,1-.36765-.2697c.22523-.29788.5126-.111.77755-.09952.09378.01495-.0126-.1284.00738-.03572.00494.02291-.01588.032-.06174.02342a7.60645,7.60645,0,0,1-4.79142-3.40392A18.39545,18.39545,0,0,1,40.923,47.39786a28.35977,28.35977,0,0,1-.28743-5.23669,6.0126,6.0126,0,0,1,3.94879-5.38245,11.14157,11.14157,0,0,0,2.326-1.0431A5.96355,5.96355,0,0,1,49.064,34.86257Z"/><path class="cls-3" d="M27.32274,49.21239c2.39877.50448,4.88367.77959,7.09038,1.89272a8.43183,8.43183,0,0,1,4.85452,7.54354c.07949,1.62937.02552,3.26526.032,4.89819a.48016.48016,0,0,1-.43078.202,10.62749,10.62749,0,0,0-3.05386.48528c-2.152-.05159-4.30414-.01234-6.45622-.01537a.59693.59693,0,0,0-.68625.69239c.00315.189.006.37889-.00247.56752-.023.51586.231.71984.7303.71669.78057-.00492,1.56138-.00564,2.342.00276a1.58087,1.58087,0,0,1,.762.12585c.238.23237.06151.45188-.063.62392a8.35042,8.35042,0,0,0-1.37958,5.50336c.01789.40246.12715.86077-.27576,1.1813a1.57852,1.57852,0,0,1-.69153.11494q-4.06141.01-8.12286-.00025a2.11515,2.11515,0,0,1-.55847-.061c-.38254-.11479-.38834-.4388-.39247-.74773-.01328-.99476-.00006-1.98974-.0058-2.98451a2.07189,2.07189,0,0,1,.63594-1.31115c2.205-2.755,4.43321-5.4912,6.64688-8.23917.86857-1.0782.7694-.83977.12917-1.94257-.26162-.45065-.54412-.88933-.79623-1.3453-.34523-.62439-.25292-.8006.44273-.83472.49665-.02436.99515-.01882,1.492-.00377.478.01447.58664-.15982.39871-.59725-.89715-2.08828-1.74052-4.19963-2.68956-6.26608A.19345.19345,0,0,1,27.32274,49.21239Z"/><path class="cls-4" d="M27.33042,49.35165c.43068.29164.48134.79548.66329,1.21954.76448,1.78173,1.49984,3.576,2.2696,5.3554.17728.40979.12368.54384-.33775.53005-.77969-.02329-1.56058-.0064-2.4734-.0064.5386.91037,1.004,1.7485,1.52371,2.55153a.62582.62582,0,0,1-.03266.90638c-2.50868,3.07533-4.98043,6.18076-7.47692,9.2661a1.225,1.225,0,0,0-.28026.84225c.00682,1.16125-.00136,2.32259-.00389,3.48389a.78708.78708,0,0,1-.93331.11092c-.28146-.22711-.23175-.55271-.23656-.85355-.01214-.75824-.02857-1.51779.0035-2.27479a2.21528,2.21528,0,0,0-.54779-1.55873Q16.05649,64.6888,12.63306,60.463c-.76692-.95119-.76259-.94959-.14957-1.968.31768-.52779.6387-1.05373.94456-1.58861a.27512.27512,0,0,0,.02077-.193A5.297,5.297,0,0,0,12.02,56.655c-1.26577-.01843-1.35492-.15685-.87519-1.29626q.97927-2.32587,1.95943-4.65137c.05255-.12493.14879-.24974.07368-.40126a8.87342,8.87342,0,0,0-7.9446,7.27628,6.0346,6.0346,0,0,0-.05522,1.06324Q5.177,65.57777,5.1706,72.50992c-.001.40165.14536.87584-.33588,1.15231a8.17841,8.17841,0,0,1-2.189.06222c-.3264-.01484-.58224-.12346-.57978-.54911.02883-4.98593-.03916-9.97212.03833-14.958A8.86882,8.86882,0,0,1,8.905,50.35083c1.50927-.37281,3.025-.71941,4.53568-1.08662a1.47967,1.47967,0,0,1,.63041-.028.92354.92354,0,0,1,.35.59281c.8213,2.6765,1.71207,5.3308,2.55272,8.00109.72936,2.49514,1.561,4.95791,2.35558,7.43238.36966,1.588,1.11258,3.06338,1.399,4.67653.02447.0902.09543-.05807.01439-.00884-.02953.01793-.03381-.00275-.04441-.05571a1.30982,1.30982,0,0,1,.11748-.69111c.44284-1.29927.8502-2.60977,1.24579-3.92421q1.19863-3.70943,2.36338-7.42933,1.18911-3.90208,2.47618-7.77289C26.9888,49.79279,27.04411,49.4992,27.33042,49.35165Z"/><path class="cls-5" d="M36.23032,16.6101a1.46862,1.46862,0,0,1,.89731-.11036q7.13692.00609,14.27384.02557c1.67406.00407,2.39573.71291,2.398,2.35974q.00591,4.261-.00031,8.522c-.00282,1.61427-.72422,2.3336-2.33453,2.33517-3.12474.003-6.24953.00878-9.37418-.0081a1.38152,1.38152,0,0,0-1.06967.41692c-.57259.56445-1.18452,1.0891-1.78245,1.62767-.23294.20982-.46938.40918-.81891.23443-.35339-.17669-.31761-.48766-.29193-.798a3.5071,3.5071,0,0,0,.09915-1.467,2.31876,2.31876,0,0,1-1.452-2.35844c-.00166-2.81912-.01106-5.63828.00544-8.45733a2.36253,2.36253,0,0,1,.96285-2.12064C37.25506,16.79921,36.70792,17.00779,36.23032,16.6101Z"/><path class="cls-6" d="M29.46158,41.96273a.83174.83174,0,0,0-.64416.74537,7.85661,7.85661,0,0,1-3.32761,5.16006,1.24863,1.24863,0,0,0-.18995.2064,4.80782,4.80782,0,0,1-3.36754,1.25692,3.29562,3.29562,0,0,0-.56711-.10408,8.24753,8.24753,0,0,1-6.35281-8.18393c.045-2.38962.00578-4.78077.0111-7.17121a1.76532,1.76532,0,0,1,.15364-1.0358c.32987-.23278.6327-.03457.93871.06444A24.01955,24.01955,0,0,0,24.0114,34.346a9.35466,9.35466,0,0,0,4.15423-1.02782c.24887-.12856.5052-.4055.81561-.09259a30.88575,30.88575,0,0,1,.10965,3.87859c.04564,1.22467.01766,2.45245.00571,3.67868A1.6539,1.6539,0,0,0,29.46158,41.96273Z"/><path class="cls-7" d="M28.87072,33.15759c-3.17031,1.925-6.52707,1.54886-9.9.76489-1.26154-.29322-2.49556-.70491-3.74212-1.06259-.18569.00208-.20889-.12881-.22121-.26923.00514-2.81827-.0456-5.63677.02469-8.4549a9.03852,9.03852,0,0,1,6.94943-.34689,4.59522,4.59522,0,0,1,.92559.34883,5.56374,5.56374,0,0,0,3.84738.70224,3.47675,3.47675,0,0,1,3.8259,3.41422c.07661.916.07606,1.83848.11055,2.758-.05142.11736-.03715.25134-.0927.368a5.0377,5.0377,0,0,1-1.5369,1.78653A.2038.2038,0,0,1,28.87072,33.15759Z"/><path class="cls-8" d="M30.81941,73.53873c.02371-1.08892-.0327-2.187.09087-3.2645a7.69667,7.69667,0,0,1,1.667-3.85863,4.575,4.575,0,0,1,3.24325-2.3159,8.03968,8.03968,0,0,1,3.47916-.55282q.68789.003,1.37578.00615a2.942,2.942,0,0,1,2.06845-.07112.1524.1524,0,0,1,.062.22287,7.09947,7.09947,0,0,0-4.55886,2.31678A7.97251,7.97251,0,0,0,36.105,72.047c.07807,3.19526.00691,6.39395.03152,9.59093.0043.55943-.1512.73774-.71843.72351-1.51475-.038-3.031-.01563-4.54669-.01721q-.0291-2.49357-.0582-4.98725A8.71552,8.71552,0,0,1,30.81941,73.53873Z"/><path class="cls-9" d="M15.07163,32.71878l.157.141c-.00147,2.67524.05976,5.35227-.01939,8.02514a8.10685,8.10685,0,0,0,6.26849,8.1795c-.39211.41548-.8548.13146-1.28208.18772a7.42607,7.42607,0,0,0,1.71263-.04751,7.95161,7.95161,0,0,0,3.39165-1.13014l.05.55255a.69789.69789,0,0,1,.07364.68573,1.38445,1.38445,0,0,1-.78856.5665,9.91814,9.91814,0,0,1-3.866.79548,2.01963,2.01963,0,0,0-1.10251.1932,1.40551,1.40551,0,0,0-.24045,2.24917,4.44646,4.44646,0,0,0,1.42134.92145c.20881.08355.54055.09522.4725.47521a2.52737,2.52737,0,0,1-1.99187-.11225,4.86181,4.86181,0,0,1-2.8625-5.92192c.13567-.35777-.04563-.54662-.32483-.75505a7.86086,7.86086,0,0,1-3.17144-5.26283.47744.47744,0,0,0-.48288-.47586,2.799,2.799,0,0,1-1.62691-4.71661.94079.94079,0,0,0,.24336-.77548q.01053-2.664.0288-5.3279c.44383.15169.30079.54457.307.83854.02617,1.23138.00041,2.46367.01921,3.69527.00377.2466-.14551.664.27585.67373.39809.00918.82107-.13042.84935-.665.03631-.6863.00683-1.37368.01556-2.06053a12.732,12.732,0,0,1,.02855-1.349c.03807-.3196.17443-.58338.54668-.464A4.1701,4.1701,0,0,1,15.07163,32.71878Z"/><path class="cls-10" d="M30.81941,73.53873q-.00307,1.90915-.0062,3.81828L15.783,77.33844a1.72132,1.72132,0,0,1-1.5702-1.49131,2.10857,2.10857,0,0,1,.95982-2.20623,2.1669,2.1669,0,0,1,.65005-.28346c1.26453-.11445,2.53072-.04306,3.796-.04528a.92181.92181,0,0,1,.59174.19027q.48593-.00095.97177-.002Q26.00074,73.51953,30.81941,73.53873Z"/><path class="cls-7" d="M15.65616,73.544c-1.31863.82657-1.65475,1.81125-1.02592,2.92451.26435.468.73935.61953,1.15281.8699-4.66038.00757-9.32077.02446-13.98111.01475A1.88749,1.88749,0,0,1,.00941,75.65738a1.84576,1.84576,0,0,1,1.48314-2.09217c.53534-.06861.5155-.3013.515-.67669q-.00871-6.70739.00042-13.4148A3.19659,3.19659,0,0,1,2.1044,58.2164q.00634,7.1676.01448,14.33327c.00179,1.09861-.11575.9656.99818.97174.61475.00339,1.2296-.012,1.84441-.01894a1.27536,1.27536,0,0,1,.81106-.20707q4.51341-.01023,9.0268.00211A1.01355,1.01355,0,0,1,15.65616,73.544Z"/><path class="cls-11" d="M49.064,34.86257c-1.53705.65338-2.89359,1.68672-4.53185,2.13017-2.15195.58249-3.61312,3.11673-3.69811,4.92594A23.81582,23.81582,0,0,0,42.6605,52.77582c1.24817,2.8423,3.119,5.03723,6.46983,5.92718l-1.208.05845a.66733.66733,0,0,1-.60127.12412A7.66189,7.66189,0,0,1,43.757,57.26815a1.79859,1.79859,0,0,1-.3619-.51952,14.7503,14.7503,0,0,1-3.61049-6.54279,1.37749,1.37749,0,0,1-.38691-.74386c-.273-1.08107-.443-2.18046-.61213-3.28132-.07047-.45866.16322-.88184.08345-1.33112a11.19,11.19,0,0,1,.38479-4.419,5.3828,5.3828,0,0,1,3.66913-3.54942,12.522,12.522,0,0,0,2.67216-1.28623A5.33244,5.33244,0,0,1,49.064,34.86257Z"/><path class="cls-12" d="M16.46552,48.47966c.13941.79548.00158,1.59978.12639,2.4052a4.37614,4.37614,0,0,0,4.737,3.56416,1.04063,1.04063,0,0,1,.56261-.2743,4.24826,4.24826,0,0,0,3.23334-4.007,2.02453,2.02453,0,0,1,.17093-.82261l.05411-.718c.70151.04723,1.28783.4827,1.97289.58522a.18477.18477,0,0,0,.00765.13931l-2.7525,8.52414c-.29374.19663-.52947.0174-.75495-.13348-.4798-.32108-.9421-.66723-1.39051-1.03111a5.63777,5.63777,0,0,1-1.045-.72964.87289.87289,0,0,0-1.39677.02006,6.69874,6.69874,0,0,1-1.04747.72739c-.426.3756-.9101.67182-1.36827,1.003-.2242.162-.46409.34863-.76669.14534-.93513-2.87316-1.91508-5.73212-2.73717-8.64111.1571-.34327.48676-.18376.73733-.2472A9.6029,9.6029,0,0,0,16.46552,48.47966Z"/><path class="cls-12" d="M55.76349,63.54884q-5.5938.01005-11.18759.02091c-.35377.00076-.70751.013-1.06127.02a.467.467,0,0,1-.46643-.02752,2.785,2.785,0,0,1,2.17955-3.75578c2.288-.04416,4.57552-.01538,6.863-.01652a1.07516,1.07516,0,0,1,.80076.20642c2.10345.06706,2.86087.85788,2.865,2.99048C55.75689,63.17415,55.76108,63.36149,55.76349,63.54884Z"/><path class="cls-13" d="M15.07163,32.71878l-2.25322-.82217c0,1.27515-.0306,2.47449.01356,3.67108.02054.55662-.11549.82417-.69591.96147-.922.21811-.91052.26685-.91055-.71149,0-1.32289.0039-2.64581-.00372-3.96866-.00132-.22863.07537-.47442-.09023-.6835a9.4304,9.4304,0,0,1,.20038-3.09152,6.30018,6.30018,0,0,1,3.70016-3.9382c.22051.13645.193.35868.19308.5687q.0014,3.74886,0,7.49772C15.22516,32.3884,15.25231,32.58518,15.07163,32.71878Z"/><path class="cls-14" d="M36.23032,16.6101h1.88207a2.98058,2.98058,0,0,0-1.13429,2.84846c.02114,2.57826.02606,5.157-.00241,7.73515a2.3675,2.3675,0,0,0,1.31042,2.43794c.00615.003-.0007.046-.01074.06557a.24137.24137,0,0,1-.04871.051c-.47275.0072-.94585.0296-1.41818.01871a1.956,1.956,0,0,1-2.15082-2.16318c-.02529-1.77412-.00686-3.54886-.00669-5.32334.00011-1.20663-.01932-2.41373.00787-3.61977A1.90852,1.90852,0,0,1,36.23032,16.6101Z"/><path class="cls-15" d="M52.89149,59.99631l-7.789.00626c-.36153-.16833-.79055.22455-1.129-.13576q-.2893-1.55921-.57854-3.11829a7.73881,7.73881,0,0,0,4.52722,2.01287,7.052,7.052,0,0,0,5.05525-1.17952c.15835-.09726.31416-.19866.47109-.29811Q53.16994,58.64008,52.89149,59.99631Z"/><path class="cls-15" d="M30.56969,31.28182q.06069-.13521.12132-.27c.00909,1.81962.02106,3.63886.02469,5.45811a1.168,1.168,0,0,0,.2724.83747,2.77325,2.77325,0,0,1-1.27056,4.59931.77985.77985,0,0,1-.19992-.58663c-.02186-1.41424-.0262-2.82858.00208-4.2428a.9786.9786,0,0,1,.12337-.4737c.71395-.13818.76809-.63465.74005-1.24555-.04214-.918-.0032-1.83943-.01425-2.7592A3.4695,3.4695,0,0,1,30.56969,31.28182Z"/><path class="cls-16" d="M43.9735,59.86681c.371.08878.775-.09572,1.12893.13584a2.40235,2.40235,0,0,0-2.00266,2.635c-.00054.30347.00322.60694.005.91041a.21677.21677,0,0,1-.29895.04273l-2.1304-.03779a6.021,6.021,0,0,1,.25984-2.09806,2.38284,2.38284,0,0,1,2.00919-1.45462C43.28828,59.98092,43.65861,60.12029,43.9735,59.86681Z"/><path class="cls-17" d="M29.72979,36.53715q-.00611,2.68485-.01223,5.36961l-.256.05592c-.55586.0672-.58905-.26543-.58747-.70013.00985-2.70174,0-5.40355-.00334-8.10515a.3076.3076,0,0,1,.13118-.01206c.389.46907.19484,1.0274.2208,1.54636C29.25565,35.35018,29.13164,36.03865,29.72979,36.53715Z"/><path class="cls-18" d="M57.59769,50.083a27.61818,27.61818,0,0,0,.47957-5.27626A3.301,3.301,0,0,1,57.59769,50.083Z"/><path class="cls-19" d="M38.869,44.84954a32.28289,32.28289,0,0,0,.91563,5.35639,3.33441,3.33441,0,0,1-1.28259-4.599A2.18261,2.18261,0,0,0,38.869,44.84954Z"/><path class="cls-20" d="M42.80581,63.59083l.29894-.04266q.205.02061.41.04145c-.20883.20718-.46989.09251-.70871.11523A.61513.61513,0,0,0,42.80581,63.59083Z"/><path class="cls-4" d="M35.82049,64.0997a8.09433,8.09433,0,0,0-3.24325,2.31589c-1.11257-.00041-2.22577-.02341-3.33744.00812-.57059.01619-.81181-.15482-.79725-.76267.04649-1.94094-.21591-1.65251,1.65559-1.6668,1.68059-.01283,3.36138-.00577,5.042.0009C35.36848,63.99605,35.617,63.91736,35.82049,64.0997Z"/><path class="cls-3" d="M15.65616,73.544q-4.78092-.01026-9.56183-.02132c-.37751-.001-.755-.01309-1.13267-.02013.0046-4.9538-.00289-9.90755.01825-14.86118a8.75909,8.75909,0,0,1,6.28735-8.13346c.74042-.21919,1.50176-.36772,2.36214-.575-.7899,1.8867-1.54343,3.68671-2.29748,5.4865-.01827.04361-.0438.08412-.06346.12722-.41195.90317-.41187.9028.57929.90388.61623.00067,1.23247.00173,1.84868.00662.03944.00031.07861.03533.18132.08465-.50175.82965-.98316,1.66344-1.50555,2.47073a.59021.59021,0,0,0,.02726.84808c2.13906,2.61483,4.24758,5.25463,6.3664,7.886.41492.51529.824,1.03578,1.255,1.53736a1.012,1.012,0,0,1,.18325.73436q.00308,1.74209.00632,3.48413Q17.93333,73.52321,15.65616,73.544Z"/><path class="cls-5" d="M18.90425,56.59264c.59674-.41073,1.19345-1.142,1.79022-1.142.59624,0,1.19255.73164,1.78883,1.14255.12207.41488-.13861.72869-.309,1.04954a3.06614,3.06614,0,0,0-.29284,1.84534c.18061,1.683.33623,3.36927.41748,5.061a2.08589,2.08589,0,0,1-.08848.69282c-.36707,1.62417-.97239,3.17171-1.53207,4.94964-.50484-1.773-1.13873-3.29436-1.49657-4.90426a17.86447,17.86447,0,0,1,.17487-4.23074,19.18364,19.18364,0,0,1,.18506-2.18981,2.11583,2.11583,0,0,0-.319-1.21675C19.07026,57.31434,18.79686,57.00863,18.90425,56.59264Z"/><path class="cls-16" d="M18.90425,56.59264a5.37442,5.37442,0,0,1,.70939,4.11245c-.18153,1.52284-.29082,3.05429-.43178,4.5821q-1.29356-3.67065-2.37363-7.40986C17.65017,57.68285,18.1593,56.94536,18.90425,56.59264Z"/><path class="cls-16" d="M22.21041,65.24193c-.18829-2.0267-.33685-4.0582-.58139-6.07808-.12473-1.03018.519-1.73262.8543-2.57059.52118.13683.7937.62733,1.24269.88758a5.10854,5.10854,0,0,0,.85191.395C23.84841,60.35035,23.0761,62.81115,22.21041,65.24193Z"/><path class="cls-21" d="M44.49664,25.31181c1.53788-.00012,3.07577-.00233,4.61363.00246a2.5453,2.5453,0,0,1,.6292.06233.51427.51427,0,0,1,.4179.51009.53089.53089,0,0,1-.4308.50293,2.17035,2.17035,0,0,1-.55981.0555q-4.72011.00464-9.44021.00291c-.2855.0001-.57153.02109-.77225-.24866a.48382.48382,0,0,1-.06544-.53136.69017.69017,0,0,1,.71024-.35938C41.23159,25.31564,42.86412,25.31192,44.49664,25.31181Z"/><path class="cls-21" d="M44.504,23.74425c-1.51326,0-3.02652.00312-4.53976-.00328a2.71839,2.71839,0,0,1-.69632-.07764c-.26638-.07251-.47733-.24139-.418-.56361a.56212.56212,0,0,1,.53514-.48307,3.98318,3.98318,0,0,1,.42517-.008c3.14473-.00033,6.28948.00384,9.43419-.005.43109-.00122.91092.01744.89244.53834-.01773.49952-.47863.61154-.95126.60741C47.62519,23.73573,46.06457,23.74424,44.504,23.74425Z"/><path class="cls-14" d="M42.95653,20.90346c-1.13708,0-2.27424-.00761-3.41119.00459-.34394.00369-.654-.05229-.67581-.44376-.02355-.42217.28817-.55691.66135-.55723q3.41124-.00291,6.82246-.00173c.40943-.00023.72218.14835.70778.5993-.01425.44675-.38848.39693-.69336.3977C45.23069,20.90519,44.09361,20.90347,42.95653,20.90346Z"/><path class="cls-14" d="M49.18186,20.92663c-.39419-.14294-1.09117.27353-1.085-.525.00608-.78429.68328-.45442,1.08546-.48111.46039-.03054,1.15766-.17826,1.12863.5584C50.28148,21.22683,49.56122,20.755,49.18186,20.92663Z"/><path class="cls-22" d="M20.93609,43.51372c.6398-.00005,1.27984.0103,1.91935-.00353.46083-.01.52507.16172.34613.561a2.54277,2.54277,0,0,1-4.59737-.04255c-.16157-.38881-.05852-.52233.3414-.51721C19.609,43.52,20.27258,43.51377,20.93609,43.51372Z"/><path class="cls-23" d="M24.73173,37.38439c-.3066.00017-.61353.00866-.91969-.00305-.18091-.00692-.42995.0934-.52748-.06894-.12011-.2.07067-.396.1921-.56287a1.6565,1.6565,0,0,1,2.74333.12922c.18256.33926.16692.52693-.28555.50882C25.53413,37.37155,25.13268,37.38421,24.73173,37.38439Z"/><path class="cls-23" d="M18.64331,37.38412c-.98052,0-1.87307-.00868-2.76534.00344-.49052.00666-.43585-.22427-.25338-.52159a1.54061,1.54061,0,0,1,1.55487-.77136A1.61579,1.61579,0,0,1,18.64331,37.38412Z"/><path class="cls-22" d="M21.48438,40.84324c0,.18847-.00932.37749.00192.56529.02386.39858-.22025.55054-.55617.58922-.33874.039-.6478-.08425-.68584-.44535a8.24451,8.24451,0,0,1-.016-1.5482.5409.5409,0,0,1,.61035-.47113.57445.57445,0,0,1,.63209.53387,6.27967,6.27967,0,0,1,.00624.7763Z"/><path class="cls-24" d="M21.90826,49.20468a3.73414,3.73414,0,0,1-1.86465.07318c.46716-.22384,1.00239.11979,1.43415-.21342C21.63614,49.06543,21.80432,49.03642,21.90826,49.20468Z"/><path class="cls-13" d="M29.72979,36.53715c-.71184-.07035-.76548-.53889-.73515-1.12291.03919-.75442.0083-1.51248.00743-2.26893q.7837-.93164,1.56766-1.86342c0,1.82662,0,3.65331,0,5.52837Z"/><path class="cls-6" d="M25.29577,49.3451c.11445,2.87972-1.38966,4.815-3.96685,5.104A6.90859,6.90859,0,0,1,19.376,53.3532a1.66365,1.66365,0,0,1-.5454-1.78231,1.55593,1.55593,0,0,1,1.49625-1.08367A9.7488,9.7488,0,0,0,25.29577,49.3451Z"/></svg>