<svg id="Layer_1" data-name="Layer 1" xmlns="http://www.w3.org/2000/svg" viewBox="0 0 66 99"><defs><style>.cls-1{fill:#012b73;}</style></defs><path class="cls-1" d="M3.15152,66.027V65.1791q0-18.48516.00008-36.97034c0-1.36074.2701-1.6303,1.63331-1.63031q28.21071-.00016,56.42141,0c1.39158,0,1.648.26207,1.648,1.68367q.00012,18.45186,0,36.90372v.861c.37841,0,.70453-.014,1.029.00293a1.0479,1.0479,0,0,1,1.09518,1.09164c.02282.77638.03659,1.556-.00718,2.33075a3.18972,3.18972,0,0,1-2.98609,2.96214c-.15494.00958-.31073.00706-.46614.00707q-28.5104.00041-57.02081-.00049a3.14793,3.14793,0,0,1-3.40583-2.63,14.07828,14.07828,0,0,1-.03991-2.85589.97351.97351,0,0,1,1.05656-.9055C2.4359,66.01627,2.76361,66.027,3.15152,66.027ZM39.35576,44.3274c.06369-.415.11159-.69378.14873-.974a9.58836,9.58836,0,1,1,17.82405,6.09169,36.02741,36.02741,0,0,0-1.92874,3.859,19.16346,19.16346,0,0,0-1.07414,7.98975c.04645,1.62847.0508,3.24762-1.067,4.67853H60.6852V28.75507H5.33611v37.213h39.3771a5.96842,5.96842,0,0,1-1.055-3.91954c.03219-.84274.00759-1.68772.00563-2.53168a17.82859,17.82859,0,0,0-2.464-9.14392,12.44464,12.44464,0,0,1-1.75585-4.3312c-.04437.89569-.03934,1.78265-.04573,2.66952-.00684.94793-.3814,1.31362-1.34421,1.32084-.62183.00466-1.24447-.01551-1.8651.01235a.60485.60485,0,0,0-.46057.24069c-.41992,1.0173-.80264,2.05-1.23492,3.1776.48683.46634,1.04192.9768,1.57234,1.51171a1.10413,1.10413,0,0,1,.01979,1.78782Q34.73237,58.1414,33.35429,59.496a1.09959,1.09959,0,0,1-1.78591.01119c-.54718-.54739-1.06027-1.12886-1.52411-1.62633l-3.4384,1.427c0,.73008.0088,1.50546-.00239,2.28056a1.08907,1.08907,0,0,1-1.22681,1.23475q-1.96541.01728-3.93106.00018a1.08732,1.08732,0,0,1-1.23336-1.227c-.01144-.77593-.00245-1.55217-.00245-2.2951l-3.37227-1.3915c-.53419.54039-1.06872,1.10426-1.62891,1.64135a1.08151,1.08151,0,0,1-1.69213-.00422q-1.40337-1.376-2.78007-2.779a1.09693,1.09693,0,0,1,.00986-1.78454c.5483-.54548,1.13178-1.05561,1.6147-1.50263l-1.42175-3.4477c-.72768,0-1.48183.00612-2.23584-.0016-.88307-.009-1.27755-.38457-1.28437-1.24384q-.01561-1.96543.00052-3.93106c.0075-.82383.40452-1.20522,1.24143-1.21791.64394-.00976,1.28912.01733,1.93157-.015a.66469.66469,0,0,0,.50315-.2713c.41662-.99688.78978-2.01192,1.22963-3.159-.47691-.45316-1.05144-.9738-1.5964-1.52375a1.0868,1.0868,0,0,1-.02238-1.73754q1.39945-1.427,2.82666-2.82661a1.06993,1.06993,0,0,1,1.64436-.01665c.48624.45494.92622.96084,1.42762,1.39713a.77653.77653,0,0,0,.65312.12375c.85072-.31208,1.6709-.70791,2.5232-1.01495a.5334.5334,0,0,0,.4346-.61306c-.02314-.64324-.0163-1.28811-.00372-1.932a1.07361,1.07361,0,0,1,1.18877-1.20247q1.99866-.02064,3.99767-.00041a1.07624,1.07624,0,0,1,1.204,1.18856c.01436.64376.02519,1.28912-.00483,1.93179-.01794.38419.133.51489.48727.6387a22.30552,22.30552,0,0,1,2.3882.99552.55805.55805,0,0,0,.79184-.13322c.433-.47582.89563-.92609,1.36366-1.3682a1.06834,1.06834,0,0,1,1.64434-.0054q1.45515,1.41821,2.87345,2.874a1.06966,1.06966,0,0,1-.00183,1.64539c-.44159.46848-.893.93-1.36884,1.363a.53.53,0,0,0-.13.79056,9.59175,9.59175,0,0,1,.60736,1.25585c.22262.52319.27521,1.28572.66212,1.5276.4343.27151,1.15993.08682,1.75869.08282C38.2992,43.62948,38.937,43.5644,39.35576,44.3274ZM14.44335,57.40123c.48495-.51457.94482-1.025,1.4295-1.51078a1.10134,1.10134,0,0,1,1.601-.20064,11.18645,11.18645,0,0,0,3.84692,1.59079c.76452.15789,1.01307.51075,1.01971,1.32077.00558.68079.00115,1.36165.00115,2.04623h2.0856a1.019,1.019,0,0,0,.03964-.17234c.00381-.62148.00223-1.243.00793-1.86447.00768-.8368.26058-1.17853,1.07522-1.34453A10.83758,10.83758,0,0,0,29.27713,55.731a1.13975,1.13975,0,0,1,1.708.19892c.47956.48076.93784.98274,1.34071,1.407L33.9479,55.8014c-.52227-.50191-1.03616-.99156-1.54521-1.4862a1.08239,1.08239,0,0,1-.16872-1.50262,11.1351,11.1351,0,0,0,1.62369-3.9045,1.09192,1.09192,0,0,1,1.26344-1.0054c.70141-.00813,1.403-.00173,2.095-.00173V45.80458a1.405,1.405,0,0,0-.18071-.031c-.62153-.00281-1.24311.00017-1.8646-.00611a1.14322,1.14322,0,0,1-1.3347-1.08884,10.82041,10.82041,0,0,0-1.53913-3.7257,1.10971,1.10971,0,0,1,.17117-1.65523c.50041-.48914,1.03693-.94132,1.4354-1.29992l-1.54477-1.68849c-.48072.5006-.94694,1.00686-1.43613,1.48987a1.10637,1.10637,0,0,1-1.60645.16443,10.8919,10.8919,0,0,0-3.78582-1.56472c-.80168-.16166-1.05018-.5115-1.05546-1.36067-.00423-.67831-.00086-1.35666-.00086-2.02949H22.34159c0,.71446.00533,1.3971-.0014,2.07963-.00782.79415-.2695,1.14834-1.04111,1.30543a10.94385,10.94385,0,0,0-3.78766,1.561,1.12221,1.12221,0,0,1-1.65553-.19283c-.48129-.48485-.93629-.99579-1.37357-1.4638l-1.602,1.59013c.504.48143,1.03659.97844,1.5554,1.48948a1.05926,1.05926,0,0,1,.16054,1.45036,11.07822,11.07822,0,0,0-1.64507,3.9663,1.10885,1.10885,0,0,1-1.22609.97573c-.70443-.00864-1.409-.00193-2.13633-.00193v2.07236a.72958.72958,0,0,0,.16128.05035c.62142.00512,1.24289.00506,1.86431.01042.84645.00731,1.19552.25713,1.35786,1.05973A10.92142,10.92142,0,0,0,14.53758,52.747a1.10706,1.10706,0,0,1-.16744,1.6068c-.49352.50056-1.01034.97816-1.52268,1.47141ZM62.85246,68.199H3.19772c-.17188,1.79116.0954,2.0904,1.82589,2.0904q28.04106,0,56.08211-.00005c.19981,0,.4.00673.59938-.00248a1.07408,1.07408,0,0,0,1.14475-1.11544C62.86539,68.86377,62.85246,68.5547,62.85246,68.199ZM45.79639,57.517c0-1.86214.01306-3.72445-.01134-5.58626a2.68,2.68,0,0,0-.25012-1.07216c-.53737-1.14361-1.11418-2.26888-1.68637-3.39585a1.13636,1.13636,0,0,1,.06586-1.30757c1.13859-1.513,1.51683-1.63414,3.30673-1.03717a.44248.44248,0,0,1,.06355.01963,3.90928,3.90928,0,0,0,3.4273.02333c1.77678-.69856,1.79388-.62346,3.13964.74487a1.24017,1.24017,0,0,1,.26742,1.61663c-.58517,1.12014-1.13963,2.25641-1.69875,3.39a1.54435,1.54435,0,0,0-.21611.61533c-.0164,1.9498-.00977,3.89981-.00977,5.84975a22.23877,22.23877,0,0,1,3.301-9.05512,6.61492,6.61492,0,0,0,.84825-4.81181,7.12426,7.12426,0,0,0-5.50725-6.00864,7.00079,7.00079,0,0,0-7.745,2.69607,6.87855,6.87855,0,0,0-.61254,8.05392A24.93149,24.93149,0,0,1,45.79639,57.517Zm4.26449,1.01347v-.67666c0-1.50781.0798-3.021-.021-4.522a7.57082,7.57082,0,0,1,1.13868-4.73781,15.31709,15.31709,0,0,0,.7424-1.48938l-.09471-.19437a5.402,5.402,0,0,1-5.72351.09466c.48549,1.153,1.03094,2.18175,1.51543,3.23843a3.23714,3.23714,0,0,1,.297,1.26547c.0296,2.10609.01349,4.21284.0135,6.31935v.70235Zm-3.96321,5.397a3.05438,3.05438,0,0,0,5.801,0Zm-.27626-2.2154h6.33881v-.98026H45.82141Z"/><path class="cls-1" d="M39.65006,54.895l1.89163.934a20.21191,20.21191,0,0,1-5.40334,6.75621l-1.33-1.64924A18.96314,18.96314,0,0,0,39.65006,54.895Z"/><path class="cls-1" d="M50.02926,29.82185v4.18606H47.97863V29.82185Z"/><path class="cls-1" d="M40.64463,32.50183l1.77573-1.18226,2.13073,3.2-1.76288,1.1775Z"/><path class="cls-1" d="M55.21592,35.69317l-1.77049-1.18125,2.12771-3.19516,1.77241,1.17914Z"/><path class="cls-1" d="M33.549,64.39762l-2.25026,1.11973-.83081-1.95312,2.00354-1.00757Z"/><path class="cls-1" d="M31.93577,46.83435a8.52793,8.52793,0,1,1-8.44608-8.52768A8.53765,8.53765,0,0,1,31.93577,46.83435Zm-14.92378.0167a6.39537,6.39537,0,1,0,6.3774-6.41247A6.40961,6.40961,0,0,0,17.012,46.85105Z"/><path class="cls-1" d="M23.42009,51.09829a4.26372,4.26372,0,1,1,4.25036-4.22682A4.27062,4.27062,0,0,1,23.42009,51.09829Zm2.11671-4.27381A2.12918,2.12918,0,1,0,23.435,48.964,2.13815,2.13815,0,0,0,25.5368,46.82448Z"/></svg>