<svg id="Layer_1" data-name="Layer 1" xmlns="http://www.w3.org/2000/svg" viewBox="0 0 66 99"><defs><style>.cls-1{fill:#012b73;}.cls-2{fill:#ebeef0;}.cls-3{fill:#4cae50;}.cls-4{fill:#fec007;}.cls-5{fill:#f34336;}.cls-6{fill:#2195f2;}</style></defs><path class="cls-1" d="M52.21091,86c-1.63692-.46935-3.32723-.67063-4.99508-.97955C41.329,83.93011,35.43531,82.8768,29.5452,81.80412q-10.37082-1.88869-20.74-3.78636-3.07243-.56127-6.14406-1.127a1.57039,1.57039,0,0,1-1.5357-1.83687q-.00321-8.62386-.001-17.24771,0-9.26529.00031-18.5306c.00015-1.32041.38937-1.77609,1.6908-2.01293q13.65777-2.48547,27.315-4.97419,11.00262-2.004,22.00572-4.00535a2.85368,2.85368,0,0,1,1.33234.07225c3.33493.96879,6.67656,1.91437,10.01383,2.87512a1.58541,1.58541,0,0,1,1.39248,1.83682q.002,24.01851.00017,48.037a1.62134,1.62134,0,0,1-1.42523,1.89132q-4.97235,1.431-9.94755,2.852c-.11012.03152-.23946.01815-.29526.15238Z"/><path class="cls-1" d="M28.58876,13c1.05875.27956,2.16267.35148,3.20283.72345a10.52578,10.52578,0,0,1,3.23495,1.7344,6.50538,6.50538,0,0,1,2.52905,5.2544c-.0091,1.97112.00669,3.94238-.00723,5.91345a1.4986,1.4986,0,0,1-1.27272,1.56146,1.51777,1.51777,0,0,1-1.62141-.88459,2.26768,2.26768,0,0,1-.12873-.978c-.00377-1.80492-.01185-3.60992.0016-5.41474a3.74919,3.74919,0,0,0-1.33695-3.01237,8.74915,8.74915,0,0,0-12.79144,2.107,7.76216,7.76216,0,0,0-1.0588,3.93574c-.0032,1.85241.00334,3.70485-.00242,5.55725a1.54926,1.54926,0,0,1-1.534,1.74926,1.51724,1.51724,0,0,1-1.4914-1.71377c-.01187-1.94733-.03647-3.89551.00438-5.84207.11319-5.393,4.31664-10.1019,9.40034-10.5694.23127-.129.51268.04762.73737-.12146Z"/><path class="cls-1" d="M26.45422,13a.77622.77622,0,0,1-.73737.12146A.79159.79159,0,0,0,25.74271,13Z"/><path class="cls-1" d="M25.42548,27.48084a12.46477,12.46477,0,0,1,1.97562-6.51108,5.39491,5.39491,0,0,1,1.86928-1.71058A1.51114,1.51114,0,0,1,30.9849,21.7323,7.5676,7.5676,0,0,0,28.433,27.59479c-.00122.21341.01736.42738.00783.64024A1.49473,1.49473,0,0,1,26.939,29.71531a1.46857,1.46857,0,0,1-1.51115-1.45971C25.41259,27.99571,25.42548,27.73417,25.42548,27.48084Z"/><path class="cls-1" d="M43.74181,23.84156c-.02614.3815-.03958.85738-.095,1.3283a1.53975,1.53975,0,1,1-3.04547-.34033,12.37142,12.37142,0,0,0-.22417-3.6795.91821.91821,0,0,0-.52178-.75717,1.44669,1.44669,0,0,1-.72808-1.75089,1.49726,1.49726,0,0,1,1.57089-1.071A2.10627,2.10627,0,0,1,42.619,18.803,11.36974,11.36974,0,0,1,43.74181,23.84156Z"/><path class="cls-2" d="M61.85121,57.10807q0,11.22717.01193,22.45432c.00125.5328-.116.76851-.67152.91845-2.694.72709-5.37353,1.5084-8.05307,2.2882a2.06584,2.06584,0,0,1-.97766.05764q-16.20831-2.96079-32.417-5.91974C14.71379,75.98971,9.68378,75.07145,4.648,74.18609c-.52383-.0921-.503-.3598-.50266-.7328q.00687-6.84321.003-13.68645c0-6.32049.0071-12.641-.013-18.96141-.00168-.52825.14234-.72006.66575-.8138Q14.76437,38.20741,24.72,36.38089q9.95785-1.81281,19.91519-3.62852c2.51547-.45811,5.03252-.90766,7.54587-1.37711a2.05064,2.05064,0,0,1,.97244.04676c2.68189.76829,5.36071,1.54805,8.05111,2.28535.549.15044.66069.41429.65935.94638Q61.83578,45.88086,61.85121,57.10807Z"/><path class="cls-1" d="M43.648,57.12836q.00066,5.8425-.00015,11.685c-.00069,1.51282-.59211,2.08843-2.10507,1.92721-4.12018-.43906-8.23622-.917-12.35447-1.37432Q23.751,68.76237,18.3125,68.16884c-1.24741-.13774-2.4959-.268-3.74042-.42873a1.551,1.551,0,0,1-1.32623-1.73841c-.00787-2.37516-.00224-4.75037-.00261-7.12556q-.00081-5.23627-.00179-10.47254c.00034-1.35469.50086-1.87949,1.83474-2.02548q7.62463-.83448,15.24667-1.69292,5.75158-.641,11.50311-1.28242a1.56935,1.56935,0,0,1,1.822,1.68454c.01184,3.49145.00138,6.983-.00036,10.47448Q43.6472,56.34507,43.648,57.12836Z"/><path class="cls-3" d="M34.485,55.62063c-1.79953,0-3.59927-.01483-5.39846.01-.47409.00654-.65941-.09315-.65231-.617q.04389-3.23774.00145-6.47637c-.00547-.4772.1681-.5737.60586-.62033q5.42993-.57841,10.85286-1.22136c.53909-.06434.694.03878.68789.59794q-.0417,3.80726-.00093,7.61517c.00536.53942-.11521.7389-.69806.72624C38.08464,55.59581,36.28456,55.62064,34.485,55.62063Z"/><path class="cls-4" d="M34.52183,58.625c1.82369,0,3.64757.01433,5.47094-.01011.45428-.00609.60009.10695.59578.58326q-.03537,3.91517-.00257,7.83081c.003.44863-.10638.53629-.561.48367-3.667-.42442-7.33745-.82013-11.00842-1.2096-.43147-.04577-.58839-.188-.5824-.65311.02777-2.15909.02394-4.31886.00238-6.47809-.00427-.42839.09226-.56512.54332-.55837C30.82684,58.64113,32.67446,58.625,34.52183,58.625Z"/><path class="cls-5" d="M20.82542,55.60669c-1.30354,0-2.60743-.01687-3.91045.00917-.45689.00913-.61534-.1149-.6072-.59621.02851-1.68554.03165-3.37227-.00183-5.05762-.00977-.49219.15971-.65857.61906-.706,2.33158-.241,4.65936-.51966,6.99194-.74981,1.514-.14938,1.51669-.12226,1.51668,1.41383,0,1.70977-.01289,3.4197.00885,5.12919.00556.43653-.12741.57439-.56437.56644C23.5276,55.59109,22.17637,55.60667,20.82542,55.60669Z"/><path class="cls-6" d="M20.862,58.62508c1.349,0,2.69825.01251,4.047-.0079.39085-.00591.53416.09557.53038.51135-.019,2.08657-.014,4.17344-.00354,6.26014.00176.35134-.05471.5048-.47151.45489q-4.08468-.48913-8.17585-.9226c-.362-.03839-.48128-.14424-.47808-.50954.01557-1.77834.01862-3.557-.00161-5.33528-.00461-.40538.16539-.46056.50622-.45693C18.16384,58.63359,19.513,58.62512,20.862,58.62508Z"/></svg>